<?xml version="1.0" encoding="UTF-8" standalone="no" ?>
<!DOCTYPE svg PUBLIC "-//W3C//DTD SVG 1.1//EN" "http://www.w3.org/Graphics/SVG/1.1/DTD/svg11.dtd">
<svg xmlns="http://www.w3.org/2000/svg" xmlns:xlink="http://www.w3.org/1999/xlink" version="1.1" width="1080" height="1080" viewBox="0 0 1080 1080" xml:space="preserve">
<desc>Created with Fabric.js 5.2.4</desc>
<defs>
</defs>
<g transform="matrix(1 0 0 1 540 540)" id="a6d2da38-8587-4414-81f0-20832ec738fa"  >
<rect style="stroke: none; stroke-width: 1; stroke-dasharray: none; stroke-linecap: butt; stroke-dashoffset: 0; stroke-linejoin: miter; stroke-miterlimit: 4; fill: rgb(255,255,255); fill-rule: nonzero; opacity: 1; visibility: hidden;" vector-effect="non-scaling-stroke"  x="-540" y="-540" rx="0" ry="0" width="1080" height="1080" />
</g>
<g transform="matrix(1 0 0 1 540 540)" id="7079ff3a-66f8-4a28-a8ac-ea4cff892b1a"  >
</g>
<g transform="matrix(1.02 0 0 0.96 543.81 540.1)"  >
<path style="stroke: none; stroke-width: 1; stroke-dasharray: none; stroke-linecap: butt; stroke-dashoffset: 0; stroke-linejoin: miter; stroke-miterlimit: 4; fill: rgb(0,0,0); fill-rule: nonzero; opacity: 1;" vector-effect="non-scaling-stroke"  transform=" translate(-73.55, -66.36)" d="M 106.02 121.68 L 36.18 121.68 C 34.52 121.68 34.92 120.33000000000001 34.92 118.67 L 34.92 14.05 C 34.92 12.39 36.27 11.040000000000001 37.93 11.040000000000001 L 107.28999999999999 11.040000000000001 C 110.00999999999999 11.040000000000001 112.22 13.25 112.22 15.97 L 112.22 115.73 C 112.22 119.59 110.39 121.68 106.02 121.68 z" stroke-linecap="round" />
</g>
<g transform="matrix(0.97 0 0 0.81 537.24 580.07)"  >
<path style="stroke: none; stroke-width: 1; stroke-dasharray: none; stroke-linecap: butt; stroke-dashoffset: 0; stroke-linejoin: miter; stroke-miterlimit: 4; fill: rgb(148,198,214); fill-rule: nonzero; opacity: 1;" vector-effect="non-scaling-stroke"  transform=" translate(-63.5, -106.26)" d="M 18.53 115.14 C 18.53 117.08 21.6 118.71 23.54 118.71 L 103.93 118.66 C 106.91000000000001 118.66 108.47000000000001 117.08 108.47000000000001 115.14 L 108.22000000000001 93.82 L 18.53 93.82 L 18.53 115.13999999999999 z" stroke-linecap="round" />
</g>
<g transform="matrix(0.6 0 0 0.97 578.47 539.83)"  >
<path style="stroke: none; stroke-width: 1; stroke-dasharray: none; stroke-linecap: butt; stroke-dashoffset: 0; stroke-linejoin: miter; stroke-miterlimit: 4; fill: rgb(245,245,245); fill-rule: nonzero; opacity: 1;" vector-effect="non-scaling-stroke"  transform=" translate(-104.16, -65.29)" d="M 101.47 105.88 C 101.47 105.88 99.34 111.72999999999999 101.5 114.66 C 104.01 118.06 108.39 117.24 108.39 115.64999999999999 L 108.39 16.44 C 108.39 15.780000000000001 107.78 15.3 107.14 15.440000000000001 C 105.75 15.740000000000002 103.25 15.750000000000002 99.93 13.55 L 101.47000000000001 105.88 z" stroke-linecap="round" />
</g>
<g transform="matrix(1 0 0 1 538.83 534.84)"  >
<path style="stroke: none; stroke-width: 1; stroke-dasharray: none; stroke-linecap: butt; stroke-dashoffset: 0; stroke-linejoin: miter; stroke-miterlimit: 4; fill: rgb(0,0,0); fill-rule: nonzero; opacity: 1;" vector-effect="non-scaling-stroke"  transform=" translate(-62.83, -58.65)" d="M 94.16 110.85 L 23.64 110.85 L 23.64 6.45 L 95.89 6.45 C 98.16 6.45 99.76 7.0600000000000005 100.51 8.07 C 101.49000000000001 9.38 102.01 11.370000000000001 102.01 13.55 L 102.01 103 C 102.01 107.33543528617173 98.49543528617173 110.85 94.16000000000001 110.85 z" stroke-linecap="round" />
</g>
<g transform="matrix(1 0 0 1 535.75 533.31)"  >
<path style="stroke: none; stroke-width: 1; stroke-dasharray: none; stroke-linecap: butt; stroke-dashoffset: 0; stroke-linejoin: miter; stroke-miterlimit: 4; fill: rgb(0,0,0); fill-rule: nonzero; opacity: 1;" vector-effect="non-scaling-stroke"  transform=" translate(-59.74, -57.12)" d="M 92.01 107.78 L 25.54 107.78 C 22.78 107.78 20.549999999999997 105.54 20.549999999999997 102.79 L 20.549999999999997 11.45 C 20.549999999999997 8.69 22.79 6.459999999999999 25.54 6.459999999999999 L 92.00999999999999 6.459999999999999 C 95.82999999999998 6.459999999999999 98.92999999999999 8.639999999999999 98.92999999999999 13.379999999999999 L 98.92999999999999 100.86999999999999 C 98.91999999999999 104.67999999999999 95.83 107.77999999999999 92.00999999999999 107.77999999999999 z" stroke-linecap="round" />
</g>
<g transform="matrix(0.64 0 0 0.99 497.72 538.01)"  >
<path style="stroke: none; stroke-width: 1; stroke-dasharray: none; stroke-linecap: butt; stroke-dashoffset: 0; stroke-linejoin: miter; stroke-miterlimit: 4; fill: rgb(97,97,97); fill-rule: nonzero; opacity: 1;" vector-effect="non-scaling-stroke"  transform=" translate(-25.1, -62.47)" d="M 34.43 109.75 L 34.38 6.46 L 23.18 6.46 C 23.18 6.46 20.87 6.06 19.33 6.46 C 16.54 7.19 15.77 9.22 15.77 12.53 L 15.77 106.94 C 16 113 16 116 21 117 C 18 116 19.08 111.83 19.89 110.38 C 20.61 109.1 34.43 109.75 34.43 109.75 z" stroke-linecap="round" />
</g>
<g transform="matrix(1 0 0 1 499.19 534.84)"  >
<path style="stroke: rgb(66,66,66); stroke-width: 2; stroke-dasharray: none; stroke-linecap: butt; stroke-dashoffset: 0; stroke-linejoin: miter; stroke-miterlimit: 10; fill: none; fill-rule: nonzero; opacity: 1;" vector-effect="non-scaling-stroke"  transform=" translate(-23.18, -58.65)" d="M 23.18 6.45 L 23.18 110.85000000000001" stroke-linecap="round" />
</g>
<g transform="matrix(0.58 0 0 0.55 499.76 588.52)"  >
<path style="stroke: rgb(66,66,66); stroke-width: 3; stroke-dasharray: none; stroke-linecap: butt; stroke-dashoffset: 0; stroke-linejoin: miter; stroke-miterlimit: 10; fill: none; fill-rule: nonzero; opacity: 1;" vector-effect="non-scaling-stroke"  transform=" translate(-27.52, -114.77)" d="M 34.38 109.34 L 23.080000000000002 109.56 C 19.310000000000002 109.56 18.020000000000003 113.60000000000001 18.69 116.27 C 19.53 119.64 23.01 120.19 23.87 120.19 L 36.52 120.19" stroke-linecap="round" />
</g>
</svg>