<?xml version="1.0" standalone="no"?>
<!DOCTYPE svg PUBLIC "-//W3C//DTD SVG 20010904//EN"
 "http://www.w3.org/TR/2001/REC-SVG-20010904/DTD/svg10.dtd">
<svg version="1.0" xmlns="http://www.w3.org/2000/svg"
 width="1024.000000pt" height="1024.000000pt" viewBox="0 0 1024.000000 1024.000000"
 preserveAspectRatio="xMidYMid meet">

<g transform="translate(0.000000,1024.000000) scale(0.100000,-0.100000)"
fill="#000000" stroke="none">
<path d="M2555 8940 c-140 -33 -223 -191 -166 -315 67 -144 245 -179 366 -73
142 125 62 365 -130 390 -22 3 -53 2 -70 -2z"/>
<path d="M1992 8329 c-53 -27 -87 -70 -103 -132 -22 -89 19 -173 105 -213 64
-30 98 -30 163 0 62 29 100 81 109 148 21 151 -137 264 -274 197z"/>
<path d="M3115 8104 c-173 -26 -342 -97 -463 -198 -51 -42 -127 -127 -155
-174 l-17 -30 52 -7 c234 -32 431 -152 508 -309 l33 -66 478 0 479 0 0 44 c0
61 -25 176 -54 248 -37 92 -85 164 -164 249 -106 114 -223 181 -387 224 -59
16 -252 27 -310 19z"/>
<path d="M2290 7569 c-101 -11 -161 -61 -187 -155 -24 -86 -24 -365 0 -453 21
-78 62 -155 97 -185 24 -20 26 -27 21 -66 -6 -48 -3 -46 -104 -71 -94 -23
-169 -101 -186 -193 -12 -65 7 -153 43 -201 32 -42 110 -81 178 -90 46 -6 47
-7 53 -48 27 -166 180 -366 338 -441 99 -47 173 -60 315 -53 118 5 253 37 311
74 13 8 26 11 30 6 4 -4 18 -55 30 -112 13 -57 40 -158 61 -225 22 -66 37
-123 34 -127 -16 -26 -424 -362 -499 -412 -23 -15 -87 -42 -143 -61 -153 -52
-215 -89 -312 -186 -98 -98 -142 -168 -166 -259 -28 -112 -6 -189 66 -230 72
-40 174 -16 268 65 38 32 42 34 42 14 0 -53 56 -115 116 -126 82 -15 191 86
250 233 l32 78 173 93 c96 52 248 137 337 189 l164 96 58 -58 c32 -32 63 -54
69 -51 14 9 207 255 254 325 21 29 37 58 37 65 -1 13 -58 93 -255 353 -226
297 -262 365 -272 518 -12 183 65 342 211 437 85 55 168 78 280 78 228 -1 399
-92 562 -301 80 -103 110 -143 311 -422 237 -330 286 -511 197 -731 -47 -116
-263 -412 -493 -676 -46 -52 -85 -101 -88 -108 -3 -7 29 -52 70 -101 90 -106
99 -123 127 -232 83 -326 252 -728 369 -881 111 -143 184 -178 796 -383 528
-176 586 -205 652 -323 21 -37 68 -139 106 -227 170 -398 314 -637 422 -701
42 -24 52 -26 113 -20 37 4 92 10 123 13 44 4 84 -2 184 -27 106 -28 138 -32
199 -27 80 6 144 32 170 69 32 46 22 65 -102 187 -153 151 -260 296 -433 583
-117 195 -200 364 -258 526 -65 181 -89 229 -141 276 -51 46 -69 53 -170 65
-109 14 -206 49 -380 136 -142 71 -494 263 -535 291 -20 14 -20 26 -20 517 0
490 -1 504 -23 587 -31 118 -101 254 -167 328 l-55 60 12 51 c13 60 2 113 -40
176 -28 44 -549 763 -717 992 -58 78 -105 146 -105 151 0 5 12 18 26 27 27 17
27 17 58 -19 l31 -37 385 277 c212 152 402 288 423 302 20 13 37 29 37 34 0 5
-61 87 -135 183 -195 250 -271 298 -480 299 -60 1 -129 -3 -152 -7 -39 -8 -43
-7 -52 15 -66 170 -100 216 -176 237 -46 12 -124 -1 -169 -28 -54 -34 -71 -75
-70 -168 l0 -83 -50 -16 c-95 -31 -165 -82 -234 -173 -50 -66 -79 -138 -98
-241 -20 -112 -24 -104 59 -118 39 -7 76 -13 82 -13 5 0 15 36 21 79 14 101
50 179 111 240 47 47 159 112 193 112 10 0 29 -18 44 -41 l27 -40 -24 -52
c-69 -146 -62 -310 19 -472 32 -66 33 -71 17 -83 -42 -31 -50 -32 -84 -5 -48
36 -203 108 -274 128 -112 30 -275 30 -346 1 -18 -8 -89 47 -89 67 0 6 20 41
45 79 58 86 119 208 151 300 13 39 24 73 24 75 0 2 -218 3 -485 3 l-485 0 0
-23 c0 -37 -37 -136 -71 -188 -50 -78 -149 -164 -242 -208 -89 -43 -236 -87
-260 -78 -18 7 -43 115 -30 127 4 4 42 17 83 30 110 32 187 75 250 139 76 75
103 144 104 261 1 77 -2 92 -32 152 -51 104 -156 186 -292 229 -75 23 -210 37
-290 28z m182 -211 c65 -35 101 -112 101 -215 0 -80 -17 -139 -51 -177 -29
-32 -93 -56 -154 -56 -69 0 -79 11 -102 110 -30 124 -12 326 31 358 26 20 122
9 175 -20z m27 -985 c11 -21 37 -55 58 -75 96 -93 216 -107 396 -45 59 20 121
37 138 37 42 0 75 -25 93 -71 18 -46 20 -87 6 -173 -5 -33 -12 -82 -15 -108
l-6 -47 -76 -31 c-243 -101 -466 -75 -597 71 -53 59 -82 119 -108 225 l-20 81
31 65 c17 36 31 70 31 75 0 13 22 33 37 33 7 0 21 -17 32 -37z"/>
<path d="M5565 6494 c-126 -91 -315 -226 -420 -301 -104 -75 -191 -137 -193
-139 -2 -1 46 -67 105 -146 60 -78 176 -234 257 -344 l148 -202 38 27 c21 14
100 71 176 125 77 55 193 138 259 185 291 206 366 263 361 278 -3 8 -103 150
-222 316 -269 375 -264 367 -272 367 -4 0 -110 -75 -237 -166z"/>
<path d="M3959 6227 c-228 -65 -313 -298 -194 -535 34 -66 126 -187 256 -333
131 -149 229 -295 229 -344 0 -35 -16 -63 -118 -205 -212 -295 -238 -324 -417
-463 -91 -71 -159 -151 -208 -246 -80 -153 -118 -362 -83 -454 34 -89 109
-141 201 -141 102 1 161 39 362 239 148 147 183 187 256 300 47 73 123 172
172 225 206 222 435 514 497 633 83 157 78 324 -14 485 -76 133 -459 642 -539
716 -118 110 -276 158 -400 123z"/>
<path d="M6065 5558 c-192 -138 -380 -271 -417 -296 -38 -25 -68 -49 -68 -53
0 -9 69 -109 152 -219 97 -129 177 -173 313 -174 81 -1 97 2 158 31 134 64
356 234 406 311 74 116 80 216 19 342 -32 67 -196 310 -208 310 -3 0 -162
-114 -355 -252z"/>
<path d="M5918 3824 c-2 -174 -1 -319 2 -323 11 -17 417 -252 498 -289 48 -22
59 -23 93 -13 52 16 310 132 477 214 l132 66 60 -61 c126 -130 363 -522 572
-948 66 -135 131 -260 145 -278 13 -18 42 -41 64 -52 70 -36 124 -11 200 91
20 25 63 54 159 103 72 37 146 81 165 97 64 56 81 137 48 221 -41 106 -179
302 -443 633 -298 373 -440 538 -589 685 -136 134 -193 165 -301 165 -60 -1
-85 -6 -125 -27 -360 -185 -438 -219 -559 -245 -153 -32 -243 -1 -422 149 -62
51 -126 101 -143 111 l-30 18 -3 -317z"/>
</g>
</svg>
