<svg version="1.1" id="Layer_1" xmlns="http://www.w3.org/2000/svg" xmlns:xlink="http://www.w3.org/1999/xlink" x="0px" y="0px"
	 width="100%" viewBox="0 0 364 488" enable-background="new 0 0 364 488" xml:space="preserve">
<path fill="#47704C" opacity="1.000000" stroke="none" 
	d="
M259.000000,0.999999 
	C294.324066,1.000000 329.648102,1.000000 364.979126,0.999999 
	C364.986084,163.614655 364.986084,326.229309 364.986084,488.921997 
	C243.750595,488.921997 122.501122,488.921997 1.125823,488.921997 
	C1.125823,326.333405 1.125823,163.666718 1.122930,1.000016 
	C69.768707,1.000000 138.417374,1.000000 207.320312,1.311823 
	C192.562775,6.025972 177.907349,11.267170 167.673721,23.967398 
	C161.568008,31.544767 156.419189,40.261982 158.334213,50.306442 
	C159.819229,58.095497 163.776489,65.404289 166.527298,72.965675 
	C167.513412,75.676346 169.033981,78.555786 168.860626,81.265427 
	C167.826813,97.424393 166.290649,113.550323 165.073410,129.698685 
	C163.608383,149.133926 155.342072,165.575211 142.569427,179.793213 
	C131.253174,192.390030 119.210037,204.331421 107.779778,216.829193 
	C100.536545,224.748886 93.218903,232.722198 86.994453,241.429092 
	C68.550728,267.228607 54.264740,295.371582 41.818600,324.478455 
	C33.620888,343.649872 27.414108,363.251038 29.044138,384.495697 
	C29.263308,387.352173 30.055378,390.164703 30.582161,392.997589 
	C31.333101,392.920746 32.084042,392.843872 32.834984,392.767029 
	C32.834984,389.790436 32.940174,386.809113 32.806137,383.838593 
	C32.665054,380.711884 31.904793,377.572113 32.090591,374.478577 
	C33.080536,357.996246 37.194862,342.167480 44.050907,327.253357 
	C52.533142,308.801697 61.377769,290.481293 70.941429,272.571747 
	C81.076447,253.592194 93.363480,235.983459 108.208130,220.250885 
	C121.644005,206.011322 135.188766,191.856400 148.129272,177.173904 
	C156.807541,167.327423 163.820541,156.124893 166.035904,142.890915 
	C168.753983,126.653770 170.733948,110.293068 172.847214,95.303528 
	C175.734344,107.581680 176.725342,120.940346 171.851517,134.849380 
	C166.524261,150.052383 163.159546,165.935181 158.637802,181.433670 
	C157.456573,185.482391 155.779480,189.682892 153.249268,192.985687 
	C145.820389,202.682953 137.969223,212.066818 130.058502,221.382401 
	C119.459694,233.863419 108.464905,246.010849 97.973061,258.579407 
	C81.184280,278.691315 66.573334,300.266785 55.452942,324.081024 
	C48.894642,338.125549 46.744892,352.572205 50.783829,367.828583 
	C53.384247,377.651215 58.823204,385.804169 64.400314,394.024506 
	C66.989525,397.840820 71.117531,400.798553 71.014793,406.308289 
	C70.811684,417.201752 70.301552,428.168579 71.316208,438.973846 
	C71.862595,444.792450 74.744003,450.634308 77.550880,455.948608 
	C83.768753,467.720886 94.744530,474.849335 105.114624,482.464722 
	C105.710648,482.902435 106.696785,482.808899 107.501366,482.962616 
	C103.450935,478.006897 98.957283,473.868439 94.450706,469.744141 
	C85.966492,461.979553 77.103493,454.236206 75.633904,441.996216 
	C74.471954,432.318542 74.467926,422.496887 74.112320,412.733276 
	C74.065147,411.438110 74.978401,410.107941 75.571373,408.444763 
	C85.769768,420.056213 95.582100,431.228119 105.394432,442.399994 
	C105.926666,442.009369 106.458900,441.618713 106.991127,441.228058 
	C106.246216,439.911133 105.690933,438.432373 104.726593,437.302734 
	C96.350914,427.490936 87.763504,417.855377 79.580048,407.887482 
	C77.728645,405.632355 75.859634,402.063904 76.287453,399.478760 
	C79.286507,381.356750 86.510735,364.802765 96.516022,348.439514 
	C99.425560,356.920227 101.660889,364.801086 104.792358,372.308136 
	C114.293877,395.085938 121.417282,418.279755 120.114014,443.394623 
	C119.924530,447.046265 121.170433,450.772339 121.752136,454.463989 
	C122.306793,454.423950 122.861443,454.383911 123.416092,454.343872 
	C123.609734,452.817078 124.020355,451.281403 123.958504,449.765015 
	C123.722328,443.974915 122.830154,438.167603 123.097870,432.409241 
	C123.871361,415.772125 118.773819,400.506592 113.130753,385.259583 
	C108.609779,373.044312 104.339989,360.729736 100.318741,348.342346 
	C99.671242,346.347778 100.181831,343.235046 101.393684,341.505829 
	C107.048500,333.436981 113.137177,325.672211 118.674110,318.324982 
	C119.820061,320.682770 121.028893,323.169952 122.306129,325.797852 
	C122.005310,325.862000 121.384766,325.937866 120.801140,326.127441 
	C112.676926,328.765991 112.693527,328.759766 117.544899,336.187805 
	C118.899101,338.261292 119.687782,340.319946 117.222221,342.307678 
	C114.239136,344.712646 114.974167,347.563721 115.840851,350.859558 
	C116.932503,355.010895 117.343483,359.400726 117.548843,363.711487 
	C117.846474,369.958984 116.910728,376.356110 117.906456,382.460114 
	C119.812485,394.144470 122.519318,405.712494 125.270493,417.238892 
	C126.715416,423.292603 128.124252,429.531281 133.181396,434.164337 
	C130.920807,425.022430 128.660202,415.880524 126.399597,406.738586 
	C127.148155,406.439789 127.896713,406.140961 128.645279,405.842163 
	C131.003967,409.266266 133.362640,412.690369 135.721329,416.114471 
	C136.188095,415.987762 136.654846,415.861023 137.121613,415.734283 
	C137.121613,409.475983 136.031555,402.962402 137.421021,397.029510 
	C138.878540,390.806030 142.713745,385.139374 145.509811,379.229401 
	C148.031967,385.226105 146.093430,389.377167 142.415253,393.314178 
	C140.714111,395.135010 137.661316,397.292267 140.287643,401.676147 
	C142.872986,398.636047 145.124771,395.988159 147.776642,392.869843 
	C148.423538,394.316681 148.832855,394.869232 148.913864,395.466339 
	C150.975555,410.660492 153.010345,425.858307 155.030304,441.058075 
	C155.472916,444.388641 157.244659,448.597412 155.863419,450.829376 
	C154.376663,453.231842 149.881973,453.740753 146.736084,455.156799 
	C142.818039,456.920410 138.937256,458.766846 135.040375,460.577484 
	C135.281815,461.154449 135.523254,461.731445 135.764694,462.308441 
	C143.030991,459.595154 150.297287,456.881897 158.396667,453.857513 
	C161.839279,465.416321 165.185501,476.651581 168.531738,487.886810 
	C169.128265,487.701050 169.724808,487.515320 170.321335,487.329559 
	C169.538712,482.929382 168.756073,478.529175 167.744080,472.839447 
	C170.885620,475.510468 172.941666,477.258545 174.997711,479.006653 
	C175.445297,478.676971 175.892868,478.347321 176.340454,478.017639 
	C175.041016,475.994690 173.721176,473.984467 172.446533,471.945984 
	C170.003494,468.038940 167.106750,464.327148 165.266556,460.151611 
	C162.245377,453.296295 163.543610,450.940369 170.415878,448.279449 
	C173.344772,447.145386 175.381607,446.779694 176.600693,450.837036 
	C177.745438,454.647034 180.141800,458.080963 181.987442,461.680359 
	C182.577103,461.392792 183.166763,461.105194 183.756424,460.817627 
	C182.271164,457.078491 180.543411,453.410858 179.410599,449.567871 
	C178.901321,447.840118 178.863297,444.697571 179.849060,444.033081 
	C183.485641,441.581818 187.639450,439.897919 192.177979,437.636932 
	C195.536865,433.891998 199.497635,429.304504 203.656586,424.904358 
	C206.091049,422.328705 208.376740,418.215546 212.990524,423.533813 
	C213.363113,421.614777 213.596451,420.569885 213.765305,419.514679 
	C214.314423,416.083099 214.042282,412.248840 215.522964,409.288086 
	C220.100769,400.134430 225.351013,391.317505 230.324234,382.361023 
	C233.249359,377.093079 236.144333,371.808411 239.052887,366.531281 
	C239.840454,382.043274 240.854950,397.378693 235.861084,412.267059 
	C234.247375,417.078064 231.447144,420.356415 226.544357,422.317535 
	C221.808014,424.212097 217.457535,427.071289 212.937561,429.506775 
	C213.197830,430.102753 213.458084,430.698700 213.718353,431.294678 
	C218.646301,429.620209 223.574249,427.945740 229.122742,426.060394 
	C225.726334,433.610535 222.684784,440.371857 219.643234,447.133179 
	C220.201492,447.416962 220.759766,447.700714 221.318024,447.984497 
	C223.561310,444.272766 225.743042,440.522095 228.061249,436.857758 
	C232.337524,430.098297 234.905609,422.217834 242.071152,417.379150 
	C246.561447,414.346985 250.878494,410.807526 254.490646,406.791748 
	C258.600616,402.222443 261.839020,396.869141 265.456268,391.856628 
	C259.593994,410.129242 245.059082,424.028351 239.769653,442.648590 
	C241.016724,442.003693 241.819550,441.086914 242.437668,440.059082 
	C246.436462,433.409882 250.704391,426.898560 254.299896,420.035980 
	C261.028137,407.194092 268.916046,394.668823 273.502502,381.061615 
	C281.027618,358.736206 283.612030,335.304199 283.020630,311.634949 
	C282.812683,303.312927 283.264709,294.953156 282.646576,286.667969 
	C281.824921,275.654602 280.079681,264.713379 279.051453,253.711227 
	C278.127960,243.830154 278.120667,233.845154 276.830444,224.021408 
	C275.295410,212.333740 276.230591,200.741714 278.935852,189.610794 
	C283.170166,172.188599 288.270874,154.894867 294.351562,138.032455 
	C298.401184,126.802452 304.742004,116.390778 310.213928,105.692940 
	C310.805847,104.535736 312.316772,103.466553 313.609924,103.107376 
	C333.057404,97.705627 340.681274,72.199409 335.073700,56.909412 
	C325.911530,31.927258 307.294220,17.213009 283.448059,8.107606 
	C275.546173,5.090342 267.163086,3.333246 259.000000,0.999999 
z"/>
<path fill="#29D8BB" opacity="1.000000" stroke="none" 
	d="
M258.531342,0.999999 
	C267.163086,3.333246 275.546173,5.090342 283.448059,8.107606 
	C307.294220,17.213009 325.911530,31.927258 335.073700,56.909412 
	C340.681274,72.199409 333.057404,97.705627 313.609924,103.107376 
	C312.316772,103.466553 310.805847,104.535736 310.213928,105.692940 
	C304.742004,116.390778 298.401184,126.802452 294.351562,138.032455 
	C288.270874,154.894867 283.170166,172.188599 278.935852,189.610794 
	C276.230591,200.741714 275.295410,212.333740 276.830444,224.021408 
	C278.120667,233.845154 278.127960,243.830154 279.051453,253.711227 
	C280.079681,264.713379 281.824921,275.654602 282.646576,286.667969 
	C283.264709,294.953156 282.812683,303.312927 283.020630,311.634949 
	C283.612030,335.304199 281.027618,358.736206 273.502502,381.061615 
	C268.916046,394.668823 261.028137,407.194092 254.299896,420.035980 
	C250.704391,426.898560 246.436462,433.409882 242.437668,440.059082 
	C241.819550,441.086914 241.016724,442.003693 239.769653,442.648590 
	C245.059082,424.028351 259.593994,410.129242 265.456268,391.856628 
	C261.839020,396.869141 258.600616,402.222443 254.490646,406.791748 
	C250.878494,410.807526 246.561447,414.346985 242.071152,417.379150 
	C234.905609,422.217834 232.337524,430.098297 228.061249,436.857758 
	C225.743042,440.522095 223.561310,444.272766 221.318024,447.984497 
	C220.759766,447.700714 220.201492,447.416962 219.643234,447.133179 
	C222.684784,440.371857 225.726334,433.610535 229.122742,426.060394 
	C223.574249,427.945740 218.646301,429.620209 213.718353,431.294678 
	C213.458084,430.698700 213.197830,430.102753 212.937561,429.506775 
	C217.457535,427.071289 221.808014,424.212097 226.544357,422.317535 
	C231.447144,420.356415 234.247375,417.078064 235.861084,412.267059 
	C240.854950,397.378693 239.840454,382.043274 239.052887,366.531281 
	C236.144333,371.808411 233.249359,377.093079 230.324234,382.361023 
	C225.351013,391.317505 220.100769,400.134430 215.522964,409.288086 
	C214.042282,412.248840 214.314423,416.083099 213.765305,419.514679 
	C213.596451,420.569885 213.363113,421.614777 212.990524,423.533813 
	C208.376740,418.215546 206.091049,422.328705 203.656586,424.904358 
	C199.497635,429.304504 195.536865,433.891998 192.177979,437.636932 
	C187.639450,439.897919 183.485641,441.581818 179.849060,444.033081 
	C178.863297,444.697571 178.901321,447.840118 179.410599,449.567871 
	C180.543411,453.410858 182.271164,457.078491 183.756424,460.817627 
	C183.166763,461.105194 182.577103,461.392792 181.987442,461.680359 
	C180.141800,458.080963 177.745438,454.647034 176.600693,450.837036 
	C175.381607,446.779694 173.344772,447.145386 170.415878,448.279449 
	C163.543610,450.940369 162.245377,453.296295 165.266556,460.151611 
	C167.106750,464.327148 170.003494,468.038940 172.446533,471.945984 
	C173.721176,473.984467 175.041016,475.994690 176.340454,478.017639 
	C175.892868,478.347321 175.445297,478.676971 174.997711,479.006653 
	C172.941666,477.258545 170.885620,475.510468 167.744080,472.839447 
	C168.756073,478.529175 169.538712,482.929382 170.321335,487.329559 
	C169.724808,487.515320 169.128265,487.701050 168.531738,487.886810 
	C165.185501,476.651581 161.839279,465.416321 158.396667,453.857513 
	C150.297287,456.881897 143.030991,459.595154 135.764694,462.308441 
	C135.523254,461.731445 135.281815,461.154449 135.040375,460.577484 
	C138.937256,458.766846 142.818039,456.920410 146.736084,455.156799 
	C149.881973,453.740753 154.376663,453.231842 155.863419,450.829376 
	C157.244659,448.597412 155.472916,444.388641 155.030304,441.058075 
	C153.010345,425.858307 150.975555,410.660492 148.913864,395.466339 
	C148.832855,394.869232 148.423538,394.316681 147.776642,392.869843 
	C145.124771,395.988159 142.872986,398.636047 140.287643,401.676147 
	C137.661316,397.292267 140.714111,395.135010 142.415253,393.314178 
	C146.093430,389.377167 148.031967,385.226105 145.509811,379.229401 
	C142.713745,385.139374 138.878540,390.806030 137.421021,397.029510 
	C136.031555,402.962402 137.121613,409.475983 137.121613,415.734283 
	C136.654846,415.861023 136.188095,415.987762 135.721329,416.114471 
	C133.362640,412.690369 131.003967,409.266266 128.645279,405.842163 
	C127.896713,406.140961 127.148155,406.439789 126.399597,406.738586 
	C128.660202,415.880524 130.920807,425.022430 133.181396,434.164337 
	C128.124252,429.531281 126.715416,423.292603 125.270493,417.238892 
	C122.519318,405.712494 119.812485,394.144470 117.906456,382.460114 
	C116.910728,376.356110 117.846474,369.958984 117.548843,363.711487 
	C117.343483,359.400726 116.932503,355.010895 115.840851,350.859558 
	C114.974167,347.563721 114.239136,344.712646 117.222221,342.307678 
	C119.687782,340.319946 118.899101,338.261292 117.544899,336.187805 
	C112.693527,328.759766 112.676926,328.765991 120.801140,326.127441 
	C121.384766,325.937866 122.005310,325.862000 122.306129,325.797852 
	C121.028893,323.169952 119.820061,320.682770 118.674110,318.324982 
	C113.137177,325.672211 107.048500,333.436981 101.393684,341.505829 
	C100.181831,343.235046 99.671242,346.347778 100.318741,348.342346 
	C104.339989,360.729736 108.609779,373.044312 113.130753,385.259583 
	C118.773819,400.506592 123.871361,415.772125 123.097870,432.409241 
	C122.830154,438.167603 123.722328,443.974915 123.958504,449.765015 
	C124.020355,451.281403 123.609734,452.817078 123.416092,454.343872 
	C122.861443,454.383911 122.306793,454.423950 121.752136,454.463989 
	C121.170433,450.772339 119.924530,447.046265 120.114014,443.394623 
	C121.417282,418.279755 114.293877,395.085938 104.792358,372.308136 
	C101.660889,364.801086 99.425560,356.920227 96.516022,348.439514 
	C86.510735,364.802765 79.286507,381.356750 76.287453,399.478760 
	C75.859634,402.063904 77.728645,405.632355 79.580048,407.887482 
	C87.763504,417.855377 96.350914,427.490936 104.726593,437.302734 
	C105.690933,438.432373 106.246216,439.911133 106.991127,441.228058 
	C106.458900,441.618713 105.926666,442.009369 105.394432,442.399994 
	C95.582100,431.228119 85.769768,420.056213 75.571373,408.444763 
	C74.978401,410.107941 74.065147,411.438110 74.112320,412.733276 
	C74.467926,422.496887 74.471954,432.318542 75.633904,441.996216 
	C77.103493,454.236206 85.966492,461.979553 94.450706,469.744141 
	C98.957283,473.868439 103.450935,478.006897 107.501366,482.962616 
	C106.696785,482.808899 105.710648,482.902435 105.114624,482.464722 
	C94.744530,474.849335 83.768753,467.720886 77.550880,455.948608 
	C74.744003,450.634308 71.862595,444.792450 71.316208,438.973846 
	C70.301552,428.168579 70.811684,417.201752 71.014793,406.308289 
	C71.117531,400.798553 66.989525,397.840820 64.400314,394.024506 
	C58.823204,385.804169 53.384247,377.651215 50.783829,367.828583 
	C46.744892,352.572205 48.894642,338.125549 55.452942,324.081024 
	C66.573334,300.266785 81.184280,278.691315 97.973061,258.579407 
	C108.464905,246.010849 119.459694,233.863419 130.058502,221.382401 
	C137.969223,212.066818 145.820389,202.682953 153.249268,192.985687 
	C155.779480,189.682892 157.456573,185.482391 158.637802,181.433670 
	C163.159546,165.935181 166.524261,150.052383 171.851517,134.849380 
	C176.725342,120.940346 175.734344,107.581680 172.847214,95.303528 
	C170.733948,110.293068 168.753983,126.653770 166.035904,142.890915 
	C163.820541,156.124893 156.807541,167.327423 148.129272,177.173904 
	C135.188766,191.856400 121.644005,206.011322 108.208130,220.250885 
	C93.363480,235.983459 81.076447,253.592194 70.941429,272.571747 
	C61.377769,290.481293 52.533142,308.801697 44.050907,327.253357 
	C37.194862,342.167480 33.080536,357.996246 32.090591,374.478577 
	C31.904793,377.572113 32.665054,380.711884 32.806137,383.838593 
	C32.940174,386.809113 32.834984,389.790436 32.834984,392.767029 
	C32.084042,392.843872 31.333101,392.920746 30.582161,392.997589 
	C30.055378,390.164703 29.263308,387.352173 29.044138,384.495697 
	C27.414108,363.251038 33.620888,343.649872 41.818600,324.478455 
	C54.264740,295.371582 68.550728,267.228607 86.994453,241.429092 
	C93.218903,232.722198 100.536545,224.748886 107.779778,216.829193 
	C119.210037,204.331421 131.253174,192.390030 142.569427,179.793213 
	C155.342072,165.575211 163.608383,149.133926 165.073410,129.698685 
	C166.290649,113.550323 167.826813,97.424393 168.860626,81.265427 
	C169.033981,78.555786 167.513412,75.676346 166.527298,72.965675 
	C163.776489,65.404289 159.819229,58.095497 158.334213,50.306442 
	C156.419189,40.261982 161.568008,31.544767 167.673721,23.967398 
	C177.907349,11.267170 192.562775,6.025972 207.787292,1.311823 
	C224.687561,1.000000 241.375122,1.000000 258.531342,0.999999 
M222.796753,127.758934 
	C220.840286,128.375534 218.883820,128.992157 217.071777,129.563248 
	C218.150146,133.795853 219.258011,138.144241 219.675461,142.580887 
	C217.109039,148.366653 213.461853,153.924011 212.181625,159.981613 
	C208.540924,177.208282 206.145935,194.678574 200.085754,211.363876 
	C195.082367,225.139557 190.389359,239.039398 186.019409,253.028107 
	C184.261703,258.654694 183.733017,264.665253 182.596207,270.762604 
	C190.815628,270.289429 195.653351,263.396820 193.172562,256.601685 
	C191.298599,251.468781 191.827606,247.123596 196.323898,244.359772 
	C202.857468,240.343704 203.772598,233.754379 204.903580,227.420593 
	C207.334671,213.805649 208.943024,200.043228 211.401871,186.433975 
	C214.063446,171.702713 217.309708,157.077087 220.681671,141.692871 
	C221.816864,137.151382 222.952042,132.609909 224.527939,127.819008 
	C224.538361,127.370796 224.548798,126.922577 224.559219,126.474373 
	C224.156540,126.744095 223.753845,127.013817 222.796753,127.758934 
M231.174942,184.250305 
	C233.148834,181.414139 234.747650,178.194580 237.174026,175.820969 
	C242.359039,170.748703 240.917007,164.722122 240.776154,158.807526 
	C240.354553,158.659409 239.932968,158.511276 239.511368,158.363144 
	C236.311783,166.886124 233.112198,175.409119 229.451874,184.202667 
	C229.325256,184.793869 229.198639,185.385071 228.848190,187.021347 
	C229.899658,185.679398 230.283737,185.189224 231.174942,184.250305 
M220.839767,298.731171 
	C218.101044,300.530609 215.476776,302.543182 212.601013,304.087402 
	C205.457703,307.923279 201.062759,315.541046 202.136581,323.642853 
	C202.438995,325.924377 204.131744,328.021606 205.186783,330.203369 
	C205.885345,330.197083 206.583908,330.190796 207.282455,330.184509 
	C212.217346,319.812439 217.152237,309.440369 222.527908,298.818848 
	C222.538269,298.370575 222.548630,297.922302 222.559006,297.474030 
	C222.156281,297.743835 221.753555,298.013611 220.839767,298.731171 
M154.152786,219.278656 
	C157.224686,216.230804 160.244675,213.128387 163.378983,210.146133 
	C170.582886,203.291656 175.719894,195.140289 179.142914,185.824310 
	C185.465469,168.616943 183.141830,151.228745 180.453140,133.779007 
	C178.572128,149.526993 174.142700,164.380493 166.437561,178.289261 
	C163.818192,183.017563 161.805786,188.167618 160.159653,193.330154 
	C157.466736,201.775528 155.300873,210.388947 152.471924,219.181061 
	C152.461594,219.629410 152.451263,220.077759 152.440918,220.526093 
	C152.843765,220.256561 153.246597,219.987045 154.152786,219.278656 
M200.860794,353.688141 
	C200.100586,354.028748 199.340393,354.369354 198.580185,354.709961 
	C198.413879,354.484924 198.247574,354.259857 198.081268,354.034790 
	C202.647461,348.908905 207.213654,343.783020 211.779846,338.657135 
	C211.183945,337.971222 210.588043,337.285278 209.992126,336.599365 
	C208.178146,337.688416 205.814575,338.364716 204.637451,339.932068 
	C195.537201,352.049286 186.534088,364.245026 177.768448,376.606171 
	C171.327835,385.688599 165.986923,395.558838 164.248444,406.600128 
	C162.686996,416.517151 162.536240,426.673340 162.078217,436.738342 
	C161.905258,440.539032 162.615616,444.379852 162.977676,448.877655 
	C165.989716,447.421356 168.043610,446.398773 170.122696,445.430267 
	C172.988327,444.095337 174.810043,442.426514 173.190186,438.868317 
	C172.682114,437.752258 172.951096,436.237854 173.014938,434.913025 
	C173.668091,421.360443 173.910599,407.767426 175.191345,394.273407 
	C175.975189,386.014618 179.025925,378.174988 184.314941,371.411469 
	C181.959427,381.371368 176.849121,390.689697 177.121674,401.977112 
	C178.124130,401.057312 178.614151,400.800934 178.808929,400.400818 
	C183.857834,390.029022 188.804184,379.606628 193.929962,369.273193 
	C196.484512,364.123291 199.357864,359.131531 202.528046,353.818390 
	C202.575211,353.430786 202.622391,353.043213 202.669540,352.655579 
	C202.229324,352.863770 201.789108,353.071930 200.860794,353.688141 
M174.854965,200.748947 
	C171.923355,204.311615 169.165161,208.035721 166.027481,211.406586 
	C156.758911,221.363968 146.297104,230.406769 138.243088,241.249176 
	C128.058426,254.959839 119.943665,270.192841 110.646233,284.581970 
	C100.860573,299.726654 96.592751,316.155762 98.036438,334.089996 
	C98.126740,335.211700 98.605904,336.302124 99.217392,338.567688 
	C104.305626,331.533142 108.406319,325.391602 112.980057,319.625336 
	C129.552643,298.731598 143.269714,275.925751 155.443390,252.388992 
	C163.876328,236.084656 169.312088,218.230118 176.527802,200.818863 
	C176.538223,200.370621 176.548660,199.922379 176.559067,199.474121 
	C176.156357,199.743805 175.753647,200.013504 174.854965,200.748947 
M274.994568,247.638550 
	C273.100708,227.665161 271.535614,207.397629 275.469757,187.807709 
	C279.356110,168.455505 286.642487,149.786102 292.589050,130.320602 
	C291.859955,131.100052 291.302704,131.481857 291.037964,132.010239 
	C284.965942,144.128876 278.353424,156.019516 273.047546,168.466675 
	C268.156586,179.940445 264.541046,191.970932 260.633606,203.845016 
	C258.858826,209.238297 259.808258,214.870804 256.668854,220.606979 
	C253.689056,226.051483 255.367554,234.045471 254.921021,242.342560 
	C256.048553,238.940659 256.677795,237.042145 257.307037,235.143646 
	C257.832397,235.269897 258.357727,235.396164 258.883087,235.522415 
	C258.883087,237.944504 258.952118,240.368912 258.870087,242.788223 
	C258.628723,249.908020 258.140381,257.024384 258.087433,264.144623 
	C257.966736,280.377319 258.008759,296.611755 258.105255,312.844757 
	C258.115356,314.548035 258.568024,316.462219 259.430267,317.913116 
	C266.291718,329.459015 273.485199,340.834229 275.855652,354.557037 
	C276.541626,353.320160 276.882660,352.118561 276.980713,350.897430 
	C277.721771,341.668182 278.852417,332.443115 279.021088,323.201416 
	C279.274506,309.313446 279.271973,295.391235 278.567474,281.524780 
	C278.007721,270.507477 276.233459,259.551910 274.994568,247.638550 
M92.996208,281.533142 
	C93.549683,280.912872 94.185905,280.348114 94.644485,279.664246 
	C105.799011,263.029205 119.462517,248.540726 134.879471,236.002350 
	C147.762726,225.524597 152.849747,211.807617 156.145447,195.626678 
	C154.517868,197.158615 153.500000,197.972717 152.652130,198.936401 
	C140.859619,212.339615 129.030930,225.711807 117.339424,239.202789 
	C111.071846,246.434998 104.498894,253.494415 99.029762,261.307983 
	C86.932945,278.590363 74.682266,295.845978 63.920662,313.959900 
	C52.498043,333.186462 47.242146,353.890137 57.074398,375.829437 
	C60.690815,383.898956 65.229958,391.374390 71.519554,398.029694 
	C71.875549,397.198517 72.032104,396.903625 72.131500,396.590607 
	C74.758110,388.317841 77.416878,380.598541 72.681290,371.533020 
	C68.610291,363.739777 68.100433,354.611298 69.808655,345.415161 
	C73.967155,323.028168 80.296425,301.523895 92.996208,281.533142 
M94.136078,318.998138 
	C99.247986,290.233276 117.289093,267.867279 131.238297,243.284149 
	C129.816177,243.937164 128.616592,244.846451 127.599533,245.927444 
	C123.399231,250.391830 119.376213,255.029053 115.065475,259.382355 
	C103.239326,271.325317 92.836464,284.267883 86.512024,300.028992 
	C78.991508,318.770874 72.201569,337.717957 73.011322,358.395233 
	C73.245506,364.375305 74.557114,370.056519 77.446312,375.344452 
	C82.356522,366.467346 87.143623,358.210754 91.500694,349.733154 
	C93.163971,346.496918 94.629921,342.791260 94.796738,339.234375 
	C95.097572,332.820099 94.352287,326.356750 94.136078,318.998138 
M264.126617,384.602692 
	C277.417816,361.803253 270.645538,341.370209 256.181732,320.886993 
	C252.274170,333.995941 245.683777,345.543579 245.010666,358.934479 
	C244.296570,373.140686 243.835434,387.362457 242.882812,401.551880 
	C242.626465,405.370270 240.984802,409.095642 239.681610,413.978119 
	C251.272278,406.130981 258.892792,396.819153 264.126617,384.602692 
M184.516800,227.063309 
	C191.040771,217.779724 191.501785,216.763611 185.764893,209.892059 
	C182.253571,205.686249 183.756851,202.849472 185.502167,198.824936 
	C187.524200,194.162292 188.307999,188.962692 189.629318,183.996185 
	C189.135025,183.843430 188.640717,183.690674 188.146423,183.537918 
	C186.102722,188.165619 184.078613,192.802109 182.011917,197.419525 
	C173.059082,217.422012 168.714386,239.316437 156.960541,258.175140 
	C148.064194,272.449066 139.342987,286.832092 130.453186,301.110138 
	C127.561653,305.754272 124.383766,310.220123 121.336853,314.767517 
	C121.633202,315.168640 121.929550,315.569794 122.225891,315.970917 
	C129.582703,307.960510 142.660645,310.389343 149.453476,300.556458 
	C141.993118,295.862854 140.864563,291.192413 145.468887,285.257843 
	C146.749146,283.607666 148.563309,282.222107 150.400436,281.193787 
	C152.424179,280.061035 154.756439,279.479431 156.954285,278.657745 
	C156.785446,280.938660 156.602661,283.218811 156.475479,285.502045 
	C156.465790,285.675812 156.850128,285.871521 157.596802,286.560028 
	C158.711365,285.018585 160.188828,283.647430 160.847244,281.957245 
	C165.623093,269.697083 169.992050,257.273132 174.999039,245.110657 
	C177.484512,239.073212 181.046036,233.478760 184.516800,227.063309 
M234.884323,358.305908 
	C240.472473,351.889343 240.268112,344.180847 240.058350,336.341187 
	C239.812149,327.140869 240.000702,317.928894 240.000702,307.858032 
	C234.908157,315.582611 230.816559,322.710480 225.792130,329.105377 
	C222.076187,333.834869 219.778809,337.980438 223.654556,343.545349 
	C224.148438,344.254517 224.126587,345.524994 223.955017,346.464478 
	C222.038391,356.959412 220.146072,367.447510 208.554199,372.256592 
	C206.863998,372.957794 204.508591,374.589600 204.346115,376.006927 
	C203.584427,382.651093 205.148163,389.039368 207.696518,396.582642 
	C217.152344,383.295319 225.823105,371.111176 234.884323,358.305908 
M206.865768,410.746155 
	C206.355026,409.267548 205.844284,407.788910 205.288788,406.180695 
	C203.192612,408.159729 201.322174,409.925629 199.451752,411.691498 
	C199.139999,411.412079 198.828262,411.132660 198.516525,410.853241 
	C199.167404,409.609772 199.558823,408.099396 200.514923,407.169952 
	C204.260117,403.529297 203.778641,399.410675 202.536011,394.949463 
	C201.745560,392.111603 201.307251,389.142395 201.028870,386.201965 
	C200.414612,379.713654 200.001373,373.206329 199.427338,365.672760 
	C190.017532,380.984344 182.972580,396.296478 178.148254,412.606445 
	C177.730713,414.018036 178.146881,416.013306 178.869705,417.366852 
	C182.035172,423.294189 185.456329,429.084961 189.216202,435.682373 
	C194.333557,430.783142 198.986923,426.764893 203.087280,422.244934 
	C205.704391,419.360016 209.338074,416.381287 206.865768,410.746155 
M202.453110,249.144043 
	C199.611801,253.451828 200.373718,257.246674 203.489075,261.237183 
	C206.888046,265.591034 209.174911,270.518280 207.332504,277.002228 
	C202.951782,277.002228 198.504333,276.933868 194.061157,277.041840 
	C192.635651,277.076447 190.455933,277.100250 189.930237,277.944275 
	C187.161392,282.389587 184.058792,286.861938 185.334503,292.626068 
	C186.663223,298.629547 184.816528,302.109741 179.475830,305.304108 
	C177.626862,306.409973 176.336334,308.588867 175.056168,310.459290 
	C174.140961,311.796509 174.031158,313.807281 172.936661,314.878723 
	C167.521881,320.179382 169.150238,326.726288 169.119537,333.218872 
	C169.599213,332.875671 169.896027,332.744781 170.071823,332.519440 
	C170.373520,332.132751 170.691544,331.717834 170.844101,331.261749 
	C175.015915,318.789917 182.869461,309.883209 195.363037,305.111633 
	C197.562103,304.271759 200.080750,302.229095 200.893875,300.136505 
	C205.573242,288.094147 209.368317,275.698303 214.289032,263.762787 
	C218.001617,254.757584 213.417618,247.400085 211.867981,239.170532 
	C208.603943,242.620667 205.774414,245.611526 202.453110,249.144043 
M189.498444,330.002716 
	C192.643677,323.360138 195.788910,316.717560 199.441498,309.003479 
	C189.260056,312.321869 182.102570,316.819794 178.685150,325.722412 
	C177.034988,330.021179 175.499237,334.364075 173.928925,338.693237 
	C172.917389,341.481873 172.217545,344.437073 170.800278,346.997864 
	C170.258682,347.976440 168.106995,348.063904 166.087982,348.766693 
	C162.628845,354.530029 158.900879,361.559204 154.373642,368.029053 
	C150.656296,373.341492 151.061630,378.464844 152.763535,384.445648 
	C158.391739,378.410461 164.655273,373.352631 168.769608,366.920135 
	C176.226730,355.261383 182.403305,342.783569 189.498444,330.002716 
M170.874985,382.331055 
	C181.477097,366.458130 192.079193,350.585205 202.680222,334.713898 
	C200.723236,332.049347 198.721542,329.323914 196.340530,326.082001 
	C191.376953,335.425690 186.768417,344.373932 181.907959,353.183228 
	C175.481735,364.830261 168.065292,375.864899 157.785492,384.427032 
	C154.153732,387.451904 152.368347,390.243530 152.990631,394.801788 
	C154.459641,405.562408 155.831161,416.336273 157.242096,427.104797 
	C158.426300,424.683472 158.870789,422.275360 158.973068,419.852783 
	C159.535828,406.523529 163.774414,394.359344 170.874985,382.331055 
M193.947159,162.237167 
	C193.553986,167.688583 193.160828,173.139999 192.700241,179.526535 
	C200.687180,174.126755 201.690872,171.673416 199.916321,164.236679 
	C197.805206,155.389587 198.878769,152.792282 206.572067,147.761703 
	C207.466843,147.176620 208.839783,146.194580 208.792297,145.475754 
	C208.422455,139.876633 208.089722,134.237488 207.100006,128.726639 
	C205.930298,122.213654 201.376465,116.228409 203.485580,109.247032 
	C204.463028,106.011536 203.181961,104.536751 200.652664,104.591255 
	C199.417313,104.617882 197.270325,106.950462 197.171906,108.354004 
	C195.934860,125.994606 194.997208,143.656189 193.947159,162.237167 
M132.626709,360.037964 
	C136.463455,361.542999 135.012253,358.202545 134.901215,357.132721 
	C134.072144,349.144073 138.263107,344.064148 144.294235,339.846161 
	C145.614365,338.922882 147.342133,337.687073 147.630295,336.329468 
	C149.451233,327.750549 150.919678,319.096863 152.504486,310.467834 
	C151.940186,310.090851 151.375900,309.713867 150.811600,309.336884 
	C147.856903,311.941223 144.161636,314.064789 142.096283,317.246429 
	C137.281219,324.663879 133.035034,332.478607 128.954224,340.337891 
	C123.401939,351.031036 123.560150,351.113190 132.626709,360.037964 
M282.499115,135.919495 
	C291.349609,124.342407 294.532745,110.468750 298.626892,96.944839 
	C293.704742,102.144310 289.618195,108.006386 284.520050,112.790405 
	C272.082275,124.461716 267.669647,139.244980 266.497650,154.980698 
	C271.492218,149.017090 276.754242,142.734161 282.499115,135.919495 
M237.541992,88.925644 
	C237.634430,85.799477 238.632034,80.353813 237.653503,79.971947 
	C234.417603,78.709145 230.424072,78.861252 226.805176,79.250343 
	C222.983902,79.661186 222.071487,82.211037 223.795319,85.683548 
	C225.579468,89.277603 227.323914,92.893700 228.976517,96.549522 
	C229.604584,97.938866 230.672501,99.818611 230.190475,100.834595 
	C229.665741,101.940666 227.638306,102.623070 226.151474,102.923775 
	C222.965698,103.568069 219.706192,103.847725 215.235611,104.441582 
	C216.240067,107.790016 216.462341,111.029877 218.069641,113.280731 
	C220.268387,116.359856 223.520004,118.687134 226.543915,121.548218 
	C228.308136,116.527824 230.204300,111.350403 231.944092,106.120964 
	C233.761581,100.657974 235.428543,95.144897 237.541992,88.925644 
M249.072510,279.082458 
	C252.653427,264.750549 253.145233,249.645569 250.318405,242.088425 
	C249.553619,247.533615 248.730499,253.067322 248.007355,258.614075 
	C246.687149,268.740692 245.534836,278.890442 244.098389,289.000122 
	C243.277283,294.779114 247.411667,303.772583 252.630875,306.553833 
	C255.254211,295.601868 256.470306,284.657867 253.703232,272.803711 
	C252.771439,275.362732 252.230026,277.257477 251.360901,278.987579 
	C251.100555,279.505859 249.925339,279.564575 249.072510,279.082458 
M127.629845,395.783722 
	C128.113739,398.380707 128.597626,400.977692 129.081528,403.574677 
	C129.658279,403.509338 130.235031,403.444031 130.811768,403.378693 
	C131.214996,402.165619 131.685532,400.970245 132.010635,399.736603 
	C134.304916,391.030121 137.869064,382.973511 143.533417,375.863159 
	C145.030899,373.983398 146.634842,371.595398 146.784561,369.347198 
	C147.218475,362.830902 146.938187,356.267029 146.938187,349.721832 
	C146.533859,349.620300 146.129532,349.518768 145.725204,349.417267 
	C141.484451,358.107941 136.793900,366.615631 133.157715,375.552338 
	C130.644867,381.728241 129.588455,388.496704 127.629845,395.783722 
M184.952789,135.810211 
	C185.456680,148.210510 185.960571,160.610825 186.470779,173.166367 
	C186.903091,172.283920 187.539352,171.491241 187.682312,170.617828 
	C190.040085,156.212250 190.432236,141.829483 188.785477,127.238945 
	C187.610580,116.829285 187.874176,106.225410 187.999268,95.714195 
	C188.062668,90.387840 189.240402,85.074760 189.914337,79.755676 
	C188.211258,83.216103 187.271317,86.827843 186.302444,90.431816 
	C182.346344,105.147446 180.035233,119.914680 184.952789,135.810211 
M239.126572,99.827896 
	C235.379166,111.119438 236.989746,122.198906 241.064560,134.139282 
	C244.988983,118.284096 249.597733,103.369484 248.854355,87.490822 
	C248.814499,86.639931 247.744736,85.837250 246.212204,83.695152 
	C243.611679,89.610619 241.530411,94.344917 239.126572,99.827896 
M212.047546,332.469299 
	C215.269073,330.838318 219.611404,330.027618 221.512329,327.430176 
	C228.611725,317.729401 228.472763,306.151001 228.653763,294.793640 
	C222.413925,306.412292 216.519913,318.097382 210.729858,329.833740 
	C210.479416,330.341370 211.185532,331.320923 212.047546,332.469299 
M232.460083,366.960754 
	C225.340698,376.878204 218.538544,387.046906 210.968124,396.607208 
	C207.180725,401.390106 209.337875,404.881500 211.967316,410.529541 
	C220.886917,393.810516 229.251465,378.131897 237.616013,362.453278 
	C237.102127,362.159210 236.588242,361.865143 236.074356,361.571075 
	C235.005219,363.172607 233.936066,364.774170 232.460083,366.960754 
M235.839478,189.481003 
	C234.362701,191.661270 232.712097,193.747528 231.465439,196.052277 
	C230.509903,197.818756 229.034943,200.215912 229.555008,201.724426 
	C233.646698,213.592896 233.048523,225.818268 233.061279,238.032578 
	C233.063370,240.035278 233.855087,242.037155 234.281845,244.039413 
	C234.618500,243.946564 234.955154,243.853729 235.291809,243.760895 
	C236.342010,224.857910 237.392227,205.954926 238.442444,187.051941 
	C238.131561,186.807739 237.820679,186.563538 237.509796,186.319336 
	C237.027817,187.156631 236.545837,187.993927 235.839478,189.481003 
M159.535156,333.873138 
	C149.399796,343.470490 150.356934,350.890900 151.873856,364.792786 
	C160.723007,352.689636 165.246552,339.749512 163.749283,324.534576 
	C162.352417,327.698242 161.131470,330.463470 159.535156,333.873138 
M127.519928,363.015137 
	C126.107719,361.673004 124.695511,360.330872 123.229599,358.937714 
	C118.527298,365.939087 119.259758,384.521210 124.179855,391.782745 
	C126.129250,385.608337 127.571617,379.125000 130.247681,373.198761 
	C132.217377,368.836853 131.592133,366.103210 127.519928,363.015137 
M176.625656,276.975037 
	C173.556549,280.591034 171.034225,284.975708 167.288330,287.640289 
	C161.863708,291.498993 160.345490,296.716675 159.160614,301.828033 
	C162.931824,300.870178 166.666214,300.013550 170.337021,298.939606 
	C171.626389,298.562347 173.656067,297.823456 173.822021,296.957336 
	C175.114120,290.214264 176.033707,283.399841 176.625656,276.975037 
M267.152466,106.647575 
	C265.862457,108.223389 264.797485,110.081528 263.240540,111.322418 
	C258.450714,115.139954 257.252228,118.094574 259.130493,123.371162 
	C259.821259,122.513527 260.440338,121.829620 260.965210,121.079773 
	C265.107269,115.162331 269.142822,109.166641 273.443695,103.367523 
	C274.205017,102.340973 276.049225,102.117523 277.393341,101.523209 
	C277.708679,101.974335 278.023987,102.425453 278.339325,102.876572 
	C280.227600,99.525940 282.115875,96.175308 284.004150,92.824669 
	C283.723846,92.266624 283.443542,91.708572 283.163269,91.150520 
	C280.484467,91.902481 276.867188,91.827141 275.322723,93.579094 
	C272.134705,97.195427 270.051849,101.786018 267.152466,106.647575 
M245.000748,209.521423 
	C245.000748,210.340912 245.000748,211.160400 245.000748,213.427628 
	C246.090714,211.243088 246.770615,210.360809 246.982620,209.377625 
	C248.368210,202.951630 249.331146,196.415802 251.063690,190.088776 
	C252.674927,184.204803 249.692123,180.171814 246.377151,175.872925 
	C244.044113,186.772873 245.460526,197.803925 245.000748,209.521423 
M273.878815,159.380905 
	C276.311005,153.939331 278.743164,148.497742 281.175354,143.056168 
	C280.770325,142.884857 280.365295,142.713547 279.960266,142.542252 
	C269.768555,154.234955 263.918915,167.848648 261.908264,183.160767 
	C262.301849,183.341873 262.695435,183.522980 263.089050,183.704086 
	C266.553101,175.812561 270.017181,167.921021 273.878815,159.380905 
M215.668106,357.702393 
	C215.550369,353.445831 215.432617,349.189240 215.314865,344.932678 
	C214.700668,344.872711 214.086472,344.812744 213.472275,344.752747 
	C209.038773,351.739197 204.424301,358.651794 204.064240,368.155396 
	C209.493454,365.894104 214.404587,364.458557 215.668106,357.702393 
M223.365555,149.240143 
	C223.650589,153.720490 223.935623,158.200851 224.220657,162.681198 
	C224.754532,162.801056 225.288406,162.920898 225.822266,163.040756 
	C229.617676,155.970062 233.413086,148.899384 237.208481,141.828690 
	C236.839096,141.493393 236.469711,141.158081 236.100327,140.822784 
	C231.815552,143.072159 225.545486,141.803253 223.365555,149.240143 
M229.000504,223.558548 
	C228.437622,218.636246 227.874725,213.713928 227.311844,208.791626 
	C227.000656,217.829926 227.507217,226.750366 226.857040,235.585678 
	C226.217010,244.282852 224.404175,252.893692 223.105942,261.542419 
	C223.577423,261.649017 224.048904,261.755585 224.520401,261.862183 
	C228.086777,257.853851 232.568665,253.452545 230.705673,247.820877 
	C228.116928,239.995331 228.352798,232.357620 229.000504,223.558548 
M273.486115,113.020844 
	C274.604523,110.181053 275.722931,107.341255 276.841339,104.501465 
	C276.218353,104.190887 275.595337,103.880310 274.972321,103.569733 
	C270.821564,110.367378 266.684540,117.173462 262.514862,123.959480 
	C260.022583,128.015640 261.712952,131.184998 264.720062,134.970734 
	C267.691467,127.432297 270.398834,120.563721 273.486115,113.020844 
M217.995041,245.957260 
	C218.388199,246.965530 218.781357,247.973816 219.633240,250.158524 
	C223.377289,238.553482 222.067123,228.126038 220.586945,216.694382 
	C213.597260,226.318314 215.931427,235.771225 217.995041,245.957260 
M244.659882,310.287659 
	C244.659882,319.527069 244.659882,328.766510 244.659882,338.005920 
	C252.718063,319.777527 253.532806,311.568634 244.233307,305.069183 
	C244.233307,306.636780 244.233307,308.103058 244.659882,310.287659 
M227.966324,129.405319 
	C226.956940,132.727249 225.947571,136.049179 224.489716,140.847031 
	C228.446381,139.236603 231.145477,138.516281 233.394470,137.087448 
	C234.852554,136.161087 236.793381,133.972992 236.548233,132.742722 
	C235.568390,127.825409 233.817657,123.061699 231.942368,116.893158 
	C230.302353,121.803711 229.167007,125.203178 227.966324,129.405319 
M186.753571,434.649017 
	C183.648331,430.187073 180.543076,425.725159 176.901031,420.491882 
	C176.901031,427.920776 176.901031,434.294098 176.901031,440.667450 
	C177.447952,440.987488 177.994873,441.307495 178.541809,441.627502 
	C181.278122,439.538452 184.014435,437.449371 186.753571,434.649017 
M278.148590,114.312256 
	C284.173279,108.268456 290.841217,102.669121 292.414581,93.141968 
	C289.769287,93.537712 286.960175,94.201187 285.858429,95.943993 
	C282.357391,101.482239 279.473236,107.412666 276.452698,113.244377 
	C276.331726,113.477936 277.249054,114.249283 278.148590,114.312256 
M173.041458,153.510666 
	C174.228256,147.718384 175.415039,141.926117 176.601837,136.133835 
	C175.983093,135.993362 175.364349,135.852905 174.745605,135.712433 
	C171.049362,148.231339 167.353119,160.750244 163.656876,173.269150 
	C164.267075,173.480347 164.877274,173.691559 165.487473,173.902756 
	C167.982697,167.378357 170.477905,160.853973 173.041458,153.510666 
M191.007217,108.457275 
	C191.476379,113.331161 191.945557,118.205055 192.414719,123.078941 
	C192.575668,123.093918 192.736618,123.108902 192.897568,123.123878 
	C194.090958,108.120705 195.284348,93.117531 196.477737,78.114357 
	C191.222015,87.321205 192.753983,97.724525 191.007217,108.457275 
M198.673737,92.787010 
	C199.811890,95.474327 201.817947,95.769615 207.101273,93.808922 
	C204.217422,89.186996 208.589981,82.299423 201.553329,77.619743 
	C200.538666,83.103340 199.717194,87.542915 198.673737,92.787010 
M217.001175,186.510025 
	C220.156845,177.856842 224.387161,169.349838 219.774597,158.250381 
	C217.660660,170.733658 215.769775,181.899811 213.878891,193.065979 
	C214.224167,193.138733 214.569443,193.211487 214.914703,193.284241 
	C215.563049,191.282059 216.211411,189.279877 217.001175,186.510025 
M232.325027,312.215057 
	C238.923218,305.953278 239.908585,295.696991 233.850754,291.394287 
	C233.248688,298.333466 232.670303,304.999725 232.325027,312.215057 
M128.648224,322.140808 
	C129.668488,323.989380 130.688751,325.837952 131.827179,327.900604 
	C134.429718,323.441803 136.920151,319.175049 139.410583,314.908295 
	C139.177490,314.656555 138.944397,314.404785 138.711304,314.153046 
	C134.636169,315.814270 130.561020,317.475494 126.141602,319.277069 
	C127.109940,320.431061 127.630447,321.051361 128.648224,322.140808 
M183.037399,88.562248 
	C184.026810,84.629524 185.016220,80.696800 186.005646,76.764076 
	C185.628906,76.376923 185.252182,75.989769 184.875443,75.602608 
	C183.602112,76.474518 181.347290,77.220093 181.216141,78.239006 
	C180.417938,84.440567 180.102982,90.704323 179.626740,96.947327 
	C179.994812,97.012878 180.362869,97.078430 180.730942,97.143982 
	C181.477127,94.556129 182.223312,91.968285 183.037399,88.562248 
M220.636719,275.845795 
	C221.172836,274.455750 221.708954,273.065704 222.546417,270.894287 
	C217.357773,273.985962 215.862076,282.039703 217.418198,294.048340 
	C217.840271,294.092682 218.262360,294.137024 218.684433,294.181366 
	C219.193527,288.293274 219.702637,282.405151 220.636719,275.845795 
M207.147217,293.699829 
	C206.683731,295.934448 206.220245,298.169067 205.527008,301.511322 
	C211.872498,296.454712 214.379745,291.444641 211.283707,284.073700 
	C209.887970,287.362244 208.687790,290.190063 207.147217,293.699829 
M200.875473,196.109879 
	C201.556259,192.940872 202.237030,189.771866 203.158234,185.483749 
	C194.796768,196.049988 194.605026,196.938278 199.425156,201.069168 
	C199.834351,199.592850 200.216324,198.214691 200.875473,196.109879 
M238.000153,279.494080 
	C237.639465,276.555817 237.278778,273.617554 236.807632,269.779480 
	C233.382523,277.095428 234.573822,285.579620 238.946609,288.220886 
	C238.622604,285.531067 238.311966,282.952057 238.000153,279.494080 
M213.005447,93.025490 
	C217.111664,93.089142 217.541306,91.145851 215.504379,88.164940 
	C213.966675,85.914642 212.173752,83.838760 210.494431,81.685242 
	C210.145462,81.796684 209.796509,81.908134 209.447556,82.019585 
	C210.392807,85.708565 211.338074,89.397545 213.005447,93.025490 
M296.565735,114.869545 
	C296.033447,116.531990 295.501160,118.194435 294.968872,119.856880 
	C295.561981,120.030487 296.155060,120.204086 296.748169,120.377693 
	C299.095459,112.716896 301.442749,105.056091 303.790039,97.395294 
	C303.359467,97.257217 302.928925,97.119148 302.498383,96.981071 
	C300.623962,102.709946 298.749573,108.438812 296.565735,114.869545 
M219.024170,203.315994 
	C220.085358,198.965256 221.146545,194.614517 222.207748,190.263779 
	C221.486298,190.115189 220.764847,189.966583 220.043411,189.817993 
	C218.687195,195.954697 217.330963,202.091400 215.974747,208.228088 
	C216.217453,208.298569 216.460159,208.369049 216.702881,208.439514 
	C217.436874,206.979172 218.170868,205.518814 219.024170,203.315994 
M227.867935,286.214539 
	C229.352722,280.969025 229.155197,280.353821 225.345276,278.617584 
	C224.941055,283.226074 224.541504,287.781158 224.141968,292.336243 
	C224.417145,292.396271 224.692307,292.456268 224.967484,292.516266 
	C225.828751,290.642853 226.690018,288.769440 227.867935,286.214539 
M227.268051,268.135498 
	C232.330734,266.040894 232.526779,261.234009 233.938385,257.104584 
	C233.479446,256.843719 233.020508,256.582825 232.561554,256.321960 
	C230.580612,260.296204 228.599655,264.270477 227.268051,268.135498 
M260.621552,168.787064 
	C261.393890,163.786453 262.166229,158.785828 262.938568,153.785217 
	C262.458344,153.714554 261.978119,153.643890 261.497894,153.573227 
	C260.468506,160.045273 259.439117,166.517319 258.409729,172.989365 
	C258.838318,173.056839 259.266907,173.124313 259.695496,173.191788 
	C259.868530,171.946259 260.041565,170.700714 260.621552,168.787064 
M241.007675,266.262665 
	C241.208115,267.534180 241.408554,268.805725 241.608978,270.077240 
	C241.965424,270.042511 242.321884,270.007812 242.678329,269.973083 
	C243.401398,265.170258 244.124466,260.367432 244.847534,255.564590 
	C244.428528,255.471786 244.009521,255.378983 243.590530,255.286179 
	C242.732391,258.678680 241.874268,262.071167 241.007675,266.262665 
M194.881775,267.465912 
	C195.013763,270.405670 195.586716,270.577484 200.963928,269.075470 
	C199.778946,267.327179 198.665222,265.683990 197.176788,263.487976 
	C196.243073,264.955811 195.667252,265.861023 194.881775,267.465912 
M128.477341,330.233795 
	C126.638138,331.143372 124.798927,332.052917 121.910378,333.481415 
	C123.945076,334.740601 125.165115,335.495636 126.385147,336.250671 
	C127.316727,334.223022 128.248306,332.195374 128.477341,330.233795 
M265.977600,94.528847 
	C265.295959,95.766045 264.614349,97.003250 263.932709,98.240456 
	C264.414673,98.570992 264.896637,98.901520 265.378601,99.232048 
	C267.419556,96.766830 269.460480,94.301605 271.501404,91.836380 
	C271.103577,91.450348 270.705750,91.064316 270.307892,90.678284 
	C269.028503,91.794029 267.749146,92.909775 265.977600,94.528847 
M218.338806,97.849472 
	C217.155670,98.306374 215.972534,98.763275 214.789398,99.220177 
	C214.900116,99.593796 215.010849,99.967407 215.121567,100.341019 
	C218.137726,99.874535 221.153870,99.408051 224.170013,98.941566 
	C224.078201,98.236076 223.986404,97.530579 223.894592,96.825089 
	C222.245361,97.057129 220.596130,97.289169 218.338806,97.849472 
M238.683731,139.423004 
	C238.574615,139.159607 238.465515,138.896225 238.356400,138.632828 
	C238.231186,138.733917 237.991440,138.849777 238.002213,138.933365 
	C238.034622,139.184952 238.164581,139.423981 238.683731,139.423004 
z"/>
<path fill="#47704C" opacity="1.000000" stroke="none" 
	d="
M274.996490,248.103745 
	C276.233459,259.551910 278.007721,270.507477 278.567474,281.524780 
	C279.271973,295.391235 279.274506,309.313446 279.021088,323.201416 
	C278.852417,332.443115 277.721771,341.668182 276.980713,350.897430 
	C276.882660,352.118561 276.541626,353.320160 275.855652,354.557037 
	C273.485199,340.834229 266.291718,329.459015 259.430267,317.913116 
	C258.568024,316.462219 258.115356,314.548035 258.105255,312.844757 
	C258.008759,296.611755 257.966736,280.377319 258.087433,264.144623 
	C258.140381,257.024384 258.628723,249.908020 258.870087,242.788223 
	C258.952118,240.368912 258.883087,237.944504 258.883087,235.522415 
	C258.357727,235.396164 257.832397,235.269897 257.307037,235.143646 
	C256.677795,237.042145 256.048553,238.940659 254.921021,242.342560 
	C255.367554,234.045471 253.689056,226.051483 256.668854,220.606979 
	C259.808258,214.870804 258.858826,209.238297 260.633606,203.845016 
	C264.541046,191.970932 268.156586,179.940445 273.047546,168.466675 
	C278.353424,156.019516 284.965942,144.128876 291.037964,132.010239 
	C291.302704,131.481857 291.859955,131.100052 292.589050,130.320602 
	C286.642487,149.786102 279.356110,168.455505 275.469757,187.807709 
	C271.535614,207.397629 273.100708,227.665161 274.996490,248.103745 
z"/>
<path fill="#47704C" opacity="1.000000" stroke="none" 
	d="
M176.087051,201.068253 
	C169.312088,218.230118 163.876328,236.084656 155.443390,252.388992 
	C143.269714,275.925751 129.552643,298.731598 112.980057,319.625336 
	C108.406319,325.391602 104.305626,331.533142 99.217392,338.567688 
	C98.605904,336.302124 98.126740,335.211700 98.036438,334.089996 
	C96.592751,316.155762 100.860573,299.726654 110.646233,284.581970 
	C119.943665,270.192841 128.058426,254.959839 138.243088,241.249176 
	C146.297104,230.406769 156.758911,221.363968 166.027481,211.406586 
	C169.165161,208.035721 171.923355,204.311615 175.286865,200.712433 
	C175.841522,200.806702 175.964294,200.937469 176.087051,201.068253 
z"/>
<path fill="#47704C" opacity="1.000000" stroke="none" 
	d="
M92.753876,281.803009 
	C80.296425,301.523895 73.967155,323.028168 69.808655,345.415161 
	C68.100433,354.611298 68.610291,363.739777 72.681290,371.533020 
	C77.416878,380.598541 74.758110,388.317841 72.131500,396.590607 
	C72.032104,396.903625 71.875549,397.198517 71.519554,398.029694 
	C65.229958,391.374390 60.690815,383.898956 57.074398,375.829437 
	C47.242146,353.890137 52.498043,333.186462 63.920662,313.959900 
	C74.682266,295.845978 86.932945,278.590363 99.029762,261.307983 
	C104.498894,253.494415 111.071846,246.434998 117.339424,239.202789 
	C129.030930,225.711807 140.859619,212.339615 152.652130,198.936401 
	C153.500000,197.972717 154.517868,197.158615 156.145447,195.626678 
	C152.849747,211.807617 147.762726,225.524597 134.879471,236.002350 
	C119.462517,248.540726 105.799011,263.029205 94.644485,279.664246 
	C94.185905,280.348114 93.549683,280.912872 92.753876,281.803009 
z"/>
<path fill="#47704C" opacity="1.000000" stroke="none" 
	d="
M94.090012,319.456024 
	C94.352287,326.356750 95.097572,332.820099 94.796738,339.234375 
	C94.629921,342.791260 93.163971,346.496918 91.500694,349.733154 
	C87.143623,358.210754 82.356522,366.467346 77.446312,375.344452 
	C74.557114,370.056519 73.245506,364.375305 73.011322,358.395233 
	C72.201569,337.717957 78.991508,318.770874 86.512024,300.028992 
	C92.836464,284.267883 103.239326,271.325317 115.065475,259.382355 
	C119.376213,255.029053 123.399231,250.391830 127.599533,245.927444 
	C128.616592,244.846451 129.816177,243.937164 131.238297,243.284149 
	C117.289093,267.867279 99.247986,290.233276 94.090012,319.456024 
z"/>
<path fill="#47704C" opacity="1.000000" stroke="none" 
	d="
M264.010071,384.962891 
	C258.892792,396.819153 251.272278,406.130981 239.681610,413.978119 
	C240.984802,409.095642 242.626465,405.370270 242.882812,401.551880 
	C243.835434,387.362457 244.296570,373.140686 245.010666,358.934479 
	C245.683777,345.543579 252.274170,333.995941 256.181732,320.886993 
	C270.645538,341.370209 277.417816,361.803253 264.010071,384.962891 
z"/>
<path fill="#47704C" opacity="1.000000" stroke="none" 
	d="
M184.318787,227.373596 
	C181.046036,233.478760 177.484512,239.073212 174.999039,245.110657 
	C169.992050,257.273132 165.623093,269.697083 160.847244,281.957245 
	C160.188828,283.647430 158.711365,285.018585 157.596802,286.560028 
	C156.850128,285.871521 156.465790,285.675812 156.475479,285.502045 
	C156.602661,283.218811 156.785446,280.938660 156.954285,278.657745 
	C154.756439,279.479431 152.424179,280.061035 150.400436,281.193787 
	C148.563309,282.222107 146.749146,283.607666 145.468887,285.257843 
	C140.864563,291.192413 141.993118,295.862854 149.453476,300.556458 
	C142.660645,310.389343 129.582703,307.960510 122.225891,315.970917 
	C121.929550,315.569794 121.633202,315.168640 121.336853,314.767517 
	C124.383766,310.220123 127.561653,305.754272 130.453186,301.110138 
	C139.342987,286.832092 148.064194,272.449066 156.960541,258.175140 
	C168.714386,239.316437 173.059082,217.422012 182.011917,197.419525 
	C184.078613,192.802109 186.102722,188.165619 188.146423,183.537918 
	C188.640717,183.690674 189.135025,183.843430 189.629318,183.996185 
	C188.307999,188.962692 187.524200,194.162292 185.502167,198.824936 
	C183.756851,202.849472 182.253571,205.686249 185.764893,209.892059 
	C191.501785,216.763611 191.040771,217.779724 184.318787,227.373596 
z"/>
<path fill="#47704C" opacity="1.000000" stroke="none" 
	d="
M234.689087,358.616455 
	C225.823105,371.111176 217.152344,383.295319 207.696518,396.582642 
	C205.148163,389.039368 203.584427,382.651093 204.346115,376.006927 
	C204.508591,374.589600 206.863998,372.957794 208.554199,372.256592 
	C220.146072,367.447510 222.038391,356.959412 223.955017,346.464478 
	C224.126587,345.524994 224.148438,344.254517 223.654556,343.545349 
	C219.778809,337.980438 222.076187,333.834869 225.792130,329.105377 
	C230.816559,322.710480 234.908157,315.582611 240.000702,307.858032 
	C240.000702,317.928894 239.812149,327.140869 240.058350,336.341187 
	C240.268112,344.180847 240.472473,351.889343 234.689087,358.616455 
z"/>
<path fill="#47704C" opacity="1.000000" stroke="none" 
	d="
M206.932556,411.120300 
	C209.338074,416.381287 205.704391,419.360016 203.087280,422.244934 
	C198.986923,426.764893 194.333557,430.783142 189.216202,435.682373 
	C185.456329,429.084961 182.035172,423.294189 178.869705,417.366852 
	C178.146881,416.013306 177.730713,414.018036 178.148254,412.606445 
	C182.972580,396.296478 190.017532,380.984344 199.427338,365.672760 
	C200.001373,373.206329 200.414612,379.713654 201.028870,386.201965 
	C201.307251,389.142395 201.745560,392.111603 202.536011,394.949463 
	C203.778641,399.410675 204.260117,403.529297 200.514923,407.169952 
	C199.558823,408.099396 199.167404,409.609772 198.516525,410.853241 
	C198.828262,411.132660 199.139999,411.412079 199.451752,411.691498 
	C201.322174,409.925629 203.192612,408.159729 205.288788,406.180695 
	C205.844284,407.788910 206.355026,409.267548 206.932556,411.120300 
z"/>
<path fill="#47704C" opacity="1.000000" stroke="none" 
	d="
M202.087006,354.068237 
	C199.357864,359.131531 196.484512,364.123291 193.929962,369.273193 
	C188.804184,379.606628 183.857834,390.029022 178.808929,400.400818 
	C178.614151,400.800934 178.124130,401.057312 177.121674,401.977112 
	C176.849121,390.689697 181.959427,381.371368 184.314941,371.411469 
	C179.025925,378.174988 175.975189,386.014618 175.191345,394.273407 
	C173.910599,407.767426 173.668091,421.360443 173.014938,434.913025 
	C172.951096,436.237854 172.682114,437.752258 173.190186,438.868317 
	C174.810043,442.426514 172.988327,444.095337 170.122696,445.430267 
	C168.043610,446.398773 165.989716,447.421356 162.977676,448.877655 
	C162.615616,444.379852 161.905258,440.539032 162.078217,436.738342 
	C162.536240,426.673340 162.686996,416.517151 164.248444,406.600128 
	C165.986923,395.558838 171.327835,385.688599 177.768448,376.606171 
	C186.534088,364.245026 195.537201,352.049286 204.637451,339.932068 
	C205.814575,338.364716 208.178146,337.688416 209.992126,336.599365 
	C210.588043,337.285278 211.183945,337.971222 211.779846,338.657135 
	C207.213654,343.783020 202.647461,348.908905 198.081268,354.034790 
	C198.247574,354.259857 198.413879,354.484924 198.580185,354.709961 
	C199.340393,354.369354 200.100586,354.028748 201.289246,353.681274 
	C201.840790,353.805695 201.963882,353.936981 202.087006,354.068237 
z"/>
<path fill="#47704C" opacity="1.000000" stroke="none" 
	d="
M202.699005,248.873230 
	C205.774414,245.611526 208.603943,242.620667 211.867981,239.170532 
	C213.417618,247.400085 218.001617,254.757584 214.289032,263.762787 
	C209.368317,275.698303 205.573242,288.094147 200.893875,300.136505 
	C200.080750,302.229095 197.562103,304.271759 195.363037,305.111633 
	C182.869461,309.883209 175.015915,318.789917 170.844101,331.261749 
	C170.691544,331.717834 170.373520,332.132751 170.071823,332.519440 
	C169.896027,332.744781 169.599213,332.875671 169.119537,333.218872 
	C169.150238,326.726288 167.521881,320.179382 172.936661,314.878723 
	C174.031158,313.807281 174.140961,311.796509 175.056168,310.459290 
	C176.336334,308.588867 177.626862,306.409973 179.475830,305.304108 
	C184.816528,302.109741 186.663223,298.629547 185.334503,292.626068 
	C184.058792,286.861938 187.161392,282.389587 189.930237,277.944275 
	C190.455933,277.100250 192.635651,277.076447 194.061157,277.041840 
	C198.504333,276.933868 202.951782,277.002228 207.332504,277.002228 
	C209.174911,270.518280 206.888046,265.591034 203.489075,261.237183 
	C200.373718,257.246674 199.611801,253.451828 202.699005,248.873230 
z"/>
<path fill="#47704C" opacity="1.000000" stroke="none" 
	d="
M189.306427,330.325195 
	C182.403305,342.783569 176.226730,355.261383 168.769608,366.920135 
	C164.655273,373.352631 158.391739,378.410461 152.763535,384.445648 
	C151.061630,378.464844 150.656296,373.341492 154.373642,368.029053 
	C158.900879,361.559204 162.628845,354.530029 166.087982,348.766693 
	C168.106995,348.063904 170.258682,347.976440 170.800278,346.997864 
	C172.217545,344.437073 172.917389,341.481873 173.928925,338.693237 
	C175.499237,334.364075 177.034988,330.021179 178.685150,325.722412 
	C182.102570,316.819794 189.260056,312.321869 199.441498,309.003479 
	C195.788910,316.717560 192.643677,323.360138 189.306427,330.325195 
z"/>
<path fill="#47704C" opacity="1.000000" stroke="none" 
	d="
M220.300964,142.405380 
	C217.309708,157.077087 214.063446,171.702713 211.401871,186.433975 
	C208.943024,200.043228 207.334671,213.805649 204.903580,227.420593 
	C203.772598,233.754379 202.857468,240.343704 196.323898,244.359772 
	C191.827606,247.123596 191.298599,251.468781 193.172562,256.601685 
	C195.653351,263.396820 190.815628,270.289429 182.596207,270.762604 
	C183.733017,264.665253 184.261703,258.654694 186.019409,253.028107 
	C190.389359,239.039398 195.082367,225.139557 200.085754,211.363876 
	C206.145935,194.678574 208.540924,177.208282 212.181625,159.981613 
	C213.461853,153.924011 217.109039,148.366653 220.003784,142.515427 
	C220.332123,142.449966 220.300949,142.405380 220.300964,142.405380 
z"/>
<path fill="#47704C" opacity="1.000000" stroke="none" 
	d="
M152.912689,218.931488 
	C155.300873,210.388947 157.466736,201.775528 160.159653,193.330154 
	C161.805786,188.167618 163.818192,183.017563 166.437561,178.289261 
	C174.142700,164.380493 178.572128,149.526993 180.453140,133.779007 
	C183.141830,151.228745 185.465469,168.616943 179.142914,185.824310 
	C175.719894,195.140289 170.582886,203.291656 163.378983,210.146133 
	C160.244675,213.128387 157.224686,216.230804 153.717041,219.301483 
	C153.158432,219.193375 153.035568,219.062424 152.912689,218.931488 
z"/>
<path fill="#47704C" opacity="1.000000" stroke="none" 
	d="
M170.672546,382.641144 
	C163.774414,394.359344 159.535828,406.523529 158.973068,419.852783 
	C158.870789,422.275360 158.426300,424.683472 157.242096,427.104797 
	C155.831161,416.336273 154.459641,405.562408 152.990631,394.801788 
	C152.368347,390.243530 154.153732,387.451904 157.785492,384.427032 
	C168.065292,375.864899 175.481735,364.830261 181.907959,353.183228 
	C186.768417,344.373932 191.376953,335.425690 196.340530,326.082001 
	C198.721542,329.323914 200.723236,332.049347 202.680222,334.713898 
	C192.079193,350.585205 181.477097,366.458130 170.672546,382.641144 
z"/>
<path fill="#47704C" opacity="1.000000" stroke="none" 
	d="
M193.965042,161.774780 
	C194.997208,143.656189 195.934860,125.994606 197.171906,108.354004 
	C197.270325,106.950462 199.417313,104.617882 200.652664,104.591255 
	C203.181961,104.536751 204.463028,106.011536 203.485580,109.247032 
	C201.376465,116.228409 205.930298,122.213654 207.100006,128.726639 
	C208.089722,134.237488 208.422455,139.876633 208.792297,145.475754 
	C208.839783,146.194580 207.466843,147.176620 206.572067,147.761703 
	C198.878769,152.792282 197.805206,155.389587 199.916321,164.236679 
	C201.690872,171.673416 200.687180,174.126755 192.700241,179.526535 
	C193.160828,173.139999 193.553986,167.688583 193.965042,161.774780 
z"/>
<path fill="#47704C" opacity="1.000000" stroke="none" 
	d="
M132.348541,359.797363 
	C123.560150,351.113190 123.401939,351.031036 128.954224,340.337891 
	C133.035034,332.478607 137.281219,324.663879 142.096283,317.246429 
	C144.161636,314.064789 147.856903,311.941223 150.811600,309.336884 
	C151.375900,309.713867 151.940186,310.090851 152.504486,310.467834 
	C150.919678,319.096863 149.451233,327.750549 147.630295,336.329468 
	C147.342133,337.687073 145.614365,338.922882 144.294235,339.846161 
	C138.263107,344.064148 134.072144,349.144073 134.901215,357.132721 
	C135.012253,358.202545 136.463455,361.542999 132.348541,359.797363 
z"/>
<path fill="#47704C" opacity="1.000000" stroke="none" 
	d="
M282.257690,136.185364 
	C276.754242,142.734161 271.492218,149.017090 266.497650,154.980698 
	C267.669647,139.244980 272.082275,124.461716 284.520050,112.790405 
	C289.618195,108.006386 293.704742,102.144310 298.626892,96.944839 
	C294.532745,110.468750 291.349609,124.342407 282.257690,136.185364 
z"/>
<path fill="#47704C" opacity="1.000000" stroke="none" 
	d="
M237.351654,89.289680 
	C235.428543,95.144897 233.761581,100.657974 231.944092,106.120964 
	C230.204300,111.350403 228.308136,116.527824 226.543915,121.548218 
	C223.520004,118.687134 220.268387,116.359856 218.069641,113.280731 
	C216.462341,111.029877 216.240067,107.790016 215.235611,104.441582 
	C219.706192,103.847725 222.965698,103.568069 226.151474,102.923775 
	C227.638306,102.623070 229.665741,101.940666 230.190475,100.834595 
	C230.672501,99.818611 229.604584,97.938866 228.976517,96.549522 
	C227.323914,92.893700 225.579468,89.277603 223.795319,85.683548 
	C222.071487,82.211037 222.983902,79.661186 226.805176,79.250343 
	C230.424072,78.861252 234.417603,78.709145 237.653503,79.971947 
	C238.632034,80.353813 237.634430,85.799477 237.351654,89.289680 
z"/>
<path fill="#47704C" opacity="1.000000" stroke="none" 
	d="
M249.120880,279.458130 
	C249.925339,279.564575 251.100555,279.505859 251.360901,278.987579 
	C252.230026,277.257477 252.771439,275.362732 253.703232,272.803711 
	C256.470306,284.657867 255.254211,295.601868 252.630875,306.553833 
	C247.411667,303.772583 243.277283,294.779114 244.098389,289.000122 
	C245.534836,278.890442 246.687149,268.740692 248.007355,258.614075 
	C248.730499,253.067322 249.553619,247.533615 250.318405,242.088425 
	C253.145233,249.645569 252.653427,264.750549 249.120880,279.458130 
z"/>
<path fill="#47704C" opacity="1.000000" stroke="none" 
	d="
M127.755539,395.392059 
	C129.588455,388.496704 130.644867,381.728241 133.157715,375.552338 
	C136.793900,366.615631 141.484451,358.107941 145.725204,349.417267 
	C146.129532,349.518768 146.533859,349.620300 146.938187,349.721832 
	C146.938187,356.267029 147.218475,362.830902 146.784561,369.347198 
	C146.634842,371.595398 145.030899,373.983398 143.533417,375.863159 
	C137.869064,382.973511 134.304916,391.030121 132.010635,399.736603 
	C131.685532,400.970245 131.214996,402.165619 130.811768,403.378693 
	C130.235031,403.444031 129.658279,403.509338 129.081528,403.574677 
	C128.597626,400.977692 128.113739,398.380707 127.755539,395.392059 
z"/>
<path fill="#47704C" opacity="1.000000" stroke="none" 
	d="
M184.902924,135.362762 
	C180.035233,119.914680 182.346344,105.147446 186.302444,90.431816 
	C187.271317,86.827843 188.211258,83.216103 189.914337,79.755676 
	C189.240402,85.074760 188.062668,90.387840 187.999268,95.714195 
	C187.874176,106.225410 187.610580,116.829285 188.785477,127.238945 
	C190.432236,141.829483 190.040085,156.212250 187.682312,170.617828 
	C187.539352,171.491241 186.903091,172.283920 186.470779,173.166367 
	C185.960571,160.610825 185.456680,148.210510 184.902924,135.362762 
z"/>
<path fill="#47704C" opacity="1.000000" stroke="none" 
	d="
M239.287857,99.453552 
	C241.530411,94.344917 243.611679,89.610619 246.212204,83.695152 
	C247.744736,85.837250 248.814499,86.639931 248.854355,87.490822 
	C249.597733,103.369484 244.988983,118.284096 241.064560,134.139282 
	C236.989746,122.198906 235.379166,111.119438 239.287857,99.453552 
z"/>
<path fill="#47704C" opacity="1.000000" stroke="none" 
	d="
M222.087112,299.068298 
	C217.152237,309.440369 212.217346,319.812439 207.282455,330.184509 
	C206.583908,330.190796 205.885345,330.197083 205.186783,330.203369 
	C204.131744,328.021606 202.438995,325.924377 202.136581,323.642853 
	C201.062759,315.541046 205.457703,307.923279 212.601013,304.087402 
	C215.476776,302.543182 218.101044,300.530609 221.279251,298.703613 
	C221.841522,298.806824 221.964325,298.937561 222.087112,299.068298 
z"/>
<path fill="#47704C" opacity="1.000000" stroke="none" 
	d="
M211.746796,332.274963 
	C211.185532,331.320923 210.479416,330.341370 210.729858,329.833740 
	C216.519913,318.097382 222.413925,306.412292 228.653763,294.793640 
	C228.472763,306.151001 228.611725,317.729401 221.512329,327.430176 
	C219.611404,330.027618 215.269073,330.838318 211.746796,332.274963 
z"/>
<path fill="#47704C" opacity="1.000000" stroke="none" 
	d="
M232.663513,366.668243 
	C233.936066,364.774170 235.005219,363.172607 236.074356,361.571075 
	C236.588242,361.865143 237.102127,362.159210 237.616013,362.453278 
	C229.251465,378.131897 220.886917,393.810516 211.967316,410.529541 
	C209.337875,404.881500 207.180725,401.390106 210.968124,396.607208 
	C218.538544,387.046906 225.340698,376.878204 232.663513,366.668243 
z"/>
<path fill="#47704C" opacity="1.000000" stroke="none" 
	d="
M235.951660,189.156097 
	C236.545837,187.993927 237.027817,187.156631 237.509796,186.319336 
	C237.820679,186.563538 238.131561,186.807739 238.442444,187.051941 
	C237.392227,205.954926 236.342010,224.857910 235.291809,243.760895 
	C234.955154,243.853729 234.618500,243.946564 234.281845,244.039413 
	C233.855087,242.037155 233.063370,240.035278 233.061279,238.032578 
	C233.048523,225.818268 233.646698,213.592896 229.555008,201.724426 
	C229.034943,200.215912 230.509903,197.818756 231.465439,196.052277 
	C232.712097,193.747528 234.362701,191.661270 235.951660,189.156097 
z"/>
<path fill="#47704C" opacity="1.000000" stroke="none" 
	d="
M159.722839,333.550903 
	C161.131470,330.463470 162.352417,327.698242 163.749283,324.534576 
	C165.246552,339.749512 160.723007,352.689636 151.873856,364.792786 
	C150.356934,350.890900 149.399796,343.470490 159.722839,333.550903 
z"/>
<path fill="#47704C" opacity="1.000000" stroke="none" 
	d="
M127.769928,363.268250 
	C131.592133,366.103210 132.217377,368.836853 130.247681,373.198761 
	C127.571617,379.125000 126.129250,385.608337 124.179855,391.782745 
	C119.259758,384.521210 118.527298,365.939087 123.229599,358.937714 
	C124.695511,360.330872 126.107719,361.673004 127.769928,363.268250 
z"/>
<path fill="#47704C" opacity="1.000000" stroke="none" 
	d="
M176.847046,276.791260 
	C176.033707,283.399841 175.114120,290.214264 173.822021,296.957336 
	C173.656067,297.823456 171.626389,298.562347 170.337021,298.939606 
	C166.666214,300.013550 162.931824,300.870178 159.160614,301.828033 
	C160.345490,296.716675 161.863708,291.498993 167.288330,287.640289 
	C171.034225,284.975708 173.556549,280.591034 176.847046,276.791260 
z"/>
<path fill="#47704C" opacity="1.000000" stroke="none" 
	d="
M267.333405,106.311707 
	C270.051849,101.786018 272.134705,97.195427 275.322723,93.579094 
	C276.867188,91.827141 280.484467,91.902481 283.163269,91.150520 
	C283.443542,91.708572 283.723846,92.266624 284.004150,92.824669 
	C282.115875,96.175308 280.227600,99.525940 278.339325,102.876572 
	C278.023987,102.425453 277.708679,101.974335 277.393341,101.523209 
	C276.049225,102.117523 274.205017,102.340973 273.443695,103.367523 
	C269.142822,109.166641 265.107269,115.162331 260.965210,121.079773 
	C260.440338,121.829620 259.821259,122.513527 259.130493,123.371162 
	C257.252228,118.094574 258.450714,115.139954 263.240540,111.322418 
	C264.797485,110.081528 265.862457,108.223389 267.333405,106.311707 
M278.496826,97.819824 
	C278.496826,97.819824 278.627289,97.502068 278.627289,97.502068 
	C278.627289,97.502068 278.298676,97.586807 278.496826,97.819824 
z"/>
<path fill="#47704C" opacity="1.000000" stroke="none" 
	d="
M245.000061,209.130173 
	C245.460526,197.803925 244.044113,186.772873 246.377151,175.872925 
	C249.692123,180.171814 252.674927,184.204803 251.063690,190.088776 
	C249.331146,196.415802 248.368210,202.951630 246.982620,209.377625 
	C246.770615,210.360809 246.090714,211.243088 245.000748,213.427628 
	C245.000748,211.160400 245.000748,210.340912 245.000061,209.130173 
z"/>
<path fill="#47704C" opacity="1.000000" stroke="none" 
	d="
M273.680023,159.705200 
	C270.017181,167.921021 266.553101,175.812561 263.089050,183.704086 
	C262.695435,183.522980 262.301849,183.341873 261.908264,183.160767 
	C263.918915,167.848648 269.768555,154.234955 279.960266,142.542252 
	C280.365295,142.713547 280.770325,142.884857 281.175354,143.056168 
	C278.743164,148.497742 276.311005,153.939331 273.680023,159.705200 
z"/>
<path fill="#47704C" opacity="1.000000" stroke="none" 
	d="
M215.451080,358.056915 
	C214.404587,364.458557 209.493454,365.894104 204.064240,368.155396 
	C204.424301,358.651794 209.038773,351.739197 213.472275,344.752747 
	C214.086472,344.812744 214.700668,344.872711 215.314865,344.932678 
	C215.432617,349.189240 215.550369,353.445831 215.451080,358.056915 
z"/>
<path fill="#47704C" opacity="1.000000" stroke="none" 
	d="
M223.579620,148.890869 
	C225.545486,141.803253 231.815552,143.072159 236.100327,140.822784 
	C236.469711,141.158081 236.839096,141.493393 237.208481,141.828690 
	C233.413086,148.899384 229.617676,155.970062 225.822266,163.040756 
	C225.288406,162.920898 224.754532,162.801056 224.220657,162.681198 
	C223.935623,158.200851 223.650589,153.720490 223.579620,148.890869 
z"/>
<path fill="#47704C" opacity="1.000000" stroke="none" 
	d="
M229.000534,224.030884 
	C228.352798,232.357620 228.116928,239.995331 230.705673,247.820877 
	C232.568665,253.452545 228.086777,257.853851 224.520401,261.862183 
	C224.048904,261.755585 223.577423,261.649017 223.105942,261.542419 
	C224.404175,252.893692 226.217010,244.282852 226.857040,235.585678 
	C227.507217,226.750366 227.000656,217.829926 227.311844,208.791626 
	C227.874725,213.713928 228.437622,218.636246 229.000534,224.030884 
z"/>
<path fill="#47704C" opacity="1.000000" stroke="none" 
	d="
M273.296143,113.357994 
	C270.398834,120.563721 267.691467,127.432297 264.720062,134.970734 
	C261.712952,131.184998 260.022583,128.015640 262.514862,123.959480 
	C266.684540,117.173462 270.821564,110.367378 274.972321,103.569733 
	C275.595337,103.880310 276.218353,104.190887 276.841339,104.501465 
	C275.722931,107.341255 274.604523,110.181053 273.296143,113.357994 
z"/>
<path fill="#47704C" opacity="1.000000" stroke="none" 
	d="
M217.963760,245.575699 
	C215.931427,235.771225 213.597260,226.318314 220.586945,216.694382 
	C222.067123,228.126038 223.377289,238.553482 219.633240,250.158524 
	C218.781357,247.973816 218.388199,246.965530 217.963760,245.575699 
z"/>
<path fill="#47704C" opacity="1.000000" stroke="none" 
	d="
M244.446594,309.928497 
	C244.233307,308.103058 244.233307,306.636780 244.233307,305.069183 
	C253.532806,311.568634 252.718063,319.777527 244.659882,338.005920 
	C244.659882,328.766510 244.659882,319.527069 244.446594,309.928497 
z"/>
<path fill="#47704C" opacity="1.000000" stroke="none" 
	d="
M227.998993,129.003983 
	C229.167007,125.203178 230.302353,121.803711 231.942368,116.893158 
	C233.817657,123.061699 235.568390,127.825409 236.548233,132.742722 
	C236.793381,133.972992 234.852554,136.161087 233.394470,137.087448 
	C231.145477,138.516281 228.446381,139.236603 224.489716,140.847031 
	C225.947571,136.049179 226.956940,132.727249 227.998993,129.003983 
z"/>
<path fill="#47704C" opacity="1.000000" stroke="none" 
	d="
M186.752167,435.004669 
	C184.014435,437.449371 181.278122,439.538452 178.541809,441.627502 
	C177.994873,441.307495 177.447952,440.987488 176.901031,440.667450 
	C176.901031,434.294098 176.901031,427.920776 176.901031,420.491882 
	C180.543076,425.725159 183.648331,430.187073 186.752167,435.004669 
z"/>
<path fill="#47704C" opacity="1.000000" stroke="none" 
	d="
M277.915619,114.541153 
	C277.249054,114.249283 276.331726,113.477936 276.452698,113.244377 
	C279.473236,107.412666 282.357391,101.482239 285.858429,95.943993 
	C286.960175,94.201187 289.769287,93.537712 292.414581,93.141968 
	C290.841217,102.669121 284.173279,108.268456 277.915619,114.541153 
z"/>
<path fill="#47704C" opacity="1.000000" stroke="none" 
	d="
M173.007294,153.920120 
	C170.477905,160.853973 167.982697,167.378357 165.487473,173.902756 
	C164.877274,173.691559 164.267075,173.480347 163.656876,173.269150 
	C167.353119,160.750244 171.049362,148.231339 174.745605,135.712433 
	C175.364349,135.852905 175.983093,135.993362 176.601837,136.133835 
	C175.415039,141.926117 174.228256,147.718384 173.007294,153.920120 
z"/>
<path fill="#47704C" opacity="1.000000" stroke="none" 
	d="
M191.007233,108.000092 
	C192.753983,97.724525 191.222015,87.321205 196.477737,78.114357 
	C195.284348,93.117531 194.090958,108.120705 192.897568,123.123878 
	C192.736618,123.108902 192.575668,123.093918 192.414719,123.078941 
	C191.945557,118.205055 191.476379,113.331161 191.007233,108.000092 
z"/>
<path fill="#47704C" opacity="1.000000" stroke="none" 
	d="
M198.784729,92.384750 
	C199.717194,87.542915 200.538666,83.103340 201.553329,77.619743 
	C208.589981,82.299423 204.217422,89.186996 207.101273,93.808922 
	C201.817947,95.769615 199.811890,95.474327 198.784729,92.384750 
z"/>
<path fill="#47704C" opacity="1.000000" stroke="none" 
	d="
M216.930466,186.893860 
	C216.211411,189.279877 215.563049,191.282059 214.914703,193.284241 
	C214.569443,193.211487 214.224167,193.138733 213.878891,193.065979 
	C215.769775,181.899811 217.660660,170.733658 219.774597,158.250381 
	C224.387161,169.349838 220.156845,177.856842 216.930466,186.893860 
z"/>
<path fill="#47704C" opacity="1.000000" stroke="none" 
	d="
M229.912613,183.932098 
	C233.112198,175.409119 236.311783,166.886124 239.511368,158.363144 
	C239.932968,158.511276 240.354553,158.659409 240.776154,158.807526 
	C240.917007,164.722122 242.359039,170.748703 237.174026,175.820969 
	C234.747650,178.194580 233.148834,181.414139 230.732605,184.282928 
	C230.164368,184.187714 230.038483,184.059906 229.912613,183.932098 
z"/>
<path fill="#47704C" opacity="1.000000" stroke="none" 
	d="
M232.208466,311.940491 
	C232.670303,304.999725 233.248688,298.333466 233.850754,291.394287 
	C239.908585,295.696991 238.923218,305.953278 232.208466,311.940491 
z"/>
<path fill="#47704C" opacity="1.000000" stroke="none" 
	d="
M128.399597,321.906250 
	C127.630447,321.051361 127.109940,320.431061 126.141602,319.277069 
	C130.561020,317.475494 134.636169,315.814270 138.711304,314.153046 
	C138.944397,314.404785 139.177490,314.656555 139.410583,314.908295 
	C136.920151,319.175049 134.429718,323.441803 131.827179,327.900604 
	C130.688751,325.837952 129.668488,323.989380 128.399597,321.906250 
z"/>
<path fill="#47704C" opacity="1.000000" stroke="none" 
	d="
M183.003448,88.971344 
	C182.223312,91.968285 181.477127,94.556129 180.730942,97.143982 
	C180.362869,97.078430 179.994812,97.012878 179.626740,96.947327 
	C180.102982,90.704323 180.417938,84.440567 181.216141,78.239006 
	C181.347290,77.220093 183.602112,76.474518 184.875443,75.602608 
	C185.252182,75.989769 185.628906,76.376923 186.005646,76.764076 
	C185.016220,80.696800 184.026810,84.629524 183.003448,88.971344 
z"/>
<path fill="#47704C" opacity="1.000000" stroke="none" 
	d="
M220.424225,276.181427 
	C219.702637,282.405151 219.193527,288.293274 218.684433,294.181366 
	C218.262360,294.137024 217.840271,294.092682 217.418198,294.048340 
	C215.862076,282.039703 217.357773,273.985962 222.546417,270.894287 
	C221.708954,273.065704 221.172836,274.455750 220.424225,276.181427 
z"/>
<path fill="#47704C" opacity="1.000000" stroke="none" 
	d="
M207.317413,293.358856 
	C208.687790,290.190063 209.887970,287.362244 211.283707,284.073700 
	C214.379745,291.444641 211.872498,296.454712 205.527008,301.511322 
	C206.220245,298.169067 206.683731,295.934448 207.317413,293.358856 
z"/>
<path fill="#47704C" opacity="1.000000" stroke="none" 
	d="
M220.348999,142.471298 
	C219.258011,138.144241 218.150146,133.795853 217.071777,129.563248 
	C218.883820,128.992157 220.840286,128.375534 223.257858,127.717560 
	C223.841705,127.806938 223.964462,127.937675 224.087219,128.068420 
	C222.952042,132.609909 221.816864,137.151382 220.491302,142.049133 
	C220.300949,142.405380 220.332123,142.449966 220.348999,142.471298 
z"/>
<path fill="#47704C" opacity="1.000000" stroke="none" 
	d="
M200.736893,196.473206 
	C200.216324,198.214691 199.834351,199.592850 199.425156,201.069168 
	C194.605026,196.938278 194.796768,196.049988 203.158234,185.483749 
	C202.237030,189.771866 201.556259,192.940872 200.736893,196.473206 
z"/>
<path fill="#47704C" opacity="1.000000" stroke="none" 
	d="
M238.000732,279.933594 
	C238.311966,282.952057 238.622604,285.531067 238.946609,288.220886 
	C234.573822,285.579620 233.382523,277.095428 236.807632,269.779480 
	C237.278778,273.617554 237.639465,276.555817 238.000732,279.933594 
z"/>
<path fill="#47704C" opacity="1.000000" stroke="none" 
	d="
M212.644379,93.056007 
	C211.338074,89.397545 210.392807,85.708565 209.447556,82.019585 
	C209.796509,81.908134 210.145462,81.796684 210.494431,81.685242 
	C212.173752,83.838760 213.966675,85.914642 215.504379,88.164940 
	C217.541306,91.145851 217.111664,93.089142 212.644379,93.056007 
z"/>
<path fill="#47704C" opacity="1.000000" stroke="none" 
	d="
M296.720459,114.518616 
	C298.749573,108.438812 300.623962,102.709946 302.498383,96.981071 
	C302.928925,97.119148 303.359467,97.257217 303.790039,97.395294 
	C301.442749,105.056091 299.095459,112.716896 296.748169,120.377693 
	C296.155060,120.204086 295.561981,120.030487 294.968872,119.856880 
	C295.501160,118.194435 296.033447,116.531990 296.720459,114.518616 
z"/>
<path fill="#47704C" opacity="1.000000" stroke="none" 
	d="
M218.964508,203.687225 
	C218.170868,205.518814 217.436874,206.979172 216.702881,208.439514 
	C216.460159,208.369049 216.217453,208.298569 215.974747,208.228088 
	C217.330963,202.091400 218.687195,195.954697 220.043411,189.817993 
	C220.764847,189.966583 221.486298,190.115189 222.207748,190.263779 
	C221.146545,194.614517 220.085358,198.965256 218.964508,203.687225 
z"/>
<path fill="#47704C" opacity="1.000000" stroke="none" 
	d="
M227.709595,286.555267 
	C226.690018,288.769440 225.828751,290.642853 224.967484,292.516266 
	C224.692307,292.456268 224.417145,292.396271 224.141968,292.336243 
	C224.541504,287.781158 224.941055,283.226074 225.345276,278.617584 
	C229.155197,280.353821 229.352722,280.969025 227.709595,286.555267 
z"/>
<path fill="#47704C" opacity="1.000000" stroke="none" 
	d="
M226.943390,268.190125 
	C228.599655,264.270477 230.580612,260.296204 232.561554,256.321960 
	C233.020508,256.582825 233.479446,256.843719 233.938385,257.104584 
	C232.526779,261.234009 232.330734,266.040894 226.943390,268.190125 
z"/>
<path fill="#47704C" opacity="1.000000" stroke="none" 
	d="
M260.418091,169.121124 
	C260.041565,170.700714 259.868530,171.946259 259.695496,173.191788 
	C259.266907,173.124313 258.838318,173.056839 258.409729,172.989365 
	C259.439117,166.517319 260.468506,160.045273 261.497894,153.573227 
	C261.978119,153.643890 262.458344,153.714554 262.938568,153.785217 
	C262.166229,158.785828 261.393890,163.786453 260.418091,169.121124 
z"/>
<path fill="#47704C" opacity="1.000000" stroke="none" 
	d="
M241.011902,265.863159 
	C241.874268,262.071167 242.732391,258.678680 243.590530,255.286179 
	C244.009521,255.378983 244.428528,255.471786 244.847534,255.564590 
	C244.124466,260.367432 243.401398,265.170258 242.678329,269.973083 
	C242.321884,270.007812 241.965424,270.042511 241.608978,270.077240 
	C241.408554,268.805725 241.208115,267.534180 241.011902,265.863159 
z"/>
<path fill="#47704C" opacity="1.000000" stroke="none" 
	d="
M194.986603,267.116089 
	C195.667252,265.861023 196.243073,264.955811 197.176788,263.487976 
	C198.665222,265.683990 199.778946,267.327179 200.963928,269.075470 
	C195.586716,270.577484 195.013763,270.405670 194.986603,267.116089 
z"/>
<path fill="#47704C" opacity="1.000000" stroke="none" 
	d="
M128.828613,330.200745 
	C128.248306,332.195374 127.316727,334.223022 126.385147,336.250671 
	C125.165115,335.495636 123.945076,334.740601 121.910378,333.481415 
	C124.798927,332.052917 126.638138,331.143372 128.828613,330.200745 
z"/>
<path fill="#47704C" opacity="1.000000" stroke="none" 
	d="
M266.223694,94.277184 
	C267.749146,92.909775 269.028503,91.794029 270.307892,90.678284 
	C270.705750,91.064316 271.103577,91.450348 271.501404,91.836380 
	C269.460480,94.301605 267.419556,96.766830 265.378601,99.232048 
	C264.896637,98.901520 264.414673,98.570992 263.932709,98.240456 
	C264.614349,97.003250 265.295959,95.766045 266.223694,94.277184 
z"/>
<path fill="#47704C" opacity="1.000000" stroke="none" 
	d="
M218.642853,97.685341 
	C220.596130,97.289169 222.245361,97.057129 223.894592,96.825089 
	C223.986404,97.530579 224.078201,98.236076 224.170013,98.941566 
	C221.153870,99.408051 218.137726,99.874535 215.121567,100.341019 
	C215.010849,99.967407 214.900116,99.593796 214.789398,99.220177 
	C215.972534,98.763275 217.155670,98.306374 218.642853,97.685341 
z"/>
<path fill="#47704C" opacity="1.000000" stroke="none" 
	d="
M230.479034,184.507294 
	C230.283737,185.189224 229.899658,185.679398 228.848190,187.021347 
	C229.198639,185.385071 229.325256,184.793869 229.682251,184.067383 
	C230.038483,184.059906 230.164368,184.187714 230.479034,184.507294 
z"/>
<path fill="#47704C" opacity="1.000000" stroke="none" 
	d="
M238.470108,139.545456 
	C238.164581,139.423981 238.034622,139.184952 238.002213,138.933365 
	C237.991440,138.849777 238.231186,138.733917 238.356400,138.632828 
	C238.465515,138.896225 238.574615,139.159607 238.470108,139.545456 
z"/>
<path fill="#47704C" opacity="1.000000" stroke="none" 
	d="
M223.535065,127.479866 
	C223.753845,127.013817 224.156540,126.744095 224.559219,126.474365 
	C224.548798,126.922577 224.538361,127.370796 224.307587,127.943710 
	C223.964462,127.937675 223.841705,127.806938 223.535065,127.479866 
z"/>
<path fill="#47704C" opacity="1.000000" stroke="none" 
	d="
M153.465363,219.520920 
	C153.246597,219.987045 152.843765,220.256561 152.440918,220.526093 
	C152.451263,220.077759 152.461594,219.629410 152.692307,219.056274 
	C153.035568,219.062424 153.158432,219.193375 153.465363,219.520920 
z"/>
<path fill="#47704C" opacity="1.000000" stroke="none" 
	d="
M221.534775,298.479736 
	C221.753555,298.013611 222.156281,297.743835 222.559006,297.474030 
	C222.548630,297.922302 222.538269,298.370575 222.307510,298.943573 
	C221.964325,298.937561 221.841522,298.806824 221.534775,298.479736 
z"/>
<path fill="#47704C" opacity="1.000000" stroke="none" 
	d="
M201.533295,353.477264 
	C201.789108,353.071930 202.229324,352.863770 202.669556,352.655579 
	C202.622391,353.043213 202.575211,353.430786 202.307526,353.943298 
	C201.963882,353.936981 201.840790,353.805695 201.533295,353.477264 
z"/>
<path fill="#47704C" opacity="1.000000" stroke="none" 
	d="
M175.534851,200.479553 
	C175.753647,200.013504 176.156357,199.743805 176.559082,199.474121 
	C176.548660,199.922379 176.538223,200.370621 176.307434,200.943558 
	C175.964294,200.937469 175.841522,200.806702 175.534851,200.479553 
z"/>
<path fill="#29D8BB" opacity="1.000000" stroke="none" 
	d="
M278.397766,97.703316 
	C278.298676,97.586807 278.627289,97.502068 278.627289,97.502068 
	C278.627289,97.502068 278.496826,97.819824 278.397766,97.703316 
z"/>
</svg>