<svg version="1.1" id="Layer_1" xmlns="http://www.w3.org/2000/svg" xmlns:xlink="http://www.w3.org/1999/xlink" x="0px" y="0px"
	 width="100%" viewBox="0 0 820 617" enable-background="new 0 0 820 617" xml:space="preserve">
<path fill="#000000" opacity="1.000000" stroke="none" 
	d="
M484.000000,618.000000 
	C322.666656,618.000000 161.833328,618.000000 1.000000,618.000000 
	C1.000000,412.333344 1.000000,206.666672 1.000000,1.000000 
	C274.333344,1.000000 547.666687,1.000000 821.000000,1.000000 
	C821.000000,206.666672 821.000000,412.333344 821.000000,618.000000 
	C708.833313,618.000000 596.666687,618.000000 484.000000,618.000000 
M146.503006,374.001495 
	C154.312912,381.143646 161.985397,388.443542 169.963303,395.392822 
	C183.621826,407.290222 197.183594,419.327881 211.317413,430.642761 
	C227.188599,443.348450 244.302383,454.191498 263.296570,461.852875 
	C268.200439,463.830872 273.567383,465.749542 277.341278,469.203644 
	C284.259583,475.535706 290.099579,483.037170 296.482300,489.965271 
	C305.346497,499.587006 313.992218,509.436920 323.279541,518.635803 
	C338.016266,533.232178 352.954071,547.648682 368.306488,561.591064 
	C376.482758,569.016418 386.793274,572.816040 398.201538,575.209106 
	C395.415680,564.004517 391.437378,554.155640 383.675629,546.204041 
	C380.782990,543.240723 380.036377,539.501221 381.684113,536.185059 
	C383.424896,532.681519 386.999756,533.822693 390.045258,535.015564 
	C391.260681,535.491699 392.517029,535.869934 393.711609,536.391541 
	C401.769501,539.909790 409.702820,543.753174 417.914490,546.862549 
	C421.916656,548.377991 426.431366,548.539795 430.714081,549.314331 
	C431.013062,548.832336 431.312073,548.350403 431.611084,547.868469 
	C416.733002,518.310547 390.258881,500.099396 363.388763,480.950348 
	C366.787933,480.296814 368.986511,479.469055 371.159637,479.531189 
	C378.038086,479.727814 384.709778,477.320007 391.861145,480.277039 
	C413.720154,489.315582 435.735840,498.036194 457.997223,506.026154 
	C489.967316,517.500610 522.459167,527.412476 556.228577,532.054382 
	C575.235840,534.667175 594.363708,536.763916 613.507996,537.879028 
	C624.631104,538.526917 635.893799,536.767090 647.094238,536.099243 
	C658.293030,535.431458 669.494629,534.806519 680.689453,534.077637 
	C682.348328,533.969604 683.976685,533.393250 685.728394,533.009644 
	C680.641418,528.352417 676.025085,523.893066 671.164612,519.718079 
	C653.510376,504.553833 637.724304,487.550507 623.377747,469.337280 
	C614.604858,458.199768 607.009766,446.064667 599.605774,433.937897 
	C591.756897,421.082367 586.339172,407.329468 587.027283,391.706757 
	C587.489136,381.221252 594.409424,376.696747 603.788696,381.444061 
	C604.950684,382.032166 606.019348,382.817047 607.093018,383.565521 
	C622.101929,394.028351 638.024231,400.244934 657.042847,398.308014 
	C678.420105,396.130920 690.178284,386.692444 697.144592,368.225983 
	C702.781067,353.284760 704.278687,337.538239 704.840210,321.942322 
	C705.564270,301.830719 706.464294,281.560028 702.142273,261.575348 
	C699.463196,249.188217 695.443359,237.270584 685.920776,228.644730 
	C669.563782,213.828125 644.480469,211.653793 624.786621,223.647781 
	C617.659973,227.988083 610.459229,232.311676 602.912964,235.829193 
	C595.016479,239.509949 586.480347,241.593414 578.567810,235.879028 
	C572.842468,231.744202 569.122864,225.886871 566.992493,219.041580 
	C563.490845,207.789749 564.498901,196.535858 565.987854,185.080811 
	C568.658508,164.535278 576.413818,146.006516 586.933777,128.445557 
	C594.343018,116.077278 603.161133,104.833252 614.622742,95.966530 
	C622.252136,90.064423 629.862610,83.959053 638.185486,79.167213 
	C659.516113,66.886238 683.394409,61.478661 706.870117,55.091064 
	C709.216064,54.452751 711.547607,53.761818 714.850159,52.820438 
	C712.674500,51.854259 711.656982,51.341278 710.596924,50.940681 
	C691.625671,43.771542 671.587952,44.193291 651.826477,43.020885 
	C643.443909,42.523571 634.971558,43.624462 626.536865,43.902435 
	C605.339844,44.601009 584.124939,44.930477 562.948181,46.014355 
	C547.356201,46.812393 531.771729,48.207726 516.259583,49.994164 
	C499.525513,51.921326 482.652374,53.586384 466.248840,57.214603 
	C442.084686,62.559349 418.043915,68.767357 394.399536,76.062752 
	C374.316498,82.259308 354.584381,89.843964 335.221680,98.052139 
	C316.594849,105.948357 298.032776,114.377090 280.533905,124.465378 
	C254.171509,139.663513 230.228989,158.365692 211.747864,182.934006 
	C198.371750,200.715897 185.704697,219.051620 173.231873,237.485733 
	C164.045074,251.063263 156.311951,265.779633 144.210022,277.057678 
	C134.362747,286.234619 123.716133,294.596680 113.053291,302.840607 
	C105.789986,308.456207 103.915291,312.930054 106.819580,321.704193 
	C108.659828,327.263824 110.176636,332.938293 112.215561,338.421021 
	C113.223427,341.131195 114.611191,344.012512 116.639626,345.977570 
	C126.273842,355.310760 136.187790,364.355194 146.503006,374.001495 
z"/>
<path fill="#3EC0EC" opacity="1.000000" stroke="none" 
	d="
M146.252563,373.751953 
	C136.187790,364.355194 126.273842,355.310760 116.639626,345.977570 
	C114.611191,344.012512 113.223427,341.131195 112.215561,338.421021 
	C110.176636,332.938293 108.659828,327.263824 106.819580,321.704193 
	C103.915291,312.930054 105.789986,308.456207 113.053291,302.840607 
	C123.716133,294.596680 134.362747,286.234619 144.210022,277.057678 
	C156.311951,265.779633 164.045074,251.063263 173.231873,237.485733 
	C185.704697,219.051620 198.371750,200.715897 211.747864,182.934006 
	C230.228989,158.365692 254.171509,139.663513 280.533905,124.465378 
	C298.032776,114.377090 316.594849,105.948357 335.221680,98.052139 
	C354.584381,89.843964 374.316498,82.259308 394.399536,76.062752 
	C418.043915,68.767357 442.084686,62.559349 466.248840,57.214603 
	C482.652374,53.586384 499.525513,51.921326 516.259583,49.994164 
	C531.771729,48.207726 547.356201,46.812393 562.948181,46.014355 
	C584.124939,44.930477 605.339844,44.601009 626.536865,43.902435 
	C634.971558,43.624462 643.443909,42.523571 651.826477,43.020885 
	C671.587952,44.193291 691.625671,43.771542 710.596924,50.940681 
	C711.656982,51.341278 712.674500,51.854259 714.850159,52.820438 
	C711.547607,53.761818 709.216064,54.452751 706.870117,55.091064 
	C683.394409,61.478661 659.516113,66.886238 638.185486,79.167213 
	C629.862610,83.959053 622.252136,90.064423 614.622742,95.966530 
	C603.161133,104.833252 594.343018,116.077278 586.933777,128.445557 
	C576.413818,146.006516 568.658508,164.535278 565.987854,185.080811 
	C564.498901,196.535858 563.490845,207.789749 566.992493,219.041580 
	C569.122864,225.886871 572.842468,231.744202 578.567810,235.879028 
	C586.480347,241.593414 595.016479,239.509949 602.912964,235.829193 
	C610.459229,232.311676 617.659973,227.988083 624.786621,223.647781 
	C644.480469,211.653793 669.563782,213.828125 685.920776,228.644730 
	C695.443359,237.270584 699.463196,249.188217 702.142273,261.575348 
	C706.464294,281.560028 705.564270,301.830719 704.840210,321.942322 
	C704.278687,337.538239 702.781067,353.284760 697.144592,368.225983 
	C690.178284,386.692444 678.420105,396.130920 657.042847,398.308014 
	C638.024231,400.244934 622.101929,394.028351 607.093018,383.565521 
	C606.019348,382.817047 604.950684,382.032166 603.788696,381.444061 
	C594.409424,376.696747 587.489136,381.221252 587.027283,391.706757 
	C586.339172,407.329468 591.756897,421.082367 599.605774,433.937897 
	C607.009766,446.064667 614.604858,458.199768 623.377747,469.337280 
	C637.724304,487.550507 653.510376,504.553833 671.164612,519.718079 
	C676.025085,523.893066 680.641418,528.352417 685.728394,533.009644 
	C683.976685,533.393250 682.348328,533.969604 680.689453,534.077637 
	C669.494629,534.806519 658.293030,535.431458 647.094238,536.099243 
	C635.893799,536.767090 624.631104,538.526917 613.507996,537.879028 
	C594.363708,536.763916 575.235840,534.667175 556.228577,532.054382 
	C522.459167,527.412476 489.967316,517.500610 457.997223,506.026154 
	C435.735840,498.036194 413.720154,489.315582 391.861145,480.277039 
	C384.709778,477.320007 378.038086,479.727814 371.159637,479.531189 
	C368.986511,479.469055 366.787933,480.296814 363.388763,480.950348 
	C390.258881,500.099396 416.733002,518.310547 431.611084,547.868469 
	C431.312073,548.350403 431.013062,548.832336 430.714081,549.314331 
	C426.431366,548.539795 421.916656,548.377991 417.914490,546.862549 
	C409.702820,543.753174 401.769501,539.909790 393.711609,536.391541 
	C392.517029,535.869934 391.260681,535.491699 390.045258,535.015564 
	C386.999756,533.822693 383.424896,532.681519 381.684113,536.185059 
	C380.036377,539.501221 380.782990,543.240723 383.675629,546.204041 
	C391.437378,554.155640 395.415680,564.004517 398.201538,575.209106 
	C386.793274,572.816040 376.482758,569.016418 368.306488,561.591064 
	C352.954071,547.648682 338.016266,533.232178 323.279541,518.635803 
	C313.992218,509.436920 305.346497,499.587006 296.482300,489.965271 
	C290.099579,483.037170 284.259583,475.535706 277.341278,469.203644 
	C273.567383,465.749542 268.200439,463.830872 263.296570,461.852875 
	C244.302383,454.191498 227.188599,443.348450 211.317413,430.642761 
	C197.183594,419.327881 183.621826,407.290222 169.963303,395.392822 
	C161.985397,388.443542 154.312912,381.143646 146.252563,373.751953 
M388.464600,443.956787 
	C388.061249,443.244080 387.729889,442.477661 387.244141,441.826447 
	C371.226044,420.352814 357.337311,397.633545 346.927490,372.883606 
	C341.065491,358.946320 336.839722,344.452881 336.063263,329.388184 
	C335.188599,312.418030 337.092407,295.541138 339.719330,278.687134 
	C343.370209,255.263748 350.275940,232.944962 359.880310,211.389130 
	C371.911072,184.387558 388.155365,159.977966 407.201080,137.536575 
	C419.510712,123.032318 433.104584,109.624626 445.880127,95.505814 
	C450.830292,90.035172 455.111145,83.958939 459.696930,78.158600 
	C459.273804,77.528404 458.850677,76.898209 458.427551,76.268013 
	C456.692596,76.512253 454.829102,76.428299 453.241974,77.049973 
	C429.472504,86.360367 409.157928,101.006142 391.048706,118.661186 
	C382.083893,127.401161 373.647278,136.832657 365.997955,146.743347 
	C345.552155,173.233521 330.032867,202.473312 319.092773,234.143509 
	C311.094116,257.298676 305.762238,281.079376 304.344055,305.468140 
	C303.581390,318.584015 304.869751,331.908386 306.226898,345.035889 
	C307.952454,361.726044 314.619293,376.924622 322.930634,391.324921 
	C333.790741,410.141113 347.378387,426.761383 364.665466,440.062958 
	C372.824219,446.340729 381.170013,452.545746 391.471527,455.070557 
	C392.686554,455.368347 394.073486,454.964874 395.380737,454.886444 
	C395.036591,453.566803 395.009247,452.029694 394.283234,450.972229 
	C392.705170,448.673706 390.770630,446.619965 388.464600,443.956787 
M492.989838,210.504730 
	C500.049896,201.447006 506.686890,192.014465 514.287659,183.435806 
	C522.061035,174.662231 530.652527,166.593857 539.120239,158.460739 
	C547.354187,150.552124 555.941956,143.012665 564.230835,135.159622 
	C565.638855,133.825592 566.323792,131.728287 567.342773,129.983597 
	C565.425293,129.360504 563.547546,128.413071 561.583191,128.172501 
	C554.452820,127.299240 548.058044,129.781540 541.723450,132.722702 
	C524.707520,140.623230 510.302887,152.119568 496.072937,164.169510 
	C474.373901,182.544296 457.641724,204.367172 447.262024,230.761719 
	C436.801422,257.361938 430.605133,284.864410 433.152679,313.734802 
	C433.872192,321.888855 434.597443,330.087006 436.097290,338.119843 
	C442.420990,371.988342 458.133545,400.542480 485.536560,421.906464 
	C508.846313,440.079285 534.609680,453.817566 563.012817,462.341125 
	C564.404236,462.758667 566.030151,462.394806 568.908752,462.394806 
	C556.273315,452.696869 545.011963,443.981659 533.673645,435.367737 
	C516.258972,422.137451 500.530243,407.090698 487.421173,389.642700 
	C472.407043,369.659088 462.997650,346.933960 461.134338,321.948883 
	C459.588989,301.227417 460.698608,280.497833 467.671814,260.425476 
	C473.787231,242.822235 482.137909,226.454788 492.989838,210.504730 
M273.858032,172.388367 
	C274.913391,170.166214 275.934265,167.926895 277.029999,165.724808 
	C282.048737,155.638580 287.149506,145.592316 292.049866,135.449066 
	C292.728760,134.043869 292.454285,132.178055 292.736481,129.383286 
	C288.632843,132.369598 285.660828,134.179428 283.100830,136.453156 
	C267.372467,150.422531 255.227585,167.195465 246.146973,186.035233 
	C237.481552,204.013672 231.245102,222.890015 226.975006,242.462402 
	C222.899277,261.143921 221.044800,280.046326 220.204407,299.055481 
	C219.833023,307.456085 220.369888,315.953766 221.199829,324.337555 
	C222.522217,337.695984 223.704468,351.137634 226.256409,364.289856 
	C230.891083,388.176025 238.540680,411.051666 253.057999,431.057281 
	C260.754089,441.662933 270.170837,450.108521 282.873322,454.290588 
	C283.935791,454.640381 285.134918,454.575226 286.928528,454.776855 
	C286.295441,453.037872 286.143555,452.093842 285.660736,451.370819 
	C270.827759,429.157257 259.369843,405.299622 252.867798,379.408325 
	C248.942825,363.779022 245.762711,347.797729 244.225769,331.784760 
	C242.951630,318.509521 243.946640,304.904022 245.070969,291.540283 
	C246.401138,275.729858 248.218903,259.885162 251.137375,244.301010 
	C255.740479,219.721237 263.029602,195.847382 273.858032,172.388367 
M564.138428,295.893585 
	C563.462341,302.254303 562.376770,308.602753 562.186401,314.977997 
	C561.599976,334.612610 570.912415,349.124390 586.500427,360.106354 
	C602.054932,371.064636 619.334412,378.459625 637.534668,383.555664 
	C646.425232,386.044952 655.684875,388.188293 664.996765,385.398682 
	C679.720886,380.987732 690.332214,365.912415 690.708923,349.724152 
	C691.183960,329.311157 690.220886,308.865051 689.897095,288.432953 
	C689.672180,274.245056 687.819336,260.357819 683.027405,246.899551 
	C679.393066,236.692474 669.078064,229.509232 658.232605,228.994492 
	C645.136047,228.372894 633.207764,232.122192 621.836914,237.797943 
	C609.923279,243.744629 599.195679,251.455017 588.989990,260.170532 
	C577.647217,269.857117 569.664001,281.397034 564.138428,295.893585 
M150.096466,285.362579 
	C145.562317,289.060181 143.363312,294.008545 142.013702,299.586700 
	C139.269775,310.927826 136.397491,322.280640 139.159500,333.990784 
	C141.390976,343.451660 143.744781,352.925842 146.848480,362.122742 
	C148.649643,367.459930 152.696762,371.482483 158.551422,373.167999 
	C163.265640,374.525146 165.090958,373.361877 164.846985,368.391510 
	C164.695801,365.311096 163.973434,362.259552 163.522278,359.192902 
	C161.645035,346.432465 159.310623,333.716949 158.044220,320.895996 
	C157.006012,310.385468 157.246399,299.748962 156.909790,289.168610 
	C156.766159,284.653931 155.307434,283.660645 150.096466,285.362579 
M196.802353,272.391144 
	C191.537445,272.444244 185.647583,270.980225 181.127777,272.842072 
	C168.812027,277.915344 162.869629,291.084320 165.059219,304.829773 
	C166.981949,316.900085 178.152283,324.829041 188.928635,323.747894 
	C200.315094,322.605530 210.515366,314.671143 212.718674,299.818451 
	C214.126419,290.328827 209.363342,278.594513 196.802353,272.391144 
z"/>
<path fill="#010101" opacity="1.000000" stroke="none" 
	d="
M388.723206,444.211487 
	C390.770630,446.619965 392.705170,448.673706 394.283234,450.972229 
	C395.009247,452.029694 395.036591,453.566803 395.380737,454.886475 
	C394.073486,454.964874 392.686554,455.368347 391.471527,455.070557 
	C381.170013,452.545746 372.824219,446.340729 364.665466,440.062958 
	C347.378387,426.761383 333.790741,410.141113 322.930634,391.324921 
	C314.619293,376.924622 307.952454,361.726044 306.226898,345.035889 
	C304.869751,331.908386 303.581390,318.584015 304.344055,305.468140 
	C305.762238,281.079376 311.094116,257.298676 319.092773,234.143509 
	C330.032867,202.473312 345.552155,173.233521 365.997955,146.743347 
	C373.647278,136.832657 382.083893,127.401161 391.048706,118.661186 
	C409.157928,101.006142 429.472504,86.360367 453.241974,77.049973 
	C454.829102,76.428299 456.692596,76.512253 458.427551,76.268013 
	C458.850677,76.898209 459.273804,77.528404 459.696930,78.158600 
	C455.111145,83.958939 450.830292,90.035172 445.880127,95.505814 
	C433.104584,109.624626 419.510712,123.032318 407.201080,137.536575 
	C388.155365,159.977966 371.911072,184.387558 359.880310,211.389130 
	C350.275940,232.944962 343.370209,255.263748 339.719330,278.687134 
	C337.092407,295.541138 335.188599,312.418030 336.063263,329.388184 
	C336.839722,344.452881 341.065491,358.946320 346.927490,372.883606 
	C357.337311,397.633545 371.226044,420.352814 387.244141,441.826447 
	C387.729889,442.477661 388.061249,443.244080 388.723206,444.211487 
z"/>
<path fill="#010101" opacity="1.000000" stroke="none" 
	d="
M492.734650,210.767792 
	C482.137909,226.454788 473.787231,242.822235 467.671814,260.425476 
	C460.698608,280.497833 459.588989,301.227417 461.134338,321.948883 
	C462.997650,346.933960 472.407043,369.659088 487.421173,389.642700 
	C500.530243,407.090698 516.258972,422.137451 533.673645,435.367737 
	C545.011963,443.981659 556.273315,452.696869 568.908752,462.394806 
	C566.030151,462.394806 564.404236,462.758667 563.012817,462.341125 
	C534.609680,453.817566 508.846313,440.079285 485.536560,421.906464 
	C458.133545,400.542480 442.420990,371.988342 436.097290,338.119843 
	C434.597443,330.087006 433.872192,321.888855 433.152679,313.734802 
	C430.605133,284.864410 436.801422,257.361938 447.262024,230.761719 
	C457.641724,204.367172 474.373901,182.544296 496.072937,164.169510 
	C510.302887,152.119568 524.707520,140.623230 541.723450,132.722702 
	C548.058044,129.781540 554.452820,127.299240 561.583191,128.172501 
	C563.547546,128.413071 565.425293,129.360504 567.342773,129.983597 
	C566.323792,131.728287 565.638855,133.825592 564.230835,135.159622 
	C555.941956,143.012665 547.354187,150.552124 539.120239,158.460739 
	C530.652527,166.593857 522.061035,174.662231 514.287659,183.435806 
	C506.686890,192.014465 500.049896,201.447006 492.734650,210.767792 
z"/>
<path fill="#020202" opacity="1.000000" stroke="none" 
	d="
M273.628235,172.695068 
	C263.029602,195.847382 255.740479,219.721237 251.137375,244.301010 
	C248.218903,259.885162 246.401138,275.729858 245.070969,291.540283 
	C243.946640,304.904022 242.951630,318.509521 244.225769,331.784760 
	C245.762711,347.797729 248.942825,363.779022 252.867798,379.408325 
	C259.369843,405.299622 270.827759,429.157257 285.660736,451.370819 
	C286.143555,452.093842 286.295441,453.037872 286.928528,454.776855 
	C285.134918,454.575226 283.935791,454.640381 282.873322,454.290588 
	C270.170837,450.108521 260.754089,441.662933 253.057999,431.057281 
	C238.540680,411.051666 230.891083,388.176025 226.256409,364.289856 
	C223.704468,351.137634 222.522217,337.695984 221.199829,324.337555 
	C220.369888,315.953766 219.833023,307.456085 220.204407,299.055481 
	C221.044800,280.046326 222.899277,261.143921 226.975006,242.462402 
	C231.245102,222.890015 237.481552,204.013672 246.146973,186.035233 
	C255.227585,167.195465 267.372467,150.422531 283.100830,136.453156 
	C285.660828,134.179428 288.632843,132.369598 292.736481,129.383286 
	C292.454285,132.178055 292.728760,134.043869 292.049866,135.449066 
	C287.149506,145.592316 282.048737,155.638580 277.029999,165.724808 
	C275.934265,167.926895 274.913391,170.166214 273.628235,172.695068 
z"/>
<path fill="#030302" opacity="1.000000" stroke="none" 
	d="
M564.299988,295.516541 
	C569.664001,281.397034 577.647217,269.857117 588.989990,260.170532 
	C599.195679,251.455017 609.923279,243.744629 621.836914,237.797943 
	C633.207764,232.122192 645.136047,228.372894 658.232605,228.994492 
	C669.078064,229.509232 679.393066,236.692474 683.027405,246.899551 
	C687.819336,260.357819 689.672180,274.245056 689.897095,288.432953 
	C690.220886,308.865051 691.183960,329.311157 690.708923,349.724152 
	C690.332214,365.912415 679.720886,380.987732 664.996765,385.398682 
	C655.684875,388.188293 646.425232,386.044952 637.534668,383.555664 
	C619.334412,378.459625 602.054932,371.064636 586.500427,360.106354 
	C570.912415,349.124390 561.599976,334.612610 562.186401,314.977997 
	C562.376770,308.602753 563.462341,302.254303 564.299988,295.516541 
M598.021423,269.480103 
	C589.687622,277.622833 582.894043,286.803101 580.285828,298.364258 
	C576.381958,315.668610 579.440918,331.275299 592.582642,344.069427 
	C604.073425,355.256287 618.010864,362.380707 632.771240,368.087463 
	C640.496033,371.074036 648.476868,372.705475 656.827576,372.096497 
	C664.479065,371.538513 671.259399,368.945831 673.788696,361.232941 
	C675.996399,354.500305 677.700867,347.309326 677.896362,340.272736 
	C678.273132,326.708832 677.835266,313.084778 676.965271,299.535126 
	C676.211304,287.792145 674.943237,276.017181 672.835449,264.450806 
	C671.599121,257.666565 669.313171,250.513702 663.256592,246.134460 
	C655.535461,240.551727 647.027832,241.543732 638.649902,244.730637 
	C623.813965,250.374069 610.534912,258.631256 598.021423,269.480103 
z"/>
<path fill="#030303" opacity="1.000000" stroke="none" 
	d="
M150.388214,285.125610 
	C155.307434,283.660645 156.766159,284.653931 156.909790,289.168610 
	C157.246399,299.748962 157.006012,310.385468 158.044220,320.895996 
	C159.310623,333.716949 161.645035,346.432465 163.522278,359.192902 
	C163.973434,362.259552 164.695801,365.311096 164.846985,368.391510 
	C165.090958,373.361877 163.265640,374.525146 158.551422,373.167999 
	C152.696762,371.482483 148.649643,367.459930 146.848480,362.122742 
	C143.744781,352.925842 141.390976,343.451660 139.159500,333.990784 
	C136.397491,322.280640 139.269775,310.927826 142.013702,299.586700 
	C143.363312,294.008545 145.562317,289.060181 150.388214,285.125610 
z"/>
<path fill="#040404" opacity="1.000000" stroke="none" 
	d="
M197.110413,272.640991 
	C209.363342,278.594513 214.126419,290.328827 212.718674,299.818451 
	C210.515366,314.671143 200.315094,322.605530 188.928635,323.747894 
	C178.152283,324.829041 166.981949,316.900085 165.059219,304.829773 
	C162.869629,291.084320 168.812027,277.915344 181.127777,272.842072 
	C185.647583,270.980225 191.537445,272.444244 197.110413,272.640991 
M202.798508,292.286102 
	C201.209610,287.665344 198.878952,283.660339 193.967743,281.870544 
	C187.802444,279.623779 179.288528,281.086334 176.297821,285.443481 
	C171.647644,292.218292 169.909348,299.957123 174.234451,307.522003 
	C178.078964,314.246368 185.175751,317.529449 191.502396,315.835907 
	C199.625793,313.661407 203.074020,308.834259 203.077713,299.607819 
	C203.078568,297.448029 203.040680,295.288269 202.798508,292.286102 
z"/>
<path fill="#3EC0EC" opacity="1.000000" stroke="none" 
	d="
M598.277954,269.232147 
	C610.534912,258.631256 623.813965,250.374069 638.649902,244.730637 
	C647.027832,241.543732 655.535461,240.551727 663.256592,246.134460 
	C669.313171,250.513702 671.599121,257.666565 672.835449,264.450806 
	C674.943237,276.017181 676.211304,287.792145 676.965271,299.535126 
	C677.835266,313.084778 678.273132,326.708832 677.896362,340.272736 
	C677.700867,347.309326 675.996399,354.500305 673.788696,361.232941 
	C671.259399,368.945831 664.479065,371.538513 656.827576,372.096497 
	C648.476868,372.705475 640.496033,371.074036 632.771240,368.087463 
	C618.010864,362.380707 604.073425,355.256287 592.582642,344.069427 
	C579.440918,331.275299 576.381958,315.668610 580.285828,298.364258 
	C582.894043,286.803101 589.687622,277.622833 598.277954,269.232147 
z"/>
<path fill="#3EC0EC" opacity="1.000000" stroke="none" 
	d="
M202.909576,292.707275 
	C203.040680,295.288269 203.078568,297.448029 203.077713,299.607819 
	C203.074020,308.834259 199.625793,313.661407 191.502396,315.835907 
	C185.175751,317.529449 178.078964,314.246368 174.234451,307.522003 
	C169.909348,299.957123 171.647644,292.218292 176.297821,285.443481 
	C179.288528,281.086334 187.802444,279.623779 193.967743,281.870544 
	C198.878952,283.660339 201.209610,287.665344 202.909576,292.707275 
z"/>
</svg>