<svg version="1.1" id="Layer_1" xmlns="http://www.w3.org/2000/svg" xmlns:xlink="http://www.w3.org/1999/xlink" x="0px" y="0px"
	 width="100%" viewBox="0 0 700 563" enable-background="new 0 0 700 563" xml:space="preserve">
<path fill="#000000" opacity="1.000000" stroke="none" 
	d="
M427.000000,564.000000 
	C284.666687,564.000000 142.833389,564.000000 1.000057,564.000000 
	C1.000038,376.333405 1.000038,188.666779 1.000019,1.000133 
	C234.333237,1.000088 467.666473,1.000088 700.999756,1.000044 
	C700.999878,188.666519 700.999878,376.333038 700.999939,563.999756 
	C609.833313,564.000000 518.666687,564.000000 427.000000,564.000000 
M360.404572,26.872219 
	C360.201050,26.408489 359.997528,25.944761 359.878784,25.538324 
	C359.878784,25.538324 359.776459,25.536299 360.357391,25.089220 
	C360.559937,24.673746 360.762451,24.258272 360.963959,23.942778 
	C360.963959,23.942778 360.864044,23.938940 361.486847,23.926884 
	C361.636353,23.572304 361.785828,23.217724 361.942261,22.949224 
	C361.942261,22.949224 361.855988,22.952932 362.591858,22.857588 
	C363.036743,21.526676 363.481628,20.195765 363.933777,18.946600 
	C363.933777,18.946600 363.851807,18.950180 364.521881,18.914675 
	C366.563019,16.216335 368.933075,13.696061 370.525421,10.754763 
	C371.526031,8.906463 372.181335,6.428891 367.885071,6.781923 
	C362.995789,7.183688 360.140442,10.158961 357.063965,13.064454 
	C357.063965,13.064454 357.170990,13.064900 356.460785,13.112183 
	C354.687622,15.079668 352.914429,17.047153 350.862610,19.640825 
	C347.017670,24.859858 343.172699,30.078888 339.139557,35.518410 
	C339.010773,35.679798 338.952271,35.863670 338.939270,35.974022 
	C338.939270,35.974022 339.034515,35.946598 338.358826,36.179565 
	C327.598694,53.243973 321.575745,71.929520 321.152100,92.014694 
	C320.878235,104.999382 321.732147,118.009911 326.552277,130.533005 
	C330.456085,140.675537 333.171356,151.275558 336.672821,162.503189 
	C335.231567,162.914062 333.519073,163.685379 331.750519,163.848419 
	C327.884766,164.204773 323.991821,164.328384 320.107391,164.395905 
	C317.933594,164.433701 315.704407,164.416855 313.588501,163.988358 
	C309.440186,163.148300 305.378876,161.416687 301.230652,161.238342 
	C299.240234,161.152771 297.133789,163.765442 295.073730,165.079224 
	C295.073730,165.079224 295.150879,165.077682 294.522339,165.079514 
	C294.374939,165.437469 294.227539,165.795441 294.068512,166.045624 
	C294.068512,166.045624 294.176605,166.037537 293.401001,166.209793 
	C293.237183,166.809708 293.073364,167.409622 293.007080,168.007355 
	C293.007080,168.007355 293.005341,167.909805 292.397430,167.390762 
	C283.774536,177.488510 278.745911,189.399918 274.292786,202.310669 
	C274.170135,203.214355 274.047485,204.118042 274.016571,205.018707 
	C274.016571,205.018707 274.014923,204.926926 273.367859,204.492722 
	C269.206970,213.654236 265.046082,222.815765 260.247162,232.268555 
	C258.519257,235.900955 256.791351,239.533371 255.060638,243.060638 
	C255.060638,243.060638 255.165802,243.061554 254.442490,243.124527 
	C250.977997,248.473969 247.513519,253.823395 244.052200,259.070526 
	C244.052200,259.070526 244.154343,259.077423 243.526245,259.078064 
	C243.377594,259.434906 243.228958,259.791748 243.076248,260.061188 
	C243.076248,260.061188 243.163742,260.061310 242.451523,260.118164 
	C239.657944,263.802338 236.864365,267.486511 234.063354,271.078552 
	C234.063354,271.078552 234.155746,271.075409 233.525650,271.074982 
	C233.373306,271.432495 233.220947,271.790009 233.066635,272.055542 
	C233.066635,272.055542 233.158630,272.057312 232.481354,272.086487 
	C231.673203,273.109772 230.865051,274.133057 230.053482,275.050446 
	C230.053482,275.050446 230.159439,275.050140 229.457962,275.104675 
	C227.990906,277.125427 226.523849,279.146149 225.053116,281.073120 
	C225.053116,281.073120 225.146973,281.073273 224.520370,281.079041 
	C224.375000,281.436157 224.229645,281.793243 224.088974,282.071594 
	C224.088974,282.071594 224.167252,282.081146 223.444901,282.011261 
	C221.616089,283.974457 219.787277,285.937683 217.327621,288.179321 
	C215.572144,289.842438 213.816666,291.505585 212.064224,293.070679 
	C212.064224,293.070679 212.162033,293.077850 211.382095,293.004608 
	C210.558960,294.000366 209.735825,294.996124 208.999802,295.998566 
	C208.999802,295.998566 209.006256,295.911407 208.401611,295.386993 
	C198.924194,301.922485 189.423294,308.424377 179.987213,315.019012 
	C177.848633,316.513611 175.935104,318.330200 174.010223,320.008911 
	C174.010223,320.008911 174.021164,319.916748 173.698532,319.249115 
	C172.808838,319.874664 171.919159,320.500214 171.027542,321.035950 
	C171.027542,321.035950 171.117325,321.035919 170.336884,321.001434 
	C164.749756,323.398529 159.122162,325.707184 153.594894,328.235168 
	C151.295578,329.286743 149.210236,330.806213 147.024872,332.043030 
	C147.024872,332.043030 147.094528,332.049438 146.387802,331.852325 
	C145.238617,331.898987 144.035583,331.739685 142.948456,332.023773 
	C130.409149,335.300720 118.006996,339.234497 105.327515,341.806030 
	C92.541496,344.399231 79.523537,346.116974 66.358887,344.050751 
	C60.394096,343.114563 54.340641,342.727203 48.389900,341.721191 
	C38.103138,339.982086 28.853928,335.598389 19.794159,330.521332 
	C17.121796,329.023712 13.151981,326.710785 9.521450,331.034302 
	C9.292013,331.343506 9.062576,331.652710 8.209766,332.325562 
	C6.182489,337.955841 9.613492,345.729889 15.020525,347.970856 
	C15.020525,347.970856 15.014923,347.879730 15.116899,348.575836 
	C17.800688,351.695770 20.484476,354.815735 23.052670,357.942505 
	C23.052670,357.942505 23.049179,357.826782 23.154236,358.580353 
	C23.771938,358.751312 24.389641,358.922302 25.001907,358.998749 
	C25.001907,358.998749 24.907341,359.003998 24.595060,359.711975 
	C25.436638,360.128296 26.278217,360.544617 27.025833,360.968079 
	C27.025833,360.968079 27.020470,360.873993 27.111887,361.572235 
	C29.213167,365.857269 32.792229,368.370209 37.065323,369.951202 
	C37.065323,369.951202 37.063202,369.863342 37.072769,370.487518 
	C37.428375,370.634857 37.783978,370.782227 38.045361,370.932007 
	C38.045361,370.932007 38.046391,370.837738 38.101513,371.531128 
	C39.103271,372.010590 40.105026,372.490051 41.011986,372.973053 
	C41.011986,372.973053 41.009705,372.878204 41.150032,373.574402 
	C42.780521,374.399353 44.411007,375.224335 45.944000,376.027405 
	C45.944000,376.027405 45.963215,375.929382 46.000446,376.227386 
	C46.079632,376.408997 46.187336,376.571716 47.117317,376.917328 
	C53.409847,380.667816 59.702381,384.418335 66.225395,388.723511 
	C66.870857,389.130066 67.516312,389.536652 68.054916,389.940125 
	C68.054916,389.940125 68.061470,389.833435 68.055077,390.468719 
	C69.067856,390.632324 70.080635,390.795959 71.013275,390.970673 
	C71.013275,390.970673 71.003510,390.890350 71.124939,391.541962 
	C72.782722,392.345367 74.440498,393.148743 76.016907,393.966827 
	C76.016907,393.966827 76.003784,393.885193 76.164986,394.593597 
	C77.811935,395.384369 79.458885,396.175110 81.013283,396.975464 
	C81.013283,396.975464 81.004860,396.882782 81.167076,397.591888 
	C82.814224,398.381622 84.461372,399.171356 86.021317,399.968536 
	C86.021317,399.968536 86.015465,399.881195 86.126923,400.585022 
	C87.144112,401.009613 88.161308,401.434204 89.094559,401.880707 
	C89.094559,401.880707 89.078949,401.795349 89.170555,402.510223 
	C92.154625,403.993896 95.138695,405.477570 98.030281,406.957855 
	C98.030281,406.957855 98.035843,406.865479 98.113136,407.591888 
	C102.117668,409.751801 106.067314,412.023285 110.146973,414.030426 
	C112.661652,415.267639 115.374641,416.101746 118.237648,417.762085 
	C119.857437,418.503021 121.477226,419.243927 123.001511,419.996094 
	C123.001511,419.996094 122.990433,419.900543 123.165405,420.600037 
	C138.791321,428.058167 154.256378,435.881439 170.094254,442.858429 
	C182.670181,448.398407 195.635941,453.084503 208.555084,457.803497 
	C217.302826,460.998749 226.301880,463.499115 235.128006,466.488953 
	C241.445251,468.628906 247.616837,471.199524 253.936981,473.330048 
	C259.953003,475.358032 266.077423,477.064392 272.064056,478.924438 
	C272.064056,478.924438 272.056030,478.833862 272.114471,479.544586 
	C274.114197,483.529694 275.937103,487.617371 278.170654,491.466827 
	C279.900757,494.448578 282.144440,497.132355 284.063995,499.947968 
	C284.063995,499.947968 284.068054,499.852234 284.061707,500.477417 
	C285.421417,500.962952 286.781128,501.448486 288.063538,501.939728 
	C288.063538,501.939728 288.061646,501.862213 288.073761,502.486359 
	C288.429321,502.634827 288.784912,502.783295 289.044037,502.933624 
	C289.044037,502.933624 289.045502,502.837189 289.095184,503.521271 
	C290.076080,504.031342 291.056976,504.541412 291.943481,505.027283 
	C291.943481,505.027283 291.965118,504.932281 291.961365,505.160645 
	C291.961365,505.160645 292.164093,505.542664 292.929443,505.901550 
	C295.001099,510.594574 297.072754,515.287598 299.055267,520.746704 
	C300.694397,525.323120 302.171967,529.966248 304.023621,534.454956 
	C305.508484,538.054504 307.447266,541.466797 309.057037,544.957825 
	C309.057037,544.957825 309.064484,544.830383 309.117126,545.491394 
	C309.797058,545.968689 310.476990,546.445923 311.058929,546.927795 
	C311.058929,546.927795 311.058411,546.829651 311.108246,547.537109 
	C312.443207,548.344788 313.778168,549.152527 315.020721,549.971008 
	C315.020721,549.971008 315.011475,549.878479 315.164062,550.591736 
	C320.669250,555.829224 331.910034,556.706299 337.817017,552.301636 
	C338.073822,552.110107 337.913055,551.358582 337.954559,550.950867 
	C337.954559,550.950867 337.871399,550.955750 338.543915,550.901184 
	C343.093781,546.329834 339.230957,541.577637 338.412811,537.162048 
	C337.409546,531.747314 334.697998,526.668762 333.329865,521.290955 
	C332.867279,519.472656 333.620789,516.138672 334.930389,515.354675 
	C336.962463,514.138184 339.941803,514.321472 342.528992,514.249634 
	C350.093750,514.039429 357.666229,513.811768 365.230011,513.936035 
	C374.202850,514.083374 383.169800,514.590088 392.041870,514.945740 
	C392.041870,514.945740 392.040131,514.848206 392.104523,515.551147 
	C394.372406,519.759888 397.538483,523.757263 398.596252,528.250854 
	C399.316040,531.308594 396.700958,535.012695 396.258118,538.513916 
	C395.518738,544.359558 393.315125,550.361206 396.983856,556.766724 
	C397.628540,557.543457 398.273224,558.320251 399.214172,559.696045 
	C406.609375,562.517517 412.846222,560.857117 417.952911,554.941895 
	C417.952911,554.941895 417.862396,554.931641 418.575989,555.005859 
	C419.365082,554.283936 420.154175,553.562012 420.947174,552.944092 
	C420.947174,552.944092 420.843079,552.944641 421.494568,552.883240 
	C421.977936,552.201904 422.461304,551.520630 422.938873,550.952698 
	C422.938873,550.952698 422.825684,550.943665 423.531586,550.899597 
	C426.207031,546.606262 429.923065,542.622314 431.313019,537.946899 
	C433.376373,531.006165 434.372742,523.604553 434.732880,516.345093 
	C435.039093,510.173218 436.792908,505.886810 442.761017,503.534302 
	C444.389709,502.892303 445.564484,501.098724 446.943848,499.931061 
	C446.943848,499.931061 446.846649,499.923553 447.474518,499.921875 
	C447.622864,499.565002 447.771179,499.208160 447.925507,498.923676 
	C447.925507,498.923676 447.852875,498.922089 448.511566,498.909668 
	C451.018463,492.637543 453.525330,486.365448 456.623840,479.853119 
	C457.066498,479.177948 457.509155,478.502808 457.950867,477.943359 
	C457.950867,477.943359 457.835205,477.939240 458.552063,477.899689 
	C462.394501,474.600159 466.236938,471.300629 469.993439,467.994995 
	C469.993439,467.994995 469.987030,468.080933 470.732269,468.399872 
	C471.307251,467.539032 471.882233,466.678192 472.405060,465.868591 
	C472.405060,465.868591 472.370636,465.804108 472.871399,466.275116 
	C473.958710,465.204651 475.046021,464.134186 476.725281,463.229034 
	C477.474640,462.447540 478.223999,461.666016 478.985352,460.983765 
	C478.985352,460.983765 478.885956,460.994843 479.564575,460.861084 
	C480.692566,459.855469 481.820587,458.849823 482.951324,457.936401 
	C482.951324,457.936401 482.859100,457.935699 483.485596,457.923431 
	C483.633942,457.565918 483.782288,457.208435 483.937622,456.949463 
	C483.937622,456.949463 483.838928,456.953033 484.528198,456.861176 
	C485.667267,455.851593 486.806335,454.842010 487.942505,453.941254 
	C487.942505,453.941254 487.833801,453.934875 488.533936,453.900696 
	C489.673981,452.884430 490.814026,451.868134 491.957123,450.959778 
	C491.957123,450.959778 491.849182,450.960297 492.560333,450.892517 
	C496.651337,447.592072 500.742310,444.291626 504.987823,440.459961 
	C504.991821,440.275574 504.995850,440.091187 504.992279,439.988403 
	C504.992279,439.988403 504.910767,439.980164 505.561676,440.137573 
	C505.832977,440.311218 506.205536,440.700775 506.361206,440.627777 
	C519.191956,434.612152 532.017700,428.585327 544.786743,422.440521 
	C545.445007,422.123749 545.606628,420.775055 545.994385,419.989777 
	C545.994385,419.989777 545.911438,419.984222 546.573242,420.119476 
	C550.038025,418.373566 553.502869,416.627625 556.971130,414.951508 
	C556.971130,414.951508 556.901733,414.942993 557.556274,415.116455 
	C562.156616,413.357819 566.894958,411.889282 571.328613,409.780151 
	C580.565430,405.386047 589.663391,400.696930 598.777893,396.049469 
	C614.396545,388.085480 630.045959,380.177002 645.534119,371.965363 
	C648.719849,370.276306 651.254822,367.359833 654.002930,365.004700 
	C654.002930,365.004700 653.998901,365.091492 654.684998,365.457428 
	C658.383667,361.982330 662.082336,358.507233 666.091309,354.413879 
	C671.452209,348.256592 676.813171,342.099274 682.765869,335.659027 
	C690.157959,329.430542 691.531494,319.973969 695.291504,311.820892 
	C695.525208,311.314209 692.757324,308.348145 691.842773,308.554199 
	C683.325256,310.473236 674.930786,312.928497 666.453796,315.040558 
	C660.335266,316.564972 654.145630,317.804077 647.259216,319.056946 
	C646.677917,319.425018 646.096619,319.793121 645.500488,320.037598 
	C645.500488,320.037598 645.548706,320.152405 644.960144,319.698547 
	C640.323364,320.097870 635.686584,320.497192 630.753723,320.295441 
	C626.492249,320.213135 622.227112,320.213104 617.970215,320.026428 
	C613.309753,319.822021 608.656860,319.445129 603.396606,318.871552 
	C594.753479,316.654541 586.132874,314.343506 577.457031,312.263092 
	C573.555298,311.327545 569.543213,310.852753 565.020996,309.592041 
	C561.017395,308.004730 557.013733,306.417419 552.969360,304.117004 
	C549.642700,302.714539 546.316101,301.312073 542.997681,300.001007 
	C542.997681,300.001007 543.089050,299.993164 543.683716,299.565247 
	C541.081665,298.397095 538.479614,297.228943 535.964294,296.049530 
	C535.964294,296.049530 535.973022,296.136566 535.834229,295.419037 
	C531.611023,292.840515 527.468689,290.115509 523.140137,287.728027 
	C519.412292,285.671875 515.472351,284.000397 510.860809,282.013336 
	C504.602875,277.975311 498.344971,273.937256 491.838348,269.306030 
	C490.838287,268.554443 489.838226,267.802856 488.951050,267.046936 
	C488.951050,267.046936 488.952515,267.159882 488.842957,266.437866 
	C486.842743,265.310547 484.842529,264.183197 482.948029,263.053345 
	C482.948029,263.053345 482.947388,263.159088 482.881073,262.440247 
	C480.223602,260.959473 477.566162,259.478668 475.009918,257.989746 
	C475.009918,257.989746 475.018677,258.090912 474.883270,257.451843 
	C474.203339,256.987610 473.523376,256.523407 472.950592,256.054840 
	C472.950592,256.054840 472.951813,256.162079 472.897675,255.463272 
	C470.207733,253.325180 467.517822,251.187088 464.929749,249.051620 
	C464.929749,249.051620 464.923401,249.153275 464.921906,248.525421 
	C464.565063,248.377304 464.208191,248.229202 463.938202,248.077011 
	C463.938202,248.077011 463.938080,248.163940 463.880890,247.449310 
	C461.865631,246.320419 459.850403,245.191544 457.951019,244.068024 
	C457.951019,244.068024 457.942169,244.183685 457.908081,243.471924 
	C456.901733,242.992981 455.895355,242.514038 454.980133,242.027252 
	C454.980133,242.027252 454.986542,242.118484 454.883392,241.471832 
	C454.207092,240.997482 453.530792,240.523117 452.965118,240.046570 
	C452.965118,240.046570 452.964874,240.157242 452.922211,239.487183 
	C451.605835,238.372330 450.289459,237.257477 448.452423,235.984360 
	C448.271271,235.993240 448.090088,236.002121 447.998627,236.003494 
	C447.998627,236.003494 448.005981,236.093246 447.885559,235.408600 
	C446.202240,233.629486 444.518951,231.850372 442.912720,230.067093 
	C442.912720,230.067093 442.912292,230.144287 442.921967,229.518738 
	C442.565582,229.378601 442.209198,229.238464 441.928192,229.095428 
	C441.928192,229.095428 441.925995,229.170822 441.891449,228.462860 
	C439.896393,226.648026 437.901337,224.833191 435.984802,223.016693 
	C435.984802,223.016693 435.985474,223.095200 435.994537,222.399048 
	C435.299683,221.594345 434.604828,220.789642 434.012360,219.987885 
	C434.012360,219.987885 434.010193,220.090302 433.910858,219.471268 
	C432.899445,218.330826 431.888031,217.190399 430.959045,216.048569 
	C430.959045,216.048569 430.957703,216.130981 430.982300,215.587616 
	C430.707367,215.375595 430.432434,215.163574 430.020508,214.234604 
	C427.960327,211.513107 425.900177,208.791595 423.922211,206.066940 
	C423.922211,206.066940 423.920959,206.149155 423.987885,205.364685 
	C423.273987,204.600876 422.560089,203.837067 421.942413,203.065796 
	C421.942413,203.065796 421.946136,203.162216 421.914490,202.521118 
	C420.233368,200.353851 418.552277,198.186584 416.982849,196.027618 
	C416.982849,196.027618 416.973236,196.139221 416.987671,195.488358 
	C416.658264,195.046585 416.328857,194.604797 415.371429,193.872864 
	C412.191467,189.373230 409.011536,184.873596 406.019287,179.697647 
	C403.350616,175.769165 400.681946,171.840668 398.009521,167.992508 
	C398.009521,167.992508 398.089905,167.995743 398.441101,167.309860 
	C396.929138,165.877670 395.417175,164.445465 393.993835,163.008209 
	C393.993835,163.008209 393.998444,163.096817 393.936157,162.533035 
	C393.640503,162.313904 393.344818,162.094772 392.734406,161.241409 
	C391.701447,160.489288 390.759766,159.537766 389.621063,159.016739 
	C380.829590,154.994156 372.275360,157.566437 363.472931,160.121674 
	C363.472931,160.121674 363.225281,160.036545 362.836121,159.393753 
	C359.502563,157.947998 356.169037,156.502258 352.945404,155.054138 
	C352.945404,155.054138 352.944489,155.164078 352.883087,154.449661 
	C346.577698,147.364334 347.347687,137.998138 345.173035,129.641968 
	C343.009094,121.327156 342.906311,112.453140 340.518890,104.224976 
	C337.418121,93.538193 336.934631,83.217155 339.895508,72.510422 
	C342.825134,61.916729 344.689941,51.011547 351.440247,41.818447 
	C353.118317,39.533123 353.806580,36.521004 354.951538,33.952869 
	C354.951538,33.952869 354.841583,33.951729 355.566864,33.880207 
	C356.695679,31.867466 357.824493,29.854725 358.954193,27.943203 
	C358.954193,27.943203 358.852997,27.941021 359.488800,27.920530 
	C359.614838,27.554701 359.740875,27.188871 359.888214,26.910913 
	C359.888214,26.910913 359.799103,26.926199 360.404572,26.872219 
z"/>
<path fill="#3EC0EC" opacity="1.000000" stroke="none" 
	d="
M492.087067,269.899200 
	C498.344971,273.937256 504.602875,277.975311 511.395874,282.347900 
	C514.303772,284.306000 516.557861,286.149139 519.073547,287.508148 
	C524.636902,290.513519 530.331787,293.275391 535.973022,296.136566 
	C535.973022,296.136566 535.964294,296.049530 535.842957,296.420837 
	C538.177429,297.859161 540.633240,298.926178 543.089050,299.993164 
	C543.089050,299.993164 542.997681,300.001007 543.078735,300.312500 
	C546.443176,302.026001 549.726685,303.428040 553.010132,304.830109 
	C557.013733,306.417419 561.017395,308.004730 565.496704,310.146912 
	C567.812988,311.304291 569.620117,312.052551 571.499878,312.485138 
	C582.323181,314.975830 593.163696,317.391815 604.415588,319.918213 
	C613.550842,320.572327 622.268860,321.141418 631.430420,321.725708 
	C636.432129,321.211395 640.990417,320.681915 645.548706,320.152405 
	C645.548706,320.152405 645.500488,320.037598 645.923096,320.243347 
	C646.898132,320.271912 647.450562,320.094727 648.434204,319.956696 
	C652.263855,319.536591 655.726257,319.349731 659.049011,318.568451 
	C670.289856,315.925507 681.481140,313.071899 693.144958,310.186646 
	C692.823792,311.525360 692.741394,312.490143 692.368713,313.325439 
	C688.999390,320.877167 685.579346,328.406250 682.174133,335.941956 
	C676.813171,342.099274 671.452209,348.256592 665.592407,354.723419 
	C661.395386,358.385803 657.697144,361.738647 653.998901,365.091492 
	C653.998901,365.091492 654.002930,365.004700 653.675049,365.009583 
	C650.998047,366.403503 648.706604,367.902832 646.290771,369.163879 
	C627.807007,378.812439 609.332397,388.479828 590.785950,398.006927 
	C579.554871,403.776215 568.200623,409.305756 556.901733,414.942993 
	C556.901733,414.942993 556.971130,414.951508 556.596802,414.797607 
	C552.785522,416.423889 549.348511,418.204071 545.911438,419.984253 
	C545.911438,419.984222 545.994385,419.989777 545.611328,419.919159 
	C531.789062,426.559082 518.349915,433.269623 504.910767,439.980164 
	C504.910767,439.980164 504.992279,439.988403 504.695190,439.933411 
	C504.214111,440.231110 504.030060,440.583862 503.495758,440.970947 
	C500.503510,443.091705 497.806061,445.112854 495.243195,447.292297 
	C493.983276,448.363708 492.972656,449.728363 491.849182,450.960327 
	C491.849182,450.960297 491.957123,450.959778 491.615112,450.675659 
	C490.126648,451.572662 488.980225,452.753784 487.833801,453.934875 
	C487.833801,453.934875 487.942505,453.941254 487.601562,453.668213 
	C486.120026,454.581116 484.979462,455.767059 483.838928,456.953033 
	C483.838928,456.953033 483.937622,456.949463 483.542786,456.760895 
	C483.051666,457.026764 482.955383,457.481232 482.859070,457.935699 
	C482.859100,457.935699 482.951324,457.936401 482.616119,457.659790 
	C481.149261,458.587097 480.017609,459.790955 478.885956,460.994843 
	C478.885956,460.994843 478.985352,460.983765 478.636597,460.810303 
	C477.217987,461.430359 476.148071,462.223816 474.836914,463.283020 
	C473.853943,464.300568 473.112274,465.052307 472.370605,465.804077 
	C472.370636,465.804108 472.405060,465.868591 472.056335,465.737396 
	C471.134094,466.431122 470.560577,467.256012 469.987030,468.080933 
	C469.987030,468.080933 469.993439,467.994995 469.673950,467.998901 
	C467.126129,469.604950 464.785339,471.075195 462.703796,472.849579 
	C460.926331,474.364746 459.446625,476.229248 457.835205,477.939240 
	C457.835205,477.939240 457.950867,477.943359 457.712219,477.601501 
	C456.751587,478.178772 456.029602,479.097870 455.106781,480.309906 
	C449.087280,485.374176 448.540222,492.175140 447.852875,498.922089 
	C447.852875,498.922089 447.925507,498.923676 447.536194,498.748047 
	C447.046814,499.022797 446.946747,499.473175 446.846680,499.923553 
	C446.846649,499.923553 446.943848,499.931061 446.603210,499.667786 
	C445.302643,500.016846 444.419678,500.908081 443.370636,501.197601 
	C434.799774,503.563263 432.916809,509.801544 432.879852,517.771240 
	C432.853455,523.459412 432.434418,529.384827 430.763031,534.760620 
	C429.000519,540.429626 425.542786,545.571472 422.825684,550.943665 
	C422.825684,550.943665 422.938873,550.952698 422.574158,550.705322 
	C421.753967,551.286804 421.298523,552.115723 420.843079,552.944641 
	C420.843079,552.944641 420.947174,552.944092 420.577271,552.697998 
	C419.425751,553.278564 418.644073,554.105103 417.862396,554.931641 
	C417.862396,554.931641 417.952911,554.941895 417.625488,554.657776 
	C412.092316,558.230286 406.523193,560.399536 399.811310,557.967407 
	C399.630798,557.834290 399.186493,557.772217 399.166626,557.835938 
	C399.146759,557.899597 399.278809,557.918762 399.174622,557.632507 
	C398.749969,557.108582 398.429535,556.870972 398.080750,556.438599 
	C398.052429,556.243896 397.737518,556.007935 397.575226,555.625732 
	C396.157410,547.992371 397.432312,541.054199 399.469086,534.062683 
	C401.860229,525.854797 398.493378,517.813416 392.040131,514.848206 
	C392.040131,514.848206 392.041870,514.945740 392.282288,514.571716 
	C387.661041,513.141052 382.811707,511.264069 377.935333,511.190979 
	C366.221893,511.015564 354.497589,511.806854 342.774261,511.980988 
	C331.680847,512.145813 328.545441,516.514709 332.423981,526.900879 
	C332.705780,527.655396 333.239044,528.315735 333.523315,529.069641 
	C336.182861,536.122375 339.031006,543.142883 337.871399,550.955750 
	C337.871399,550.955750 337.954559,550.950867 337.558716,550.772949 
	C329.640198,554.650696 322.288147,553.429321 315.011475,549.878479 
	C315.011475,549.878479 315.020721,549.971008 315.081116,549.596130 
	C313.780457,548.424072 312.419434,547.626892 311.058411,546.829651 
	C311.058411,546.829651 311.058929,546.927795 311.294159,546.561279 
	C310.707764,545.739929 309.886139,545.285156 309.064484,544.830383 
	C309.064484,544.830383 309.057037,544.957825 309.388123,544.642334 
	C307.769348,539.165588 305.958069,533.946045 303.817902,528.864929 
	C302.523743,525.792419 300.719513,522.934753 299.144440,519.980591 
	C297.072754,515.287598 295.001099,510.594574 292.610962,505.602875 
	C292.321960,505.059723 292.212830,504.935760 291.965118,504.932281 
	C291.965118,504.932281 291.943481,505.027283 291.942474,504.663666 
	C290.976135,503.812439 290.010834,503.324799 289.045502,502.837189 
	C289.045502,502.837189 289.044037,502.933624 289.235840,502.540985 
	C288.972321,502.052948 288.516998,501.957581 288.061646,501.862213 
	C288.061646,501.862213 288.063538,501.939728 288.274231,501.551727 
	C287.012604,500.726562 285.540344,500.289398 284.068054,499.852234 
	C284.068054,499.852234 284.063995,499.947968 284.351440,499.626343 
	C282.757568,495.437805 281.137451,491.412292 278.915955,487.751770 
	C276.982025,484.565125 274.368988,481.790527 272.056030,478.833862 
	C272.056030,478.833862 272.064056,478.924438 272.291565,478.559570 
	C272.295319,477.949677 272.116760,477.572388 271.841461,477.478363 
	C254.600220,471.591522 237.258759,465.983215 220.128189,459.791351 
	C202.406219,453.385712 184.819000,446.589661 167.309601,439.620728 
	C158.261993,436.019714 149.519623,431.654205 140.622742,427.671173 
	C134.760605,425.046814 128.868896,422.488464 122.990433,419.900543 
	C122.990433,419.900543 123.001511,419.996094 123.037270,419.643188 
	C121.693695,418.531891 120.314354,417.773529 118.702911,416.746887 
	C116.057419,415.232147 113.683838,413.899811 111.221878,412.758087 
	C106.854828,410.732849 102.434113,408.823364 98.035843,406.865479 
	C98.035843,406.865479 98.030281,406.957855 98.323868,406.633392 
	C95.437950,404.804413 92.258446,403.299896 89.078949,401.795349 
	C89.078949,401.795349 89.094559,401.880707 89.255638,401.492371 
	C88.282967,400.696411 87.149223,400.288788 86.015472,399.881165 
	C86.015465,399.881195 86.021317,399.968536 86.078918,399.595734 
	C84.425972,398.442902 82.715408,397.662842 81.004852,396.882782 
	C81.004860,396.882782 81.013283,396.975464 81.021652,396.610352 
	C79.354614,395.458557 77.679199,394.671875 76.003784,393.885193 
	C76.003784,393.885193 76.016907,393.966827 76.011429,393.603394 
	C74.338470,392.456726 72.670982,391.673553 71.003502,390.890381 
	C71.003510,390.890350 71.013275,390.970673 70.929047,390.597046 
	C69.917046,390.093384 68.989258,389.963409 68.061470,389.833435 
	C68.061470,389.833435 68.054916,389.940125 68.332550,389.615265 
	C67.738426,388.916534 66.866676,388.542664 65.994919,388.168823 
	C59.702381,384.418335 53.409847,380.667816 46.738174,376.652924 
	C46.375977,376.107819 46.244038,375.954773 45.963215,375.929382 
	C45.963215,375.929382 45.944000,376.027405 45.964706,375.674072 
	C44.326843,374.506592 42.668274,373.692383 41.009705,372.878204 
	C41.009705,372.878204 41.011986,372.973053 41.008537,372.596252 
	C40.018860,371.758911 39.032623,371.298309 38.046391,370.837738 
	C38.046391,370.837738 38.045361,370.932007 38.236446,370.539917 
	C37.972755,370.053009 37.517979,369.958160 37.063202,369.863342 
	C37.063202,369.863342 37.065323,369.951202 37.351044,369.630707 
	C34.098003,366.498138 30.559238,363.686066 27.020473,360.873993 
	C27.020470,360.873993 27.025833,360.968079 27.170712,360.627808 
	C26.512840,359.859680 25.710091,359.431854 24.907341,359.003998 
	C24.907341,359.003998 25.001907,358.998749 24.902266,358.670746 
	C24.218142,358.170776 23.633659,357.998779 23.049179,357.826782 
	C23.049179,357.826782 23.052670,357.942505 23.342117,357.617920 
	C20.759352,354.155457 17.887140,351.017578 15.014925,347.879730 
	C15.014923,347.879730 15.020525,347.970856 15.122564,347.598419 
	C11.294420,342.891541 7.571728,338.470215 8.833138,331.961914 
	C9.062576,331.652710 9.292013,331.343506 10.223646,330.999939 
	C14.211064,331.746765 17.847620,331.873535 20.723398,333.417389 
	C37.023403,342.168182 54.494511,345.977814 72.804321,346.600189 
	C88.349686,347.128601 103.684792,345.084290 118.705650,341.485107 
	C128.367523,339.169983 137.644852,335.250092 147.094543,332.049438 
	C147.094528,332.049438 147.024872,332.043030 147.420013,332.158508 
	C155.542542,328.977539 163.273483,325.689270 170.977402,322.338867 
	C171.175476,322.252716 171.077332,321.485504 171.117325,321.035919 
	C171.117325,321.035919 171.027542,321.035950 171.350037,321.294678 
	C172.455414,321.007843 173.238281,320.462311 174.021164,319.916748 
	C174.021164,319.916748 174.010223,320.008911 174.337250,319.997498 
	C179.703415,317.048553 184.995392,314.464844 189.720856,311.088287 
	C196.369568,306.337585 202.598068,300.998749 209.006256,295.911407 
	C209.006256,295.911407 208.999802,295.998566 209.337067,295.991150 
	C210.503555,295.015076 211.332794,294.046478 212.162033,293.077850 
	C212.162033,293.077850 212.064224,293.070679 212.371185,293.358398 
	C214.672806,291.759979 216.667465,289.873810 218.874115,287.700745 
	C220.779831,285.636292 222.473541,283.858734 224.167252,282.081146 
	C224.167252,282.081146 224.088974,282.071594 224.474731,282.247620 
	C224.955994,281.973511 225.051468,281.523376 225.146973,281.073273 
	C225.146973,281.073273 225.053116,281.073120 225.368713,281.359161 
	C227.176025,279.446838 228.667740,277.248505 230.159439,275.050140 
	C230.159439,275.050140 230.053482,275.050446 230.393188,275.326843 
	C231.541473,274.421234 232.350052,273.239288 233.158630,272.057312 
	C233.158630,272.057312 233.066635,272.055542 233.449646,272.246552 
	C233.940353,271.983521 234.048050,271.529449 234.155746,271.075409 
	C234.155746,271.075409 234.063354,271.078552 234.382355,271.343018 
	C237.522156,267.758789 240.342941,263.910034 243.163742,260.061310 
	C243.163742,260.061310 243.076248,260.061188 243.463928,260.245728 
	C243.952499,259.979309 244.053421,259.528351 244.154327,259.077423 
	C244.154343,259.077423 244.052200,259.070526 244.365387,259.357849 
	C248.174316,254.117294 251.670059,248.589417 255.165802,243.061554 
	C255.165802,243.061554 255.060638,243.060638 255.402954,243.324249 
	C257.734741,239.727722 259.724182,235.867584 261.909851,231.702621 
	C266.075684,222.574173 270.045288,213.750549 274.014923,204.926926 
	C274.014923,204.926926 274.016571,205.018707 274.281769,204.949890 
	C274.934509,203.916092 275.322083,202.951141 275.841431,201.638245 
	C276.896362,199.389191 277.783661,197.469681 278.748779,195.590118 
	C283.489624,186.357498 288.251129,177.135529 293.005341,167.909805 
	C293.005341,167.909805 293.007080,168.007355 293.334778,167.905457 
	C293.833862,167.214874 294.005219,166.626205 294.176575,166.037537 
	C294.176605,166.037537 294.068512,166.045624 294.461182,166.237900 
	C294.952820,165.979340 295.051849,165.528503 295.150879,165.077682 
	C295.150879,165.077682 295.073730,165.079224 295.450012,165.300476 
	C300.818512,162.472641 305.713593,162.399445 311.242157,164.681381 
	C314.572327,166.055969 318.673401,166.047089 322.393005,165.880005 
	C327.891846,165.632996 333.359558,164.692474 339.248718,163.999191 
	C336.887848,156.593781 334.989380,149.790695 332.557159,143.184143 
	C327.321289,128.962189 323.517487,114.394402 323.100891,99.235611 
	C322.598663,80.959656 326.223724,63.424248 334.483582,46.950779 
	C336.258026,43.411812 337.530670,39.621250 339.034485,35.946594 
	C339.034515,35.946598 338.939270,35.974022 339.107361,35.960327 
	C339.372314,35.736759 339.389740,35.520523 339.327759,35.297920 
	C343.172699,30.078888 347.017670,24.859858 351.311340,19.200123 
	C353.563751,16.861250 355.367371,14.963079 357.170990,13.064905 
	C357.170990,13.064900 357.063965,13.064454 357.391174,13.344700 
	C361.196899,11.571100 364.675385,9.517255 368.153839,7.463409 
	C368.451355,7.836352 368.748871,8.209295 369.046387,8.582238 
	C367.314850,12.038221 365.583344,15.494204 363.851807,18.950184 
	C363.851807,18.950180 363.933777,18.946600 363.542358,18.740452 
	C362.719269,20.007177 362.287628,21.480051 361.855957,22.952929 
	C361.855988,22.952932 361.942261,22.949224 361.547729,22.760098 
	C361.056793,23.026958 360.960419,23.482950 360.864044,23.938942 
	C360.864044,23.938940 360.963959,23.942778 360.680939,23.617842 
	C360.190765,24.040705 359.983612,24.788506 359.776489,25.536301 
	C359.776459,25.536299 359.878784,25.538324 359.523651,25.872139 
	C359.378723,26.446035 359.588928,26.686117 359.799103,26.926199 
	C359.799103,26.926199 359.888214,26.910913 359.460815,26.715935 
	C358.973267,26.994312 358.913116,27.467667 358.852997,27.941021 
	C358.852997,27.941021 358.954193,27.943203 358.631958,27.636795 
	C357.153687,29.537498 355.997650,31.744614 354.841583,33.951729 
	C354.841583,33.951729 354.951538,33.952869 354.630554,33.658684 
	C346.436615,43.619987 342.001312,55.439651 339.086884,67.842331 
	C337.424072,74.918549 334.549530,82.454109 335.577026,89.277412 
	C338.533722,108.911911 343.037903,128.324951 347.370605,147.727539 
	C347.986084,150.483841 351.026459,152.698639 352.944489,155.164078 
	C352.944489,155.164078 352.945404,155.054138 352.664703,155.385376 
	C355.205353,159.145187 358.923523,160.323181 363.225281,160.036545 
	C363.225281,160.036545 363.472931,160.121674 364.046021,160.264465 
	C367.200623,159.983490 369.803223,159.659225 372.359619,159.117142 
	C379.790253,157.541458 386.902374,157.492004 393.230408,163.157806 
	C393.640137,163.260757 393.819305,163.178787 393.998444,163.096817 
	C393.998444,163.096817 393.993835,163.008209 393.860321,163.361938 
	C395.181183,165.142365 396.635529,166.569046 398.089905,167.995743 
	C398.089905,167.995743 398.009521,167.992508 398.008118,168.328094 
	C400.615021,172.567093 403.223328,176.470520 405.831604,180.373962 
	C409.011536,184.873596 412.191467,189.373230 415.566040,194.319489 
	C415.814667,195.259354 415.830994,195.763641 415.968262,196.232513 
	C415.986298,196.294205 416.623047,196.174774 416.973236,196.139221 
	C416.973236,196.139221 416.982849,196.027618 416.772888,196.377625 
	C418.357361,198.872498 420.151733,201.017349 421.946136,203.162216 
	C421.946136,203.162216 421.942413,203.065796 421.704193,203.435257 
	C422.284302,204.586197 423.102631,205.367676 423.920959,206.149170 
	C423.920959,206.149155 423.922211,206.066940 423.657227,206.396637 
	C425.222504,209.499786 427.052795,212.273209 429.036713,215.371674 
	C429.779449,215.841461 430.368561,215.986221 430.957703,216.130981 
	C430.957703,216.130981 430.959045,216.048569 430.771118,216.407562 
	C431.725494,217.874466 432.867859,218.982376 434.010193,220.090302 
	C434.010193,220.090302 434.012360,219.987885 433.921600,220.372925 
	C434.549042,221.537033 435.267242,222.316116 435.985474,223.095215 
	C435.985474,223.095200 435.984802,223.016693 435.979553,223.370117 
	C437.958221,225.539307 439.942108,227.355057 441.925995,229.170822 
	C441.925995,229.170822 441.928192,229.095428 441.750549,229.481750 
	C442.019348,229.960144 442.465820,230.052216 442.912292,230.144287 
	C442.912292,230.144287 442.912720,230.067093 442.641357,230.390930 
	C444.248657,232.507599 446.127319,234.300430 448.005981,236.093262 
	C448.005981,236.093246 447.998627,236.003494 447.917969,236.312561 
	C448.200989,236.802994 448.564636,236.984344 449.093750,237.475983 
	C450.494446,238.576584 451.729645,239.366913 452.964874,240.157242 
	C452.964874,240.157242 452.965118,240.046570 452.682739,240.387238 
	C453.262451,241.191422 454.124481,241.654953 454.986542,242.118484 
	C454.986542,242.118484 454.980133,242.027252 454.945374,242.407211 
	C455.921112,243.252670 456.931641,243.718185 457.942169,244.183685 
	C457.942169,244.183685 457.951019,244.068024 457.699402,244.413544 
	C459.611237,245.894028 461.774658,247.028992 463.938080,248.163940 
	C463.938080,248.163940 463.938202,248.077011 463.754089,248.465485 
	C464.021149,248.953735 464.472260,249.053513 464.923401,249.153290 
	C464.923401,249.153275 464.929749,249.051620 464.638550,249.361755 
	C467.215546,251.835297 470.083679,253.998672 472.951813,256.162079 
	C472.951813,256.162079 472.950592,256.054840 472.670654,256.388947 
	C473.266663,257.179016 474.142670,257.634979 475.018677,258.090912 
	C475.018677,258.090912 475.009918,257.989746 475.026520,258.343445 
	C477.677887,260.184479 480.312653,261.671783 482.947388,263.159088 
	C482.947388,263.159088 482.948029,263.053345 482.666382,263.388428 
	C484.574005,264.868988 486.763245,266.014435 488.952515,267.159882 
	C488.952515,267.159882 488.951050,267.046936 488.663635,267.375671 
	C489.613159,268.436035 490.850128,269.167603 492.087067,269.899200 
z"/>
<path fill="#ED392D" opacity="1.000000" stroke="none" 
	d="
M338.696655,36.063080 
	C337.530670,39.621250 336.258026,43.411812 334.483582,46.950779 
	C326.223724,63.424248 322.598663,80.959656 323.100891,99.235611 
	C323.517487,114.394402 327.321289,128.962189 332.557159,143.184143 
	C334.989380,149.790695 336.887848,156.593781 339.248718,163.999191 
	C333.359558,164.692474 327.891846,165.632996 322.393005,165.880005 
	C318.673401,166.047089 314.572327,166.055969 311.242157,164.681381 
	C305.713593,162.399445 300.818512,162.472641 295.453094,165.338928 
	C297.133789,163.765442 299.240234,161.152771 301.230652,161.238342 
	C305.378876,161.416687 309.440186,163.148300 313.588501,163.988358 
	C315.704407,164.416855 317.933594,164.433701 320.107391,164.395905 
	C323.991821,164.328384 327.884766,164.204773 331.750519,163.848419 
	C333.519073,163.685379 335.231567,162.914062 336.672821,162.503189 
	C333.171356,151.275558 330.456085,140.675537 326.552277,130.533005 
	C321.732147,118.009911 320.878235,104.999382 321.152100,92.014694 
	C321.575745,71.929520 327.598694,53.243973 338.696655,36.063080 
z"/>
<path fill="#EE362B" opacity="1.000000" stroke="none" 
	d="
M123.077911,420.250305 
	C128.868896,422.488464 134.760605,425.046814 140.622742,427.671173 
	C149.519623,431.654205 158.261993,436.019714 167.309601,439.620728 
	C184.819000,446.589661 202.406219,453.385712 220.128189,459.791351 
	C237.258759,465.983215 254.600220,471.591522 271.841461,477.478363 
	C272.116760,477.572388 272.295319,477.949677 272.336609,478.553436 
	C266.077423,477.064392 259.953003,475.358032 253.936981,473.330048 
	C247.616837,471.199524 241.445251,468.628906 235.128006,466.488953 
	C226.301880,463.499115 217.302826,460.998749 208.555084,457.803497 
	C195.635941,453.084503 182.670181,448.398407 170.094254,442.858429 
	C154.256378,435.881439 138.791321,428.058167 123.077911,420.250305 
z"/>
<path fill="#ED392D" opacity="1.000000" stroke="none" 
	d="
M146.741180,331.950897 
	C137.644852,335.250092 128.367523,339.169983 118.705650,341.485107 
	C103.684792,345.084290 88.349686,347.128601 72.804321,346.600189 
	C54.494511,345.977814 37.023403,342.168182 20.723398,333.417389 
	C17.847620,331.873535 14.211064,331.746765 10.500755,330.899384 
	C13.151981,326.710785 17.121796,329.023712 19.794159,330.521332 
	C28.853928,335.598389 38.103138,339.982086 48.389900,341.721191 
	C54.340641,342.727203 60.394096,343.114563 66.358887,344.050751 
	C79.523537,346.116974 92.541496,344.399231 105.327515,341.806030 
	C118.006996,339.234497 130.409149,335.300720 142.948456,332.023773 
	C144.035583,331.739685 145.238617,331.898987 146.741180,331.950897 
z"/>
<path fill="#EE382C" opacity="1.000000" stroke="none" 
	d="
M352.913788,154.806870 
	C351.026459,152.698639 347.986084,150.483841 347.370605,147.727539 
	C343.037903,128.324951 338.533722,108.911911 335.577026,89.277412 
	C334.549530,82.454109 337.424072,74.918549 339.086884,67.842331 
	C342.001312,55.439651 346.436615,43.619987 354.629669,33.603725 
	C353.806580,36.521004 353.118317,39.533123 351.440247,41.818447 
	C344.689941,51.011547 342.825134,61.916729 339.895508,72.510422 
	C336.934631,83.217155 337.418121,93.538193 340.518890,104.224976 
	C342.906311,112.453140 343.009094,121.327156 345.173035,129.641968 
	C347.347687,137.998138 346.577698,147.364334 352.913788,154.806870 
z"/>
<path fill="#ED392D" opacity="1.000000" stroke="none" 
	d="
M557.229004,415.029724 
	C568.200623,409.305756 579.554871,403.776215 590.785950,398.006927 
	C609.332397,388.479828 627.807007,378.812439 646.290771,369.163879 
	C648.706604,367.902832 650.998047,366.403503 653.718384,365.011780 
	C651.254822,367.359833 648.719849,370.276306 645.534119,371.965363 
	C630.045959,380.177002 614.396545,388.085480 598.777893,396.049469 
	C589.663391,400.696930 580.565430,405.386047 571.328613,409.780151 
	C566.894958,411.889282 562.156616,413.357819 557.229004,415.029724 
z"/>
<path fill="#ED372B" opacity="1.000000" stroke="none" 
	d="
M338.207642,550.928467 
	C339.031006,543.142883 336.182861,536.122375 333.523315,529.069641 
	C333.239044,528.315735 332.705780,527.655396 332.423981,526.900879 
	C328.545441,516.514709 331.680847,512.145813 342.774261,511.980988 
	C354.497589,511.806854 366.221893,511.015564 377.935333,511.190979 
	C382.811707,511.264069 387.661041,513.141052 392.330994,514.569336 
	C383.169800,514.590088 374.202850,514.083374 365.230011,513.936035 
	C357.666229,513.811768 350.093750,514.039429 342.528992,514.249634 
	C339.941803,514.321472 336.962463,514.138184 334.930389,515.354675 
	C333.620789,516.138672 332.867279,519.472656 333.329865,521.290955 
	C334.697998,526.668762 337.409546,531.747314 338.412811,537.162048 
	C339.230957,541.577637 343.093781,546.329834 338.207642,550.928467 
z"/>
<path fill="#ED372B" opacity="1.000000" stroke="none" 
	d="
M682.469971,335.800507 
	C685.579346,328.406250 688.999390,320.877167 692.368713,313.325439 
	C692.741394,312.490143 692.823792,311.525360 693.144958,310.186646 
	C681.481140,313.071899 670.289856,315.925507 659.049011,318.568451 
	C655.726257,319.349731 652.263855,319.536591 648.431641,319.769897 
	C647.997925,319.543915 647.987732,319.170410 647.987732,319.170410 
	C654.145630,317.804077 660.335266,316.564972 666.453796,315.040558 
	C674.930786,312.928497 683.325256,310.473236 691.842773,308.554199 
	C692.757324,308.348145 695.525208,311.314209 695.291504,311.820892 
	C691.531494,319.973969 690.157959,329.430542 682.469971,335.800507 
z"/>
<path fill="#EE362B" opacity="1.000000" stroke="none" 
	d="
M423.178650,550.921631 
	C425.542786,545.571472 429.000519,540.429626 430.763031,534.760620 
	C432.434418,529.384827 432.853455,523.459412 432.879852,517.771240 
	C432.916809,509.801544 434.799774,503.563263 443.370636,501.197601 
	C444.419678,500.908081 445.302643,500.016846 446.605072,499.619049 
	C445.564484,501.098724 444.389709,502.892303 442.761017,503.534302 
	C436.792908,505.886810 435.039093,510.173218 434.732880,516.345093 
	C434.372742,523.604553 433.376373,531.006165 431.313019,537.946899 
	C429.923065,542.622314 426.207031,546.606262 423.178650,550.921631 
z"/>
<path fill="#ED392D" opacity="1.000000" stroke="none" 
	d="
M505.236206,440.058868 
	C518.349915,433.269623 531.789062,426.559082 545.613892,419.877686 
	C545.606628,420.775055 545.445007,422.123749 544.786743,422.440521 
	C532.017700,428.585327 519.191956,434.612152 506.361206,440.627777 
	C506.205536,440.700775 505.832977,440.311218 505.236206,440.058868 
z"/>
<path fill="#ED372B" opacity="1.000000" stroke="none" 
	d="
M392.072327,515.199707 
	C398.493378,517.813416 401.860229,525.854797 399.469086,534.062683 
	C397.432312,541.054199 396.157410,547.992371 397.373779,555.639526 
	C397.334656,556.035522 396.932465,556.071838 396.932465,556.071838 
	C393.315125,550.361206 395.518738,544.359558 396.258118,538.513916 
	C396.700958,535.012695 399.316040,531.308594 398.596252,528.250854 
	C397.538483,523.757263 394.372406,519.759888 392.072327,515.199707 
z"/>
<path fill="#ED392D" opacity="1.000000" stroke="none" 
	d="
M208.703934,295.649200 
	C202.598068,300.998749 196.369568,306.337585 189.720856,311.088287 
	C184.995392,314.464844 179.703415,317.048553 174.291138,319.992371 
	C175.935104,318.330200 177.848633,316.513611 179.987213,315.019012 
	C189.423294,308.424377 198.924194,301.922485 208.703934,295.649200 
z"/>
<path fill="#ED392D" opacity="1.000000" stroke="none" 
	d="
M292.701385,167.650284 
	C288.251129,177.135529 283.489624,186.357498 278.748779,195.590118 
	C277.783661,197.469681 276.896362,199.389191 275.655090,201.624207 
	C275.337006,201.958115 274.963776,201.940308 274.963776,201.940308 
	C278.745911,189.399918 283.774536,177.488510 292.701385,167.650284 
z"/>
<path fill="#ED372B" opacity="1.000000" stroke="none" 
	d="
M603.998413,319.833130 
	C593.163696,317.391815 582.323181,314.975830 571.499878,312.485138 
	C569.620117,312.052551 567.812988,311.304291 565.776733,310.435333 
	C569.543213,310.852753 573.555298,311.327545 577.457031,312.263092 
	C586.132874,314.343506 594.753479,316.654541 603.698120,319.179932 
	C603.999695,319.488281 603.998413,319.833130 603.998413,319.833130 
z"/>
<path fill="#E73B31" opacity="1.000000" stroke="none" 
	d="
M273.691406,204.709824 
	C270.045288,213.750549 266.075684,222.574173 261.702515,231.701263 
	C261.298950,232.004730 260.885193,231.977280 260.885193,231.977295 
	C265.046082,222.815765 269.206970,213.654236 273.691406,204.709824 
z"/>
<path fill="#ED392D" opacity="1.000000" stroke="none" 
	d="
M170.727112,321.018677 
	C171.077332,321.485504 171.175476,322.252716 170.977402,322.338867 
	C163.273483,325.689270 155.542542,328.977539 147.421371,332.193451 
	C149.210236,330.806213 151.295578,329.286743 153.594894,328.235168 
	C159.122162,325.707184 164.749756,323.398529 170.727112,321.018677 
z"/>
<path fill="#EE382C" opacity="1.000000" stroke="none" 
	d="
M364.186829,18.932430 
	C365.583344,15.494204 367.314850,12.038221 369.046387,8.582238 
	C368.748871,8.209295 368.451355,7.836352 368.153839,7.463409 
	C364.675385,9.517255 361.196899,11.571100 357.392914,13.398184 
	C360.140442,10.158961 362.995789,7.183688 367.885071,6.781923 
	C372.181335,6.428891 371.526031,8.906463 370.525421,10.754763 
	C368.933075,13.696061 366.563019,16.216335 364.186829,18.932430 
z"/>
<path fill="#ED372B" opacity="1.000000" stroke="none" 
	d="
M315.087769,550.235107 
	C322.288147,553.429321 329.640198,554.650696 337.554871,550.731445 
	C337.913055,551.358582 338.073822,552.110107 337.817017,552.301636 
	C331.910034,556.706299 320.669250,555.829224 315.087769,550.235107 
z"/>
<path fill="#ED372B" opacity="1.000000" stroke="none" 
	d="
M535.903625,295.777802 
	C530.331787,293.275391 524.636902,290.513519 519.073547,287.508148 
	C516.557861,286.149139 514.303772,284.306000 511.778564,282.420654 
	C515.472351,284.000397 519.412292,285.671875 523.140137,287.728027 
	C527.468689,290.115509 531.611023,292.840515 535.903625,295.777802 
z"/>
<path fill="#ED392D" opacity="1.000000" stroke="none" 
	d="
M392.999878,162.972885 
	C386.902374,157.492004 379.790253,157.541458 372.359619,159.117142 
	C369.803223,159.659225 367.200623,159.983490 364.175354,160.243912 
	C372.275360,157.566437 380.829590,154.994156 389.621063,159.016739 
	C390.759766,159.537766 391.701447,160.489288 392.876160,161.832703 
	C393.011932,162.606964 393.005890,162.789917 392.999878,162.972885 
z"/>
<path fill="#ED372B" opacity="1.000000" stroke="none" 
	d="
M299.099854,520.363647 
	C300.719513,522.934753 302.523743,525.792419 303.817902,528.864929 
	C305.958069,533.946045 307.769348,539.165588 309.451904,544.644531 
	C307.447266,541.466797 305.508484,538.054504 304.023621,534.454956 
	C302.171967,529.966248 300.694397,525.323120 299.099854,520.363647 
z"/>
<path fill="#EE362B" opacity="1.000000" stroke="none" 
	d="
M604.415588,319.918213 
	C603.998413,319.833130 603.999695,319.488281 604.000183,319.315857 
	C608.656860,319.445129 613.309753,319.822021 617.970215,320.026428 
	C622.227112,320.213104 626.492249,320.213135 630.878479,320.798828 
	C631.003235,321.302246 630.986938,321.710480 630.986938,321.710480 
	C622.268860,321.141418 613.550842,320.572327 604.415588,319.918213 
z"/>
<path fill="#ED392D" opacity="1.000000" stroke="none" 
	d="
M98.074493,407.228699 
	C102.434113,408.823364 106.854828,410.732849 111.221878,412.758087 
	C113.683838,413.899811 116.057419,415.232147 118.468491,416.769104 
	C118.466171,417.059570 117.998604,417.116821 117.998596,417.116821 
	C115.374641,416.101746 112.661652,415.267639 110.146973,414.030426 
	C106.067314,412.023285 102.117668,409.751801 98.074493,407.228699 
z"/>
<path fill="#EE362B" opacity="1.000000" stroke="none" 
	d="
M272.085266,479.189209 
	C274.368988,481.790527 276.982025,484.565125 278.915955,487.751770 
	C281.137451,491.412292 282.757568,495.437805 284.399353,499.626648 
	C282.144440,497.132355 279.900757,494.448578 278.170654,491.466827 
	C275.937103,487.617371 274.114197,483.529694 272.085266,479.189209 
z"/>
<path fill="#EE362B" opacity="1.000000" stroke="none" 
	d="
M399.991821,558.100586 
	C406.523193,560.399536 412.092316,558.230286 417.629028,554.612427 
	C412.846222,560.857117 406.609375,562.517517 399.113831,559.333923 
	C399.013458,558.971802 399.108368,558.846130 399.278015,558.751221 
	C399.660004,558.501465 399.841400,558.316223 399.991821,558.100586 
z"/>
<path fill="#EE362B" opacity="1.000000" stroke="none" 
	d="
M448.182220,498.915894 
	C448.540222,492.175140 449.087280,485.374176 455.287598,480.331940 
	C455.669312,480.061066 456.032196,480.093323 456.032196,480.093323 
	C453.525330,486.365448 451.018463,492.637543 448.182220,498.915894 
z"/>
<path fill="#EE362B" opacity="1.000000" stroke="none" 
	d="
M254.804138,243.093048 
	C251.670059,248.589417 248.174316,254.117294 244.363800,259.408997 
	C247.513519,253.823395 250.977997,248.473969 254.804138,243.093048 
z"/>
<path fill="#E73B31" opacity="1.000000" stroke="none" 
	d="
M405.925446,180.035797 
	C403.223328,176.470520 400.615021,172.567093 398.010010,168.287918 
	C400.681946,171.840668 403.350616,175.769165 405.925446,180.035797 
z"/>
<path fill="#ED372B" opacity="1.000000" stroke="none" 
	d="
M8.521452,332.143738 
	C7.571728,338.470215 11.294420,342.891541 15.168068,347.594849 
	C9.613492,345.729889 6.182489,337.955841 8.521452,332.143738 
z"/>
<path fill="#EE362B" opacity="1.000000" stroke="none" 
	d="
M492.204773,450.926422 
	C492.972656,449.728363 493.983276,448.363708 495.243195,447.292297 
	C497.806061,445.112854 500.503510,443.091705 503.742310,440.989868 
	C504.339081,440.974396 504.833282,440.991180 504.833282,440.991211 
	C500.742310,444.291626 496.651337,447.592072 492.204773,450.926422 
z"/>
<path fill="#ED392D" opacity="1.000000" stroke="none" 
	d="
M654.341919,365.274475 
	C657.697144,361.738647 661.395386,358.385803 665.437256,355.032532 
	C662.082336,358.507233 658.383667,361.982330 654.341919,365.274475 
z"/>
<path fill="#EE362B" opacity="1.000000" stroke="none" 
	d="
M242.807632,260.089722 
	C240.342941,263.910034 237.522156,267.758789 234.386078,271.389099 
	C236.864365,267.486511 239.657944,263.802338 242.807632,260.089722 
z"/>
<path fill="#E73B31" opacity="1.000000" stroke="none" 
	d="
M458.193604,477.919464 
	C459.446625,476.229248 460.926331,474.364746 462.703796,472.849579 
	C464.785339,471.075195 467.126129,469.604950 469.716919,468.001953 
	C466.236938,471.300629 462.394501,474.600159 458.193604,477.919464 
z"/>
<path fill="#E73B31" opacity="1.000000" stroke="none" 
	d="
M631.430420,321.725708 
	C630.986938,321.710480 631.003235,321.302246 631.026489,321.099365 
	C635.686584,320.497192 640.323364,320.097870 645.254395,319.925476 
	C640.990417,320.681915 636.432129,321.211395 631.430420,321.725708 
z"/>
<path fill="#EE362B" opacity="1.000000" stroke="none" 
	d="
M260.566162,232.122925 
	C260.885193,231.977280 261.298950,232.004730 261.506287,232.006088 
	C259.724182,235.867584 257.734741,239.727722 255.404358,243.376831 
	C256.791351,239.533371 258.519257,235.900955 260.566162,232.122925 
z"/>
<path fill="#ED372B" opacity="1.000000" stroke="none" 
	d="
M27.066181,361.223114 
	C30.559238,363.686066 34.098003,366.498138 37.394913,369.627930 
	C32.792229,368.370209 29.213167,365.857269 27.066181,361.223114 
z"/>
<path fill="#ED392D" opacity="1.000000" stroke="none" 
	d="
M546.242310,420.051880 
	C549.348511,418.204071 552.785522,416.423889 556.595093,414.762695 
	C553.502869,416.627625 550.038025,418.373566 546.242310,420.051880 
z"/>
<path fill="#ED372B" opacity="1.000000" stroke="none" 
	d="
M15.065914,348.227783 
	C17.887140,351.017578 20.759352,354.155457 23.399914,357.614502 
	C20.484476,354.815735 17.800688,351.695770 15.065914,348.227783 
z"/>
<path fill="#EE382C" opacity="1.000000" stroke="none" 
	d="
M363.030701,159.715149 
	C358.923523,160.323181 355.205353,159.145187 352.609741,155.386566 
	C356.169037,156.502258 359.502563,157.947998 363.030701,159.715149 
z"/>
<path fill="#ED392D" opacity="1.000000" stroke="none" 
	d="
M428.883118,215.046631 
	C427.052795,212.273209 425.222504,209.499786 423.616119,206.398224 
	C425.900177,208.791595 427.960327,211.513107 429.770386,214.617065 
	C429.307892,215.015213 429.095490,215.030930 428.883118,215.046631 
z"/>
<path fill="#ED372B" opacity="1.000000" stroke="none" 
	d="
M552.989746,304.473572 
	C549.726685,303.428040 546.443176,302.026001 543.074585,300.266785 
	C546.316101,301.312073 549.642700,302.714539 552.989746,304.473572 
z"/>
<path fill="#ED392D" opacity="1.000000" stroke="none" 
	d="
M89.124748,402.152771 
	C92.258446,403.299896 95.437950,404.804413 98.370102,406.635071 
	C95.138695,405.477570 92.154625,403.993896 89.124748,402.152771 
z"/>
<path fill="#ED392D" opacity="1.000000" stroke="none" 
	d="
M421.930298,202.841675 
	C420.151733,201.017349 418.357361,198.872498 416.717041,196.373474 
	C418.552277,198.186584 420.233368,200.353851 421.930298,202.841675 
z"/>
<path fill="#EE362B" opacity="1.000000" stroke="none" 
	d="
M472.924744,255.812683 
	C470.083679,253.998672 467.215546,251.835297 464.587646,249.360443 
	C467.517822,251.187088 470.207733,253.325180 472.924744,255.812683 
z"/>
<path fill="#EE362B" opacity="1.000000" stroke="none" 
	d="
M223.806076,282.046204 
	C222.473541,283.858734 220.779831,285.636292 218.697937,287.681274 
	C218.309753,287.948700 217.958466,287.900909 217.958466,287.900909 
	C219.787277,285.937683 221.616089,283.974457 223.806076,282.046204 
z"/>
<path fill="#ED392D" opacity="1.000000" stroke="none" 
	d="
M217.643036,288.040100 
	C217.958466,287.900909 218.309753,287.948700 218.485947,287.968201 
	C216.667465,289.873810 214.672806,291.759979 212.369659,293.407410 
	C213.816666,291.505585 215.572144,289.842438 217.643036,288.040100 
z"/>
<path fill="#ED392D" opacity="1.000000" stroke="none" 
	d="
M482.914246,262.799683 
	C480.312653,261.671783 477.677887,260.184479 474.975891,258.347534 
	C477.566162,259.478668 480.223602,260.959473 482.914246,262.799683 
z"/>
<path fill="#E73B31" opacity="1.000000" stroke="none" 
	d="
M441.908722,228.816833 
	C439.942108,227.355057 437.958221,225.539307 435.940308,223.370972 
	C437.901337,224.833191 439.896393,226.648026 441.908722,228.816833 
z"/>
<path fill="#E73B31" opacity="1.000000" stroke="none" 
	d="
M398.265503,167.652802 
	C396.635529,166.569046 395.181183,165.142365 393.816010,163.364471 
	C395.417175,164.445465 396.929138,165.877670 398.265503,167.652802 
z"/>
<path fill="#ED372B" opacity="1.000000" stroke="none" 
	d="
M543.386353,299.779205 
	C540.633240,298.926178 538.177429,297.859161 535.799561,296.426483 
	C538.479614,297.228943 541.081665,298.397095 543.386353,299.779205 
z"/>
<path fill="#EE362B" opacity="1.000000" stroke="none" 
	d="
M229.808701,275.077393 
	C228.667740,277.248505 227.176025,279.446838 225.370560,281.406067 
	C226.523849,279.146149 227.990906,277.125427 229.808701,275.077393 
z"/>
<path fill="#EE382C" opacity="1.000000" stroke="none" 
	d="
M356.815887,13.088546 
	C355.367371,14.963079 353.563751,16.861250 351.450684,18.887028 
	C352.914429,17.047153 354.687622,15.079668 356.815887,13.088546 
z"/>
<path fill="#EE362B" opacity="1.000000" stroke="none" 
	d="
M463.909485,247.806625 
	C461.774658,247.028992 459.611237,245.894028 457.641479,244.410873 
	C459.850403,245.191544 461.865631,246.320419 463.909485,247.806625 
z"/>
<path fill="#E73B31" opacity="1.000000" stroke="none" 
	d="
M447.945770,235.750931 
	C446.127319,234.300430 444.248657,232.507599 442.602844,230.393021 
	C444.518951,231.850372 446.202240,233.629486 447.945770,235.750931 
z"/>
<path fill="#EE382C" opacity="1.000000" stroke="none" 
	d="
M355.204224,33.915970 
	C355.997650,31.744614 357.153687,29.537498 358.631531,27.586185 
	C357.824493,29.854725 356.695679,31.867466 355.204224,33.915970 
z"/>
<path fill="#ED392D" opacity="1.000000" stroke="none" 
	d="
M81.085968,397.237335 
	C82.715408,397.662842 84.425972,398.442902 86.122528,399.592010 
	C84.461372,399.171356 82.814224,398.381622 81.085968,397.237335 
z"/>
<path fill="#E73B31" opacity="1.000000" stroke="none" 
	d="
M433.960510,219.780792 
	C432.867859,218.982376 431.725494,217.874466 430.729889,216.408249 
	C431.888031,217.190399 432.899445,218.330826 433.960510,219.780792 
z"/>
<path fill="#ED392D" opacity="1.000000" stroke="none" 
	d="
M488.897736,266.798889 
	C486.763245,266.014435 484.574005,264.868988 482.613525,263.389709 
	C484.842529,264.183197 486.842743,265.310547 488.897736,266.798889 
z"/>
<path fill="#ED392D" opacity="1.000000" stroke="none" 
	d="
M71.064217,391.216187 
	C72.670982,391.673553 74.338470,392.456726 76.052124,393.596039 
	C74.440498,393.148743 72.782722,392.345367 71.064217,391.216187 
z"/>
<path fill="#ED372B" opacity="1.000000" stroke="none" 
	d="
M41.079868,373.226318 
	C42.668274,373.692383 44.326843,374.506592 46.013451,375.685028 
	C44.411007,375.224335 42.780521,374.399353 41.079868,373.226318 
z"/>
<path fill="#E73B31" opacity="1.000000" stroke="none" 
	d="
M472.621002,466.039612 
	C473.112274,465.052307 473.853943,464.300568 475.100677,463.294434 
	C475.781616,463.047974 475.957458,463.055847 476.133301,463.063721 
	C475.046021,464.134186 473.958710,465.204651 472.621002,466.039612 
z"/>
<path fill="#EE362B" opacity="1.000000" stroke="none" 
	d="
M476.429321,463.146362 
	C475.957458,463.055847 475.781616,463.047974 475.341980,463.028687 
	C476.148071,462.223816 477.217987,461.430359 478.630615,460.760681 
	C478.223999,461.666016 477.474640,462.447540 476.429321,463.146362 
z"/>
<path fill="#EE362B" opacity="1.000000" stroke="none" 
	d="
M118.118126,417.439453 
	C117.998604,417.116821 118.466171,417.059570 118.700592,417.037354 
	C120.314354,417.773529 121.693695,418.531891 123.085022,419.637543 
	C121.477226,419.243927 119.857437,418.503021 118.118126,417.439453 
z"/>
<path fill="#ED392D" opacity="1.000000" stroke="none" 
	d="
M76.084381,394.239380 
	C77.679199,394.671875 79.354614,395.458557 81.067932,396.605530 
	C79.458885,396.175110 77.811935,395.384369 76.084381,394.239380 
z"/>
<path fill="#EE362B" opacity="1.000000" stroke="none" 
	d="
M452.943542,239.822205 
	C451.729645,239.366913 450.494446,238.576584 449.110992,237.220474 
	C448.966217,236.484009 448.969635,236.313324 448.973083,236.142609 
	C450.289459,237.257477 451.605835,238.372330 452.943542,239.822205 
z"/>
<path fill="#EE362B" opacity="1.000000" stroke="none" 
	d="
M479.225281,460.927979 
	C480.017609,459.790955 481.149261,458.587097 482.614746,457.613708 
	C481.820587,458.849823 480.692566,459.855469 479.225281,460.927979 
z"/>
<path fill="#EE362B" opacity="1.000000" stroke="none" 
	d="
M488.183899,453.917786 
	C488.980225,452.753784 490.126648,451.572662 491.613586,450.621704 
	C490.814026,451.868134 489.673981,452.884430 488.183899,453.917786 
z"/>
<path fill="#ED392D" opacity="1.000000" stroke="none" 
	d="
M211.772064,293.041229 
	C211.332794,294.046478 210.503555,295.015076 209.293503,295.987793 
	C209.735825,294.996124 210.558960,294.000366 211.772064,293.041229 
z"/>
<path fill="#EE382C" opacity="1.000000" stroke="none" 
	d="
M362.223907,22.905256 
	C362.287628,21.480051 362.719269,20.007177 363.538696,18.699577 
	C363.481628,20.195765 363.036743,21.526676 362.223907,22.905256 
z"/>
<path fill="#ED392D" opacity="1.000000" stroke="none" 
	d="
M423.954407,205.756927 
	C423.102631,205.367676 422.284302,204.586197 421.656067,203.438995 
	C422.560089,203.837067 423.273987,204.600876 423.954407,205.756927 
z"/>
<path fill="#ED372B" opacity="1.000000" stroke="none" 
	d="
M311.083313,547.183350 
	C312.419434,547.626892 313.780457,548.424072 315.127319,549.590759 
	C313.778168,549.152527 312.443207,548.344788 311.083313,547.183350 
z"/>
<path fill="#EE362B" opacity="1.000000" stroke="none" 
	d="
M284.064880,500.164825 
	C285.540344,500.289398 287.012604,500.726562 288.312866,501.548889 
	C286.781128,501.448486 285.421417,500.962952 284.064880,500.164825 
z"/>
<path fill="#EE362B" opacity="1.000000" stroke="none" 
	d="
M484.183563,456.907104 
	C484.979462,455.767059 486.120026,454.581116 487.602997,453.613800 
	C486.806335,454.842010 485.667267,455.851593 484.183563,456.907104 
z"/>
<path fill="#EE362B" opacity="1.000000" stroke="none" 
	d="
M418.219177,554.968750 
	C418.644073,554.105103 419.425751,553.278564 420.575317,552.645996 
	C420.154175,553.562012 419.365082,554.283936 418.219177,554.968750 
z"/>
<path fill="#ED392D" opacity="1.000000" stroke="none" 
	d="
M86.071198,400.233093 
	C87.149223,400.288788 88.282967,400.696411 89.297607,401.481384 
	C88.161308,401.434204 87.144112,401.009613 86.071198,400.233093 
z"/>
<path fill="#E73B31" opacity="1.000000" stroke="none" 
	d="
M435.989990,222.747131 
	C435.267242,222.316116 434.549042,221.537033 433.870422,220.371445 
	C434.604828,220.789642 435.299683,221.594345 435.989990,222.747131 
z"/>
<path fill="#ED392D" opacity="1.000000" stroke="none" 
	d="
M491.962708,269.602600 
	C490.850128,269.167603 489.613159,268.436035 488.607178,267.377869 
	C489.838226,267.802856 490.838287,268.554443 491.962708,269.602600 
z"/>
<path fill="#EE362B" opacity="1.000000" stroke="none" 
	d="
M232.819992,272.071899 
	C232.350052,273.239288 231.541473,274.421234 230.394897,275.379761 
	C230.865051,274.133057 231.673203,273.109772 232.819992,272.071899 
z"/>
<path fill="#E73B31" opacity="1.000000" stroke="none" 
	d="
M274.628296,202.125488 
	C274.963776,201.940308 275.337006,201.958115 275.523315,201.972137 
	C275.322083,202.951141 274.934509,203.916092 274.235901,204.951385 
	C274.047485,204.118042 274.170135,203.214355 274.628296,202.125488 
z"/>
<path fill="#EE362B" opacity="1.000000" stroke="none" 
	d="
M457.925110,243.827805 
	C456.931641,243.718185 455.921112,243.252670 454.899780,242.411133 
	C455.895355,242.514038 456.901733,242.992981 457.925110,243.827805 
z"/>
<path fill="#ED392D" opacity="1.000000" stroke="none" 
	d="
M68.058273,390.151062 
	C68.989258,389.963409 69.917046,390.093384 70.969116,390.591492 
	C70.080635,390.795959 69.067856,390.632324 68.058273,390.151062 
z"/>
<path fill="#EE362B" opacity="1.000000" stroke="none" 
	d="
M289.070343,503.179230 
	C290.010834,503.324799 290.976135,503.812439 291.989685,504.675781 
	C291.056976,504.541412 290.076080,504.031342 289.070343,503.179230 
z"/>
<path fill="#ED372B" opacity="1.000000" stroke="none" 
	d="
M38.073952,371.184448 
	C39.032623,371.298309 40.018860,371.758911 41.055939,372.594513 
	C40.105026,372.490051 39.103271,372.010590 38.073952,371.184448 
z"/>
<path fill="#ED392D" opacity="1.000000" stroke="none" 
	d="
M173.859848,319.582947 
	C173.238281,320.462311 172.455414,321.007843 171.351013,321.339569 
	C171.919159,320.500214 172.808838,319.874664 173.859848,319.582947 
z"/>
<path fill="#EE362B" opacity="1.000000" stroke="none" 
	d="
M396.958160,556.419312 
	C396.932465,556.071838 397.334656,556.035522 397.536072,556.021729 
	C397.737518,556.007935 398.052429,556.243896 398.228760,556.691528 
	C398.696320,557.398987 398.987579,557.658875 399.278809,557.918762 
	C399.278809,557.918762 399.146759,557.899597 399.139923,558.103821 
	C399.124847,558.487427 399.116608,558.666748 399.108368,558.846130 
	C399.108368,558.846130 399.013458,558.971802 398.965698,559.034424 
	C398.273224,558.320251 397.628540,557.543457 396.958160,556.419312 
z"/>
<path fill="#E73B31" opacity="1.000000" stroke="none" 
	d="
M456.328003,479.973206 
	C456.032196,480.093323 455.669312,480.061066 455.488464,480.039032 
	C456.029602,479.097870 456.751587,478.178772 457.712677,477.543640 
	C457.509155,478.502808 457.066498,479.177948 456.328003,479.973206 
z"/>
<path fill="#ED392D" opacity="1.000000" stroke="none" 
	d="
M416.980469,195.813797 
	C416.623047,196.174774 415.986298,196.294205 415.968262,196.232513 
	C415.830994,195.763641 415.814667,195.259354 415.880066,194.464569 
	C416.328857,194.604797 416.658264,195.046585 416.980469,195.813797 
z"/>
<path fill="#E73B31" opacity="1.000000" stroke="none" 
	d="
M470.359650,468.240417 
	C470.560577,467.256012 471.134094,466.431122 472.082397,465.711792 
	C471.882233,466.678192 471.307251,467.539032 470.359650,468.240417 
z"/>
<path fill="#ED372B" opacity="1.000000" stroke="none" 
	d="
M309.090820,545.160889 
	C309.886139,545.285156 310.707764,545.739929 311.343170,546.558960 
	C310.476990,546.445923 309.797058,545.968689 309.090820,545.160889 
z"/>
<path fill="#EE362B" opacity="1.000000" stroke="none" 
	d="
M421.168823,552.913940 
	C421.298523,552.115723 421.753967,551.286804 422.577057,550.648621 
	C422.461304,551.520630 421.977936,552.201904 421.168823,552.913940 
z"/>
<path fill="#ED392D" opacity="1.000000" stroke="none" 
	d="
M66.110153,388.446167 
	C66.866676,388.542664 67.738426,388.916534 68.385971,389.616821 
	C67.516312,389.536652 66.870857,389.130066 66.110153,388.446167 
z"/>
<path fill="#ED372B" opacity="1.000000" stroke="none" 
	d="
M24.751202,359.357971 
	C25.710091,359.431854 26.512840,359.859680 27.217691,360.624237 
	C26.278217,360.544617 25.436638,360.128296 24.751202,359.357971 
z"/>
<path fill="#EE362B" opacity="1.000000" stroke="none" 
	d="
M474.950989,257.771362 
	C474.142670,257.634979 473.266663,257.179016 472.617065,256.391113 
	C473.523376,256.523407 474.203339,256.987610 474.950989,257.771362 
z"/>
<path fill="#EE362B" opacity="1.000000" stroke="none" 
	d="
M454.934967,241.795166 
	C454.124481,241.654953 453.262451,241.191422 452.627441,240.388336 
	C453.530792,240.523117 454.207092,240.997482 454.934967,241.795166 
z"/>
<path fill="#ED392D" opacity="1.000000" stroke="none" 
	d="
M293.788788,166.123657 
	C294.005219,166.626205 293.833862,167.214874 293.286011,167.906540 
	C293.073364,167.409622 293.237183,166.809708 293.788788,166.123657 
z"/>
<path fill="#E73B31" opacity="1.000000" stroke="none" 
	d="
M429.036713,215.371674 
	C429.095490,215.030930 429.307892,215.015213 429.838867,214.975525 
	C430.432434,215.163574 430.707367,215.375595 430.970001,215.859299 
	C430.368561,215.986221 429.779449,215.841461 429.036713,215.371674 
z"/>
<path fill="#ED372B" opacity="1.000000" stroke="none" 
	d="
M23.101707,358.203552 
	C23.633659,357.998779 24.218142,358.170776 24.904984,358.718018 
	C24.389641,358.922302 23.771938,358.751312 23.101707,358.203552 
z"/>
<path fill="#E73B31" opacity="1.000000" stroke="none" 
	d="
M647.623474,319.113678 
	C647.987732,319.170410 647.997925,319.543915 648.000488,319.730713 
	C647.450562,320.094727 646.898132,320.271912 645.930542,320.305176 
	C646.096619,319.793121 646.677917,319.425018 647.623474,319.113678 
z"/>
<path fill="#EE382C" opacity="1.000000" stroke="none" 
	d="
M360.066956,25.312763 
	C359.983612,24.788506 360.190765,24.040705 360.681458,23.567852 
	C360.762451,24.258272 360.559937,24.673746 360.066956,25.312763 
z"/>
<path fill="#EE362B" opacity="1.000000" stroke="none" 
	d="
M224.833664,281.076172 
	C225.051468,281.523376 224.955994,281.973511 224.472397,282.286987 
	C224.229645,281.793243 224.375000,281.436157 224.833664,281.076172 
z"/>
<path fill="#ED392D" opacity="1.000000" stroke="none" 
	d="
M294.836609,165.078598 
	C295.051849,165.528503 294.952820,165.979340 294.466980,166.291779 
	C294.227539,165.795441 294.374939,165.437469 294.836609,165.078598 
z"/>
<path fill="#EE362B" opacity="1.000000" stroke="none" 
	d="
M233.840698,271.075195 
	C234.048050,271.529449 233.940353,271.983521 233.450623,272.292542 
	C233.220947,271.790009 233.373306,271.432495 233.840698,271.075195 
z"/>
<path fill="#EE362B" opacity="1.000000" stroke="none" 
	d="
M243.840286,259.077759 
	C244.053421,259.528351 243.952499,259.979309 243.465958,260.289429 
	C243.228958,259.791748 243.377594,259.434906 243.840286,259.077759 
z"/>
<path fill="#EE362B" opacity="1.000000" stroke="none" 
	d="
M464.922668,248.839355 
	C464.472260,249.053513 464.021149,248.953735 463.710693,248.467529 
	C464.208191,248.229202 464.565063,248.377304 464.922668,248.839355 
z"/>
<path fill="#E73B31" opacity="1.000000" stroke="none" 
	d="
M448.712769,236.063492 
	C448.969635,236.313324 448.966217,236.484009 448.945557,236.910187 
	C448.564636,236.984344 448.200989,236.802994 447.873108,236.316315 
	C448.090088,236.002121 448.271271,235.993240 448.712769,236.063492 
z"/>
<path fill="#E73B31" opacity="1.000000" stroke="none" 
	d="
M442.917114,229.831512 
	C442.465820,230.052216 442.019348,229.960144 441.712830,229.483215 
	C442.209198,229.238464 442.565582,229.378601 442.917114,229.831512 
z"/>
<path fill="#EE382C" opacity="1.000000" stroke="none" 
	d="
M361.175446,23.932913 
	C360.960419,23.482950 361.056793,23.026958 361.544250,22.717056 
	C361.785828,23.217724 361.636353,23.572304 361.175446,23.932913 
z"/>
<path fill="#EE362B" opacity="1.000000" stroke="none" 
	d="
M291.963257,505.046448 
	C292.212830,504.935760 292.321960,505.059723 292.228302,505.423431 
	C292.164093,505.542664 291.961365,505.160645 291.963257,505.046448 
z"/>
<path fill="#ED392D" opacity="1.000000" stroke="none" 
	d="
M504.910553,440.725586 
	C504.833282,440.991180 504.339081,440.974396 504.092529,440.955505 
	C504.030060,440.583862 504.214111,440.231110 504.698975,439.892609 
	C504.995850,440.091187 504.991821,440.275574 504.910553,440.725586 
z"/>
<path fill="#EE362B" opacity="1.000000" stroke="none" 
	d="
M288.067688,502.174286 
	C288.516998,501.957581 288.972321,502.052948 289.284058,502.540039 
	C288.784912,502.783295 288.429321,502.634827 288.067688,502.174286 
z"/>
<path fill="#E73B31" opacity="1.000000" stroke="none" 
	d="
M393.230408,163.157806 
	C393.005890,162.789917 393.011932,162.606964 393.033569,162.149811 
	C393.344818,162.094772 393.640503,162.313904 393.967285,162.814926 
	C393.819305,163.178787 393.640137,163.260757 393.230408,163.157806 
z"/>
<path fill="#EE362B" opacity="1.000000" stroke="none" 
	d="
M447.160583,499.922729 
	C446.946747,499.473175 447.046814,499.022797 447.533203,498.711853 
	C447.771179,499.208160 447.622864,499.565002 447.160583,499.922729 
z"/>
<path fill="#ED392D" opacity="1.000000" stroke="none" 
	d="
M339.233643,35.408165 
	C339.389740,35.520523 339.372314,35.736759 339.119720,36.008324 
	C338.952271,35.863670 339.010773,35.679798 339.233643,35.408165 
z"/>
<path fill="#ED372B" opacity="1.000000" stroke="none" 
	d="
M37.067986,370.175415 
	C37.517979,369.958160 37.972755,370.053009 38.283554,370.538696 
	C37.783978,370.782227 37.428375,370.634857 37.067986,370.175415 
z"/>
<path fill="#ED372B" opacity="1.000000" stroke="none" 
	d="
M45.981831,376.078369 
	C46.244038,375.954773 46.375977,376.107819 46.341297,376.552002 
	C46.187336,376.571716 46.079632,376.408997 45.981831,376.078369 
z"/>
<path fill="#EE382C" opacity="1.000000" stroke="none" 
	d="
M359.170898,27.930775 
	C358.913116,27.467667 358.973267,26.994312 359.450165,26.672001 
	C359.740875,27.188871 359.614838,27.554701 359.170898,27.930775 
z"/>
<path fill="#EE362B" opacity="1.000000" stroke="none" 
	d="
M483.172333,457.929565 
	C482.955383,457.481232 483.051666,457.026764 483.539276,456.711639 
	C483.782288,457.208435 483.633942,457.565918 483.172333,457.929565 
z"/>
<path fill="#EE382C" opacity="1.000000" stroke="none" 
	d="
M360.101837,26.899208 
	C359.588928,26.686117 359.378723,26.446035 359.481262,25.843494 
	C359.997528,25.944761 360.201050,26.408489 360.101837,26.899208 
z"/>
<path fill="#ED372B" opacity="1.000000" stroke="none" 
	d="
M399.174622,557.632507 
	C398.987579,557.658875 398.696320,557.398987 398.257080,556.886230 
	C398.429535,556.870972 398.749969,557.108582 399.174622,557.632507 
z"/>
<path fill="#ED372B" opacity="1.000000" stroke="none" 
	d="
M399.278015,558.751221 
	C399.116608,558.666748 399.124847,558.487427 399.159790,558.040161 
	C399.186493,557.772217 399.630798,557.834290 399.811310,557.967407 
	C399.841400,558.316223 399.660004,558.501465 399.278015,558.751221 
z"/>
</svg>