<svg version="1.1" id="Layer_1" xmlns="http://www.w3.org/2000/svg" xmlns:xlink="http://www.w3.org/1999/xlink" x="0px" y="0px"
	 width="100%" viewBox="0 0 1944 946" enable-background="new 0 0 1944 946" xml:space="preserve">
<path fill="#000000" opacity="1.000000" stroke="none" 
	d="
M1170.000000,947.000000 
	C780.000122,947.000000 390.500275,947.000000 1.000314,947.000000 
	C1.000209,631.666931 1.000209,316.333832 1.000104,1.000567 
	C648.999512,1.000378 1296.999023,1.000378 1944.998901,1.000189 
	C1944.999268,316.332733 1944.999268,631.665466 1944.999634,946.999146 
	C1686.833374,947.000000 1428.666626,947.000000 1170.000000,947.000000 
M786.953064,153.150742 
	C786.941772,141.735260 786.930481,130.319763 786.988342,118.010948 
	C789.716553,102.255310 791.966675,86.395813 795.358337,70.784317 
	C797.288940,61.898243 801.166870,53.444008 803.986389,44.736534 
	C804.752869,42.369617 804.860596,39.789387 805.270630,37.307056 
	C804.741089,36.992424 804.211609,36.677788 803.682068,36.363155 
	C799.818359,40.426880 795.692505,44.275249 792.142334,48.596497 
	C783.075134,59.632912 774.096436,70.751183 765.401855,82.081909 
	C757.812988,91.971657 750.163635,101.877167 743.438843,112.352196 
	C734.912842,125.633003 727.234741,139.461884 719.303467,153.119690 
	C712.979675,164.009262 706.712280,174.934906 700.632324,185.961670 
	C696.395020,193.646591 692.344177,201.446030 688.522156,209.345291 
	C683.569519,219.581177 678.966736,229.985764 674.140076,240.283371 
	C669.239685,250.738266 664.028198,261.053375 659.366455,271.612274 
	C655.285217,280.856232 651.777893,290.353546 648.016785,299.738892 
	C646.179321,304.323914 644.204712,308.859406 642.528870,313.502777 
	C636.935486,329.001648 631.483521,344.551544 625.905640,360.056122 
	C623.463257,366.845215 620.532104,373.473602 618.387329,380.351044 
	C615.468933,389.709045 613.125916,399.245667 610.419861,408.672272 
	C610.185181,409.489899 609.182495,410.218170 608.370667,410.719330 
	C595.791565,418.485168 582.955017,425.859863 570.643921,434.027374 
	C555.767700,443.896637 540.056335,452.103027 523.226196,457.758179 
	C511.917694,461.558014 500.039520,463.734039 488.335083,466.260498 
	C479.581696,468.149902 470.747833,469.879852 461.859497,470.869141 
	C453.332733,471.818146 444.689667,471.721863 435.150726,472.042419 
	C416.734924,472.056396 398.319153,472.070404 379.276794,472.000336 
	C378.860046,471.943420 378.443329,471.886475 377.288696,471.455719 
	C369.159119,471.330963 361.029572,471.206207 351.979095,471.011719 
	C337.851868,470.146362 323.715820,469.401123 309.601532,468.360352 
	C303.393860,467.902588 297.250732,466.539612 291.042480,466.126495 
	C281.024750,465.459869 270.962799,465.452332 260.946625,464.768890 
	C251.244141,464.106781 241.576630,462.935242 231.892303,462.002625 
	C224.213913,461.263153 216.515793,460.694427 208.857834,459.785217 
	C197.305435,458.413605 185.808121,456.527985 174.234955,455.397644 
	C165.127060,454.508057 155.858566,455.048370 146.805466,453.857910 
	C129.279556,451.553314 111.744476,450.013977 94.065300,449.913361 
	C91.407265,449.898254 88.755829,448.723755 85.153709,448.045898 
	C77.104782,448.313171 69.055862,448.580414 60.177311,449.004883 
	C54.617672,449.910339 49.058037,450.815826 43.498402,451.721313 
	C174.557449,479.466095 306.310638,501.739838 436.982819,530.227234 
	C434.813568,531.682434 432.693268,532.488586 430.499176,532.865540 
	C423.024231,534.149536 415.488617,535.099487 408.039948,536.513123 
	C394.946228,538.998047 381.869659,541.594666 368.853149,544.451050 
	C365.342621,545.221436 362.074341,547.095703 358.694885,548.463318 
	C368.181732,551.049194 377.114532,552.530396 385.906494,554.607788 
	C394.314514,556.594604 402.639313,558.999817 410.885742,561.587341 
	C420.943298,564.743164 430.921448,568.166687 440.859314,571.685120 
	C451.617004,575.493896 462.317413,579.469910 472.986847,583.520386 
	C479.143341,585.857544 485.131927,588.639038 491.298035,590.948303 
	C501.188599,594.652405 511.217102,597.989868 521.091064,601.736084 
	C537.573364,607.989380 553.867126,614.756104 570.450806,620.721252 
	C585.950623,626.296570 601.698975,631.188843 617.384216,636.238037 
	C633.400757,641.393982 649.473694,646.375000 665.443054,651.407654 
	C665.300537,653.861572 664.879150,656.467590 665.051270,659.033813 
	C665.554077,666.527527 666.063232,674.034668 667.008179,681.480896 
	C667.877197,688.328613 668.503479,695.373901 670.658569,701.859680 
	C676.544312,719.573853 682.159607,737.448425 691.805603,753.663940 
	C697.821045,763.776367 703.583130,774.039185 709.536926,784.188660 
	C712.504456,789.247559 715.537109,794.275513 718.741089,799.186462 
	C722.055603,804.266846 725.580444,809.212097 729.106445,814.149902 
	C729.547302,814.767273 730.556824,814.978638 731.302856,815.378052 
	C728.637268,808.883240 725.187805,803.118774 721.856750,797.286682 
	C716.860229,788.538635 711.526917,779.948242 707.114990,770.910889 
	C702.626038,761.715637 699.367615,751.926514 695.052612,742.638000 
	C688.547546,728.635437 685.515564,713.826660 683.757141,698.651184 
	C683.437683,695.894104 683.179565,693.129883 682.893188,690.369019 
	C684.910950,692.369324 685.930359,694.539612 686.763794,696.779053 
	C687.978821,700.043518 688.680237,703.557190 690.281494,706.607117 
	C693.159119,712.088196 696.221008,717.530579 699.783142,722.582031 
	C706.772766,732.494202 713.581238,742.633606 721.557068,751.720093 
	C728.330200,759.436523 736.538879,765.919006 744.296387,772.738159 
	C752.655212,780.085938 761.213562,787.207520 769.727112,794.377625 
	C770.730835,795.223145 772.001404,795.751770 773.148376,796.427307 
	C773.505005,795.925354 773.861694,795.423401 774.218323,794.921448 
	C770.946167,792.205078 767.387878,789.764282 764.456116,786.720032 
	C756.104309,778.047974 747.943970,769.188049 739.835632,760.286194 
	C735.255249,755.257568 730.364197,750.375061 726.616882,744.757141 
	C721.223083,736.670715 716.294922,728.195435 712.001038,719.475891 
	C707.822510,710.990540 703.854919,702.221802 701.331299,693.149963 
	C698.633606,683.452209 697.980225,673.203430 695.929077,663.299866 
	C695.072632,659.164612 695.638428,658.898987 699.604126,659.770569 
	C716.384705,663.458740 733.268188,666.676819 750.073120,670.258728 
	C752.366394,670.747498 755.069824,671.781982 756.491455,673.478699 
	C764.187378,682.663818 771.109436,692.528687 779.162598,701.372131 
	C784.487732,707.219910 791.145508,711.898560 797.428955,716.816589 
	C803.593689,721.641724 809.595032,726.953613 816.453064,730.558472 
	C831.630432,738.536499 846.862183,746.665710 863.821655,750.462219 
	C878.626648,753.776428 893.461670,756.963257 908.330261,759.975220 
	C909.714294,760.255554 911.435974,758.869324 913.000854,758.256958 
	C912.361389,756.678833 912.151428,754.608948 911.006836,753.609192 
	C906.463806,749.641296 901.403564,746.254333 896.957092,742.190125 
	C890.961182,736.709656 885.348877,730.809021 879.582825,725.077698 
	C875.500854,721.020325 871.367188,717.011780 867.380005,712.862854 
	C859.963562,705.145569 852.590332,697.385010 845.324768,689.526245 
	C844.257812,688.372192 843.881409,686.579651 842.763123,684.173645 
	C847.421997,684.581787 851.022888,684.963440 854.633240,685.198975 
	C861.256897,685.631165 867.907349,685.764099 874.506470,686.423767 
	C880.190002,686.991821 885.791077,688.393738 891.475342,688.943298 
	C903.819763,690.136719 916.196960,690.986694 928.555359,692.041138 
	C943.617249,693.326355 958.659790,694.871399 973.736877,695.932800 
	C984.139465,696.665039 994.586426,696.767395 1005.734192,697.542786 
	C1013.855286,697.667358 1021.976318,697.791870 1030.723999,697.999756 
	C1031.140747,698.056519 1031.557495,698.113281 1032.712158,698.543701 
	C1033.860962,698.694458 1035.009766,698.975952 1036.158691,698.976868 
	C1066.987793,699.001648 1097.816895,699.009155 1128.645996,698.962524 
	C1130.094849,698.960327 1131.542847,698.433716 1133.921631,698.021423 
	C1144.685425,697.680908 1155.451904,697.407837 1166.210815,696.950684 
	C1168.780396,696.841553 1171.378052,696.314819 1173.866211,695.629517 
	C1177.173462,694.718445 1179.171753,695.425476 1181.033813,698.633911 
	C1187.442383,709.675659 1193.851562,720.754333 1201.009033,731.311462 
	C1206.143433,738.884583 1212.184204,745.909790 1218.349365,752.699402 
	C1224.951538,759.970154 1232.149780,766.702271 1239.152344,773.604004 
	C1240.112305,774.550110 1241.444336,775.118713 1242.458374,775.768738 
	C1244.167603,766.489075 1245.388794,757.513123 1247.565186,748.775146 
	C1249.349243,741.612488 1251.415527,734.272888 1254.882446,727.833252 
	C1260.441406,717.508057 1266.848511,707.568359 1273.647339,697.998657 
	C1283.461792,684.184387 1295.536743,672.663879 1311.212891,665.527222 
	C1313.632935,664.425537 1316.488037,664.318176 1319.001709,663.376770 
	C1328.823730,659.697876 1338.546143,655.751038 1348.388794,652.129822 
	C1357.566528,648.753052 1366.869873,645.719177 1376.081177,642.431396 
	C1385.641846,639.018799 1395.158447,635.482788 1404.772705,631.972168 
	C1410.454346,645.938293 1418.893066,656.094543 1432.325806,659.746277 
	C1435.235474,651.358032 1436.977539,643.206726 1440.770142,636.158813 
	C1446.034790,626.375366 1452.999878,617.579346 1464.806274,614.761719 
	C1466.554810,614.344360 1468.440552,614.538940 1470.228638,614.243469 
	C1477.961182,612.965088 1485.652344,611.393860 1493.416260,610.363464 
	C1498.093384,609.742859 1502.876465,609.917175 1507.612061,609.739441 
	C1512.739624,609.546875 1518.070190,608.374390 1522.952881,609.377625 
	C1533.009277,611.444214 1542.665649,615.229248 1550.482422,622.171753 
	C1555.222778,626.381714 1559.742920,631.069702 1563.386108,636.231750 
	C1569.024902,644.221619 1573.643188,652.923889 1579.056152,661.083923 
	C1582.398560,666.122559 1586.444946,670.690918 1590.117554,675.514343 
	C1596.458374,683.842285 1602.592041,692.333984 1609.123535,700.508545 
	C1613.833618,706.403748 1619.095459,711.855103 1624.028687,717.575562 
	C1636.573608,732.122009 1648.955322,746.811035 1661.627930,761.244934 
	C1671.017944,771.939941 1680.775757,782.311523 1690.343628,792.851074 
	C1696.619385,799.764038 1702.842896,806.724487 1709.100098,813.654480 
	C1715.228149,820.441406 1721.320435,827.261841 1727.537109,833.966797 
	C1729.204102,835.764404 1731.450806,837.024902 1733.115234,838.824280 
	C1738.644531,844.801941 1743.853516,851.083191 1749.510742,856.933411 
	C1758.314331,866.037109 1767.294312,874.975952 1776.383301,883.795105 
	C1780.429565,887.721252 1785.086670,891.013916 1789.176514,894.899475 
	C1795.696289,901.093994 1801.809082,907.721924 1808.412109,913.822266 
	C1812.747192,917.827271 1817.581421,921.307007 1822.307007,924.869629 
	C1825.820190,927.518311 1829.517700,929.922363 1833.133179,932.435242 
	C1833.526489,932.030640 1833.919922,931.626038 1834.313354,931.221436 
	C1834.035156,928.796204 1834.488037,925.944153 1833.361450,924.014099 
	C1825.394897,910.365479 1817.150269,896.877991 1808.903320,883.394775 
	C1801.739868,871.682922 1794.252563,860.164551 1787.286377,848.338013 
	C1780.902466,837.500366 1775.069580,826.339355 1768.909424,815.368225 
	C1762.999756,804.843323 1756.903076,794.423218 1751.030640,783.877808 
	C1743.315430,770.023071 1735.814697,756.048767 1728.082642,742.203491 
	C1719.785156,727.345215 1712.087646,712.172913 1707.243164,695.836853 
	C1701.114624,675.171326 1697.228760,654.064209 1699.068726,632.359985 
	C1700.037598,620.930542 1701.218384,609.474487 1703.185669,598.184143 
	C1706.444946,579.479004 1713.499390,561.871582 1722.686890,545.464050 
	C1729.039307,534.119385 1737.672485,523.982422 1745.823975,513.733276 
	C1754.485474,502.842712 1763.626465,492.319641 1772.851685,481.895935 
	C1779.607544,474.262360 1786.823364,467.034882 1793.859985,459.651001 
	C1807.835327,444.986023 1821.881348,430.387726 1835.780396,415.650848 
	C1839.704468,411.490295 1843.080566,406.815155 1846.972290,402.621429 
	C1849.430908,399.972229 1852.574463,397.964447 1855.076538,395.349182 
	C1871.063599,378.639526 1887.002563,361.883270 1902.843140,345.035034 
	C1905.876587,341.808746 1908.401978,338.104889 1911.863037,333.736237 
	C1907.512207,334.796417 1904.074463,335.223267 1900.958008,336.459961 
	C1880.262573,344.672638 1859.376831,352.480682 1839.073853,361.582306 
	C1824.433350,368.145477 1810.375000,376.119629 1796.469116,384.175873 
	C1783.329346,391.788330 1770.712280,400.305756 1757.893799,408.469727 
	C1748.627197,414.371552 1739.383545,420.310150 1730.172607,426.298462 
	C1720.595703,432.524811 1711.095337,438.868866 1701.516113,445.091766 
	C1690.808838,452.047485 1679.997192,458.843384 1669.336914,465.869568 
	C1663.751831,469.550659 1658.329346,473.488892 1652.949463,477.467804 
	C1645.898315,482.682678 1638.921997,488.001160 1631.983521,493.365662 
	C1615.716064,505.942902 1599.541870,518.641602 1583.197144,531.117126 
	C1580.449707,533.214233 1576.984375,534.348022 1573.946289,536.093323 
	C1570.168213,538.263672 1566.704224,541.128113 1562.723511,542.767578 
	C1554.343994,546.218811 1545.863281,549.599854 1537.147095,552.006592 
	C1529.055786,554.240845 1520.723755,556.443909 1512.109741,554.042175 
	C1501.974487,551.216187 1491.771484,548.630615 1481.652344,545.749634 
	C1471.876343,542.966431 1463.468628,538.326172 1460.008789,527.871460 
	C1456.783203,518.124512 1457.079346,508.509125 1460.543091,498.760712 
	C1461.482666,496.116455 1461.400635,491.774017 1459.802612,489.950592 
	C1458.300781,488.237152 1454.188110,488.694336 1451.203491,488.449127 
	C1449.773438,488.331635 1448.294189,488.790802 1446.839111,489.001312 
	C1438.545532,490.200836 1429.945312,490.403381 1422.028931,492.833344 
	C1409.143799,496.788544 1396.947876,502.667358 1386.254883,511.179474 
	C1383.563232,513.322083 1380.613159,514.539246 1377.160278,513.481384 
	C1369.224243,511.049927 1361.284912,508.623505 1353.393677,506.051697 
	C1342.532227,502.511932 1331.692871,498.901520 1320.882324,495.209320 
	C1306.580322,490.324707 1292.339966,485.258911 1278.024658,480.414459 
	C1270.158813,477.752594 1262.184082,475.414154 1254.275757,472.875885 
	C1248.113281,470.898010 1241.977661,468.837036 1235.830200,466.812195 
	C1229.881104,464.852661 1223.908203,462.961212 1217.989136,460.914612 
	C1210.569092,458.349030 1203.235352,455.528107 1195.785889,453.054047 
	C1188.485596,450.629486 1181.087158,448.499451 1173.730469,446.244995 
	C1169.041626,444.808105 1164.320679,443.468567 1159.666870,441.926331 
	C1153.374023,439.840912 1147.209351,437.336700 1140.852539,435.482697 
	C1125.025513,430.866821 1109.111938,426.548492 1093.251221,422.047058 
	C1085.600708,419.875763 1078.074463,417.207855 1070.346802,415.377563 
	C1047.277588,409.913696 1023.591919,406.690887 1002.043091,395.879333 
	C993.261108,391.473206 984.249084,387.508087 975.593750,382.871826 
	C965.314819,377.365906 955.250916,371.448822 945.198547,365.532074 
	C935.805054,360.003143 926.380737,354.495941 917.287109,348.498322 
	C910.502075,344.023315 904.082214,338.955688 897.749023,333.843231 
	C887.181274,325.312256 876.369141,317.008026 866.474670,307.738556 
	C854.562500,296.578705 842.747803,285.216858 833.731689,271.341492 
	C829.466919,264.778259 823.846863,259.037384 820.027405,252.255615 
	C812.928223,239.650665 805.774109,226.928925 800.379272,213.555344 
	C795.437439,201.304642 792.386902,188.225769 789.287781,175.323318 
	C787.637878,168.454285 787.650696,161.185852 786.953064,153.150742 
M738.077576,822.319824 
	C736.922363,820.916504 735.767090,819.513123 734.611877,818.109741 
	C734.253967,818.375427 733.896057,818.641052 733.538147,818.906677 
	C735.128052,821.246887 736.717896,823.587097 738.644287,826.422607 
	C738.860168,825.215027 739.046753,824.734863 738.998962,824.279236 
	C738.951355,823.824646 738.668945,823.394714 738.077576,822.319824 
M732.028809,817.286133 
	C732.549622,817.376648 733.070435,817.467102 733.591248,817.557617 
	C733.158081,816.729187 732.724854,815.900696 732.291626,815.072266 
	C732.120056,815.501587 731.948486,815.930908 732.028809,817.286133 
M774.295532,796.471130 
	C774.482544,796.937805 774.669617,797.404419 774.856567,797.871094 
	C774.925842,797.465149 774.995117,797.059143 774.295532,796.471130 
z"/>
<path fill="#29D8BB" opacity="1.000000" stroke="none" 
	d="
M86.101341,448.085541 
	C88.755829,448.723755 91.407265,449.898254 94.065300,449.913361 
	C111.744476,450.013977 129.279556,451.553314 146.805466,453.857910 
	C155.858566,455.048370 165.127060,454.508057 174.234955,455.397644 
	C185.808121,456.527985 197.305435,458.413605 208.857834,459.785217 
	C216.515793,460.694427 224.213913,461.263153 231.892303,462.002625 
	C241.576630,462.935242 251.244141,464.106781 260.946625,464.768890 
	C270.962799,465.452332 281.024750,465.459869 291.042480,466.126495 
	C297.250732,466.539612 303.393860,467.902588 309.601532,468.360352 
	C323.715820,469.401123 337.851868,470.146362 352.700714,471.393494 
	C361.623749,471.793365 369.825165,471.811462 378.026581,471.829529 
	C378.443329,471.886475 378.860046,471.943420 379.852234,472.387817 
	C398.278839,472.845734 416.129974,472.926575 433.981201,472.948181 
	C434.686371,472.949036 435.392181,472.385498 436.097717,472.084961 
	C444.689667,471.721863 453.332733,471.818146 461.859497,470.869141 
	C470.747833,469.879852 479.581696,468.149902 488.335083,466.260498 
	C500.039520,463.734039 511.917694,461.558014 523.226196,457.758179 
	C540.056335,452.103027 555.767700,443.896637 570.643921,434.027374 
	C582.955017,425.859863 595.791565,418.485168 608.370667,410.719330 
	C609.182495,410.218170 610.185181,409.489899 610.419861,408.672272 
	C613.125916,399.245667 615.468933,389.709045 618.387329,380.351044 
	C620.532104,373.473602 623.463257,366.845215 625.905640,360.056122 
	C631.483521,344.551544 636.935486,329.001648 642.528870,313.502777 
	C644.204712,308.859406 646.179321,304.323914 648.016785,299.738892 
	C651.777893,290.353546 655.285217,280.856232 659.366455,271.612274 
	C664.028198,261.053375 669.239685,250.738266 674.140076,240.283371 
	C678.966736,229.985764 683.569519,219.581177 688.522156,209.345291 
	C692.344177,201.446030 696.395020,193.646591 700.632324,185.961670 
	C706.712280,174.934906 712.979675,164.009262 719.303467,153.119690 
	C727.234741,139.461884 734.912842,125.633003 743.438843,112.352196 
	C750.163635,101.877167 757.812988,91.971657 765.401855,82.081909 
	C774.096436,70.751183 783.075134,59.632912 792.142334,48.596497 
	C795.692505,44.275249 799.818359,40.426880 803.682068,36.363155 
	C804.211609,36.677788 804.741089,36.992424 805.270630,37.307056 
	C804.860596,39.789387 804.752869,42.369617 803.986389,44.736534 
	C801.166870,53.444008 797.288940,61.898243 795.358337,70.784317 
	C791.966675,86.395813 789.716553,102.255310 786.607910,118.719421 
	C786.151672,129.790604 786.045471,140.153290 786.041321,150.516037 
	C786.040833,151.709808 786.608704,152.903793 786.913086,154.097672 
	C787.650696,161.185852 787.637878,168.454285 789.287781,175.323318 
	C792.386902,188.225769 795.437439,201.304642 800.379272,213.555344 
	C805.774109,226.928925 812.928223,239.650665 820.027405,252.255615 
	C823.846863,259.037384 829.466919,264.778259 833.731689,271.341492 
	C842.747803,285.216858 854.562500,296.578705 866.474670,307.738556 
	C876.369141,317.008026 887.181274,325.312256 897.749023,333.843231 
	C904.082214,338.955688 910.502075,344.023315 917.287109,348.498322 
	C926.380737,354.495941 935.805054,360.003143 945.198547,365.532074 
	C955.250916,371.448822 965.314819,377.365906 975.593750,382.871826 
	C984.249084,387.508087 993.261108,391.473206 1002.043091,395.879333 
	C1023.591919,406.690887 1047.277588,409.913696 1070.346802,415.377563 
	C1078.074463,417.207855 1085.600708,419.875763 1093.251221,422.047058 
	C1109.111938,426.548492 1125.025513,430.866821 1140.852539,435.482697 
	C1147.209351,437.336700 1153.374023,439.840912 1159.666870,441.926331 
	C1164.320679,443.468567 1169.041626,444.808105 1173.730469,446.244995 
	C1181.087158,448.499451 1188.485596,450.629486 1195.785889,453.054047 
	C1203.235352,455.528107 1210.569092,458.349030 1217.989136,460.914612 
	C1223.908203,462.961212 1229.881104,464.852661 1235.830200,466.812195 
	C1241.977661,468.837036 1248.113281,470.898010 1254.275757,472.875885 
	C1262.184082,475.414154 1270.158813,477.752594 1278.024658,480.414459 
	C1292.339966,485.258911 1306.580322,490.324707 1320.882324,495.209320 
	C1331.692871,498.901520 1342.532227,502.511932 1353.393677,506.051697 
	C1361.284912,508.623505 1369.224243,511.049927 1377.160278,513.481384 
	C1380.613159,514.539246 1383.563232,513.322083 1386.254883,511.179474 
	C1396.947876,502.667358 1409.143799,496.788544 1422.028931,492.833344 
	C1429.945312,490.403381 1438.545532,490.200836 1446.839111,489.001312 
	C1448.294189,488.790802 1449.773438,488.331635 1451.203491,488.449127 
	C1454.188110,488.694336 1458.300781,488.237152 1459.802612,489.950592 
	C1461.400635,491.774017 1461.482666,496.116455 1460.543091,498.760712 
	C1457.079346,508.509125 1456.783203,518.124512 1460.008789,527.871460 
	C1463.468628,538.326172 1471.876343,542.966431 1481.652344,545.749634 
	C1491.771484,548.630615 1501.974487,551.216187 1512.109741,554.042175 
	C1520.723755,556.443909 1529.055786,554.240845 1537.147095,552.006592 
	C1545.863281,549.599854 1554.343994,546.218811 1562.723511,542.767578 
	C1566.704224,541.128113 1570.168213,538.263672 1573.946289,536.093323 
	C1576.984375,534.348022 1580.449707,533.214233 1583.197144,531.117126 
	C1599.541870,518.641602 1615.716064,505.942902 1631.983521,493.365662 
	C1638.921997,488.001160 1645.898315,482.682678 1652.949463,477.467804 
	C1658.329346,473.488892 1663.751831,469.550659 1669.336914,465.869568 
	C1679.997192,458.843384 1690.808838,452.047485 1701.516113,445.091766 
	C1711.095337,438.868866 1720.595703,432.524811 1730.172607,426.298462 
	C1739.383545,420.310150 1748.627197,414.371552 1757.893799,408.469727 
	C1770.712280,400.305756 1783.329346,391.788330 1796.469116,384.175873 
	C1810.375000,376.119629 1824.433350,368.145477 1839.073853,361.582306 
	C1859.376831,352.480682 1880.262573,344.672638 1900.958008,336.459961 
	C1904.074463,335.223267 1907.512207,334.796417 1911.863037,333.736237 
	C1908.401978,338.104889 1905.876587,341.808746 1902.843140,345.035034 
	C1887.002563,361.883270 1871.063599,378.639526 1855.076538,395.349182 
	C1852.574463,397.964447 1849.430908,399.972229 1846.972290,402.621429 
	C1843.080566,406.815155 1839.704468,411.490295 1835.780396,415.650848 
	C1821.881348,430.387726 1807.835327,444.986023 1793.859985,459.651001 
	C1786.823364,467.034882 1779.607544,474.262360 1772.851685,481.895935 
	C1763.626465,492.319641 1754.485474,502.842712 1745.823975,513.733276 
	C1737.672485,523.982422 1729.039307,534.119385 1722.686890,545.464050 
	C1713.499390,561.871582 1706.444946,579.479004 1703.185669,598.184143 
	C1701.218384,609.474487 1700.037598,620.930542 1699.068726,632.359985 
	C1697.228760,654.064209 1701.114624,675.171326 1707.243164,695.836853 
	C1712.087646,712.172913 1719.785156,727.345215 1728.082642,742.203491 
	C1735.814697,756.048767 1743.315430,770.023071 1751.030640,783.877808 
	C1756.903076,794.423218 1762.999756,804.843323 1768.909424,815.368225 
	C1775.069580,826.339355 1780.902466,837.500366 1787.286377,848.338013 
	C1794.252563,860.164551 1801.739868,871.682922 1808.903320,883.394775 
	C1817.150269,896.877991 1825.394897,910.365479 1833.361450,924.014099 
	C1834.488037,925.944153 1834.035156,928.796204 1834.313354,931.221436 
	C1833.919922,931.626038 1833.526489,932.030640 1833.133179,932.435242 
	C1829.517700,929.922363 1825.820190,927.518311 1822.307007,924.869629 
	C1817.581421,921.307007 1812.747192,917.827271 1808.412109,913.822266 
	C1801.809082,907.721924 1795.696289,901.093994 1789.176514,894.899475 
	C1785.086670,891.013916 1780.429565,887.721252 1776.383301,883.795105 
	C1767.294312,874.975952 1758.314331,866.037109 1749.510742,856.933411 
	C1743.853516,851.083191 1738.644531,844.801941 1733.115234,838.824280 
	C1731.450806,837.024902 1729.204102,835.764404 1727.537109,833.966797 
	C1721.320435,827.261841 1715.228149,820.441406 1709.100098,813.654480 
	C1702.842896,806.724487 1696.619385,799.764038 1690.343628,792.851074 
	C1680.775757,782.311523 1671.017944,771.939941 1661.627930,761.244934 
	C1648.955322,746.811035 1636.573608,732.122009 1624.028687,717.575562 
	C1619.095459,711.855103 1613.833618,706.403748 1609.123535,700.508545 
	C1602.592041,692.333984 1596.458374,683.842285 1590.117554,675.514343 
	C1586.444946,670.690918 1582.398560,666.122559 1579.056152,661.083923 
	C1573.643188,652.923889 1569.024902,644.221619 1563.386108,636.231750 
	C1559.742920,631.069702 1555.222778,626.381714 1550.482422,622.171753 
	C1542.665649,615.229248 1533.009277,611.444214 1522.952881,609.377625 
	C1518.070190,608.374390 1512.739624,609.546875 1507.612061,609.739441 
	C1502.876465,609.917175 1498.093384,609.742859 1493.416260,610.363464 
	C1485.652344,611.393860 1477.961182,612.965088 1470.228638,614.243469 
	C1468.440552,614.538940 1466.554810,614.344360 1464.806274,614.761719 
	C1452.999878,617.579346 1446.034790,626.375366 1440.770142,636.158813 
	C1436.977539,643.206726 1435.235474,651.358032 1432.325806,659.746277 
	C1418.893066,656.094543 1410.454346,645.938293 1404.772705,631.972168 
	C1395.158447,635.482788 1385.641846,639.018799 1376.081177,642.431396 
	C1366.869873,645.719177 1357.566528,648.753052 1348.388794,652.129822 
	C1338.546143,655.751038 1328.823730,659.697876 1319.001709,663.376770 
	C1316.488037,664.318176 1313.632935,664.425537 1311.212891,665.527222 
	C1295.536743,672.663879 1283.461792,684.184387 1273.647339,697.998657 
	C1266.848511,707.568359 1260.441406,717.508057 1254.882446,727.833252 
	C1251.415527,734.272888 1249.349243,741.612488 1247.565186,748.775146 
	C1245.388794,757.513123 1244.167603,766.489075 1242.458374,775.768738 
	C1241.444336,775.118713 1240.112305,774.550110 1239.152344,773.604004 
	C1232.149780,766.702271 1224.951538,759.970154 1218.349365,752.699402 
	C1212.184204,745.909790 1206.143433,738.884583 1201.009033,731.311462 
	C1193.851562,720.754333 1187.442383,709.675659 1181.033813,698.633911 
	C1179.171753,695.425476 1177.173462,694.718445 1173.866211,695.629517 
	C1171.378052,696.314819 1168.780396,696.841553 1166.210815,696.950684 
	C1155.451904,697.407837 1144.685425,697.680908 1132.993652,698.020386 
	C1098.701904,698.069519 1065.338013,698.119751 1031.974243,698.170044 
	C1031.557495,698.113281 1031.140747,698.056519 1030.148560,697.612427 
	C1021.386597,697.200500 1013.200073,697.175842 1005.013550,697.151245 
	C994.586426,696.767395 984.139465,696.665039 973.736877,695.932800 
	C958.659790,694.871399 943.617249,693.326355 928.555359,692.041138 
	C916.196960,690.986694 903.819763,690.136719 891.475342,688.943298 
	C885.791077,688.393738 880.190002,686.991821 874.506470,686.423767 
	C867.907349,685.764099 861.256897,685.631165 854.633240,685.198975 
	C851.022888,684.963440 847.421997,684.581787 842.763123,684.173645 
	C843.881409,686.579651 844.257812,688.372192 845.324768,689.526245 
	C852.590332,697.385010 859.963562,705.145569 867.380005,712.862854 
	C871.367188,717.011780 875.500854,721.020325 879.582825,725.077698 
	C885.348877,730.809021 890.961182,736.709656 896.957092,742.190125 
	C901.403564,746.254333 906.463806,749.641296 911.006836,753.609192 
	C912.151428,754.608948 912.361389,756.678833 913.000854,758.256958 
	C911.435974,758.869324 909.714294,760.255554 908.330261,759.975220 
	C893.461670,756.963257 878.626648,753.776428 863.821655,750.462219 
	C846.862183,746.665710 831.630432,738.536499 816.453064,730.558472 
	C809.595032,726.953613 803.593689,721.641724 797.428955,716.816589 
	C791.145508,711.898560 784.487732,707.219910 779.162598,701.372131 
	C771.109436,692.528687 764.187378,682.663818 756.491455,673.478699 
	C755.069824,671.781982 752.366394,670.747498 750.073120,670.258728 
	C733.268188,666.676819 716.384705,663.458740 699.604126,659.770569 
	C695.638428,658.898987 695.072632,659.164612 695.929077,663.299866 
	C697.980225,673.203430 698.633606,683.452209 701.331299,693.149963 
	C703.854919,702.221802 707.822510,710.990540 712.001038,719.475891 
	C716.294922,728.195435 721.223083,736.670715 726.616882,744.757141 
	C730.364197,750.375061 735.255249,755.257568 739.835632,760.286194 
	C747.943970,769.188049 756.104309,778.047974 764.456116,786.720032 
	C767.387878,789.764282 770.946167,792.205078 774.218323,794.921448 
	C773.861694,795.423401 773.505005,795.925354 773.148376,796.427307 
	C772.001404,795.751770 770.730835,795.223145 769.727112,794.377625 
	C761.213562,787.207520 752.655212,780.085938 744.296387,772.738159 
	C736.538879,765.919006 728.330200,759.436523 721.557068,751.720093 
	C713.581238,742.633606 706.772766,732.494202 699.783142,722.582031 
	C696.221008,717.530579 693.159119,712.088196 690.281494,706.607117 
	C688.680237,703.557190 687.978821,700.043518 686.763794,696.779053 
	C685.930359,694.539612 684.910950,692.369324 682.893188,690.369019 
	C683.179565,693.129883 683.437683,695.894104 683.757141,698.651184 
	C685.515564,713.826660 688.547546,728.635437 695.052612,742.638000 
	C699.367615,751.926514 702.626038,761.715637 707.114990,770.910889 
	C711.526917,779.948242 716.860229,788.538635 721.856750,797.286682 
	C725.187805,803.118774 728.637268,808.883240 731.302856,815.378052 
	C730.556824,814.978638 729.547302,814.767273 729.106445,814.149902 
	C725.580444,809.212097 722.055603,804.266846 718.741089,799.186462 
	C715.537109,794.275513 712.504456,789.247559 709.536926,784.188660 
	C703.583130,774.039185 697.821045,763.776367 691.805603,753.663940 
	C682.159607,737.448425 676.544312,719.573853 670.658569,701.859680 
	C668.503479,695.373901 667.877197,688.328613 667.008179,681.480896 
	C666.063232,674.034668 665.554077,666.527527 665.051270,659.033813 
	C664.879150,656.467590 665.300537,653.861572 665.443054,651.407654 
	C649.473694,646.375000 633.400757,641.393982 617.384216,636.238037 
	C601.698975,631.188843 585.950623,626.296570 570.450806,620.721252 
	C553.867126,614.756104 537.573364,607.989380 521.091064,601.736084 
	C511.217102,597.989868 501.188599,594.652405 491.298035,590.948303 
	C485.131927,588.639038 479.143341,585.857544 472.986847,583.520386 
	C462.317413,579.469910 451.617004,575.493896 440.859314,571.685120 
	C430.921448,568.166687 420.943298,564.743164 410.885742,561.587341 
	C402.639313,558.999817 394.314514,556.594604 385.906494,554.607788 
	C377.114532,552.530396 368.181732,551.049194 358.694885,548.463318 
	C362.074341,547.095703 365.342621,545.221436 368.853149,544.451050 
	C381.869659,541.594666 394.946228,538.998047 408.039948,536.513123 
	C415.488617,535.099487 423.024231,534.149536 430.499176,532.865540 
	C432.693268,532.488586 434.813568,531.682434 436.982819,530.227234 
	C306.310638,501.739838 174.557449,479.466095 43.498402,451.721313 
	C49.058037,450.815826 54.617672,449.910339 61.055138,448.991516 
	C65.367844,448.985443 68.807541,449.110748 72.236443,448.971130 
	C76.862419,448.782684 81.480103,448.390350 86.101341,448.085541 
z"/>
<path fill="#201E20" opacity="1.000000" stroke="none" 
	d="
M1032.343262,698.356873 
	C1065.338013,698.119751 1098.701904,698.069519 1132.528564,698.085327 
	C1131.542847,698.433716 1130.094849,698.960327 1128.645996,698.962524 
	C1097.816895,699.009155 1066.987793,699.001648 1036.158691,698.976868 
	C1035.009766,698.975952 1033.860962,698.694458 1032.343262,698.356873 
z"/>
<path fill="#222020" opacity="1.000000" stroke="none" 
	d="
M435.624207,472.063690 
	C435.392181,472.385498 434.686371,472.949036 433.981201,472.948181 
	C416.129974,472.926575 398.278839,472.845734 380.165527,472.429871 
	C398.319153,472.070404 416.734924,472.056396 435.624207,472.063690 
z"/>
<path fill="#221E1E" opacity="1.000000" stroke="none" 
	d="
M786.933105,153.624207 
	C786.608704,152.903793 786.040833,151.709808 786.041321,150.516037 
	C786.045471,140.153290 786.151672,129.790604 786.573364,119.166084 
	C786.930481,130.319763 786.941772,141.735260 786.933105,153.624207 
z"/>
<path fill="#202020" opacity="1.000000" stroke="none" 
	d="
M85.627525,448.065735 
	C81.480103,448.390350 76.862419,448.782684 72.236443,448.971130 
	C68.807541,449.110748 65.367844,448.985443 61.469948,448.912903 
	C69.055862,448.580414 77.104782,448.313171 85.627525,448.065735 
z"/>
<path fill="#201E20" opacity="1.000000" stroke="none" 
	d="
M377.657654,471.642639 
	C369.825165,471.811462 361.623749,471.793365 353.161163,471.428375 
	C361.029572,471.206207 369.159119,471.330963 377.657654,471.642639 
z"/>
<path fill="#222020" opacity="1.000000" stroke="none" 
	d="
M1005.373901,697.346985 
	C1013.200073,697.175842 1021.386597,697.200500 1029.835205,697.570740 
	C1021.976318,697.791870 1013.855286,697.667358 1005.373901,697.346985 
z"/>
<path fill="#29D8BB" opacity="1.000000" stroke="none" 
	d="
M738.283569,822.636902 
	C738.668945,823.394714 738.951355,823.824646 738.998962,824.279236 
	C739.046753,824.734863 738.860168,825.215027 738.644287,826.422607 
	C736.717896,823.587097 735.128052,821.246887 733.538147,818.906677 
	C733.896057,818.641052 734.253967,818.375427 734.611877,818.109741 
	C735.767090,819.513123 736.922363,820.916504 738.283569,822.636902 
z"/>
<path fill="#29D8BB" opacity="1.000000" stroke="none" 
	d="
M731.902832,816.823242 
	C731.948486,815.930908 732.120056,815.501587 732.291626,815.072266 
	C732.724854,815.900696 733.158081,816.729187 733.591248,817.557617 
	C733.070435,817.467102 732.549622,817.376648 731.902832,816.823242 
z"/>
<path fill="#29D8BB" opacity="1.000000" stroke="none" 
	d="
M774.679932,796.562134 
	C774.995117,797.059143 774.925842,797.465149 774.856567,797.871094 
	C774.669617,797.404419 774.482544,796.937805 774.679932,796.562134 
z"/>
</svg>